M48
METRIC,LZ,000.000
;FILE_FORMAT=3:3
;TYPE=PLATED
;Layer: Drill PTH
;EasyEDA v6.4.19.5, 2021-05-28T19:21:40+07:00
;6e6706e82e5b4a748e8d5c8c40211ff5,daa0c75fb02d462d8576232f80c62aaa,10
;Gerber Generator version 0.2
;Holesize 1 = 0.600 mm
T01C0.600
;Holesize 2 = 0.701 mm
T02C0.701
;Holesize 3 = 0.800 mm
T03C0.800
;Holesize 4 = 0.813 mm
T04C0.813
;Holesize 5 = 0.901 mm
T05C0.901
;Holesize 6 = 0.915 mm
T06C0.915
;Holesize 7 = 0.920 mm
T07C0.920
;Holesize 8 = 1.000 mm
T08C1.000
;Holesize 9 = 1.016 mm
T09C1.016
;Holesize 10 = 1.101 mm
T10C1.101
;Holesize 11 = 1.200 mm
T11C1.200
;Holesize 12 = 1.321 mm
T12C1.321
;Holesize 13 = 1.501 mm
T13C1.501
%
G05
G90
T01
X072263Y048387
X072263Y050165
X072263Y051943
T02
X104394Y059436
X104394Y057785
X104394Y056134
T03
X097663Y045974
X107823Y045974
X098044Y058039
X087884Y058039
X057404Y050038
X067564Y050038
X021590Y016510
X021590Y014010
X021590Y011510
X021590Y009010
X011430Y016510
X011430Y014010
X011430Y011510
X011430Y009010
T04
X031877Y008509
T05
X032484Y076400G85X032484Y076400
X032484Y058900G85X032484Y058900
X072484Y076400G85X072484Y076400
X072484Y058900G85X072484Y058900
T06
X027813Y044577
X027813Y038100
X043053Y027305
X088380Y051181
X088380Y053681
X097130Y051181
X097130Y053681
T07
X114579Y035306
X090653Y021278
X090653Y031438
X090653Y028898
X090653Y026358
X090653Y023818
X114579Y032766
X114579Y030226
X114579Y027686
X114579Y025146
X114579Y022606
X114579Y020066
T08
X081280Y038290G85X081280Y038290
X081280Y045910G85X081280Y045910
X039751Y008509
X016637Y062103
X014097Y062103
X019177Y062103
T09
X063373Y043307
X063373Y017907
X063373Y040767
X063373Y015367
X060833Y043307
X060833Y017907
X060833Y040767
X060833Y015367
X058293Y043307
X058293Y017907
X058293Y040767
X058293Y015367
X055753Y043307
X055753Y017907
X055753Y040767
X055753Y015367
X053213Y043307
X053213Y017907
X053213Y040767
X053213Y015367
X050673Y043307
X050673Y017907
X050673Y040767
X050673Y015367
X048133Y043307
X048133Y017907
X048133Y040767
X048133Y015367
X045593Y043307
X045593Y017907
X045593Y040767
X045593Y015367
X043053Y043307
X043053Y017907
X043053Y040767
X043053Y015367
X040513Y043307
X040513Y017907
X040513Y040767
X040513Y015367
T10
X011430Y054737
X011430Y052197
X011430Y049657
X011430Y047117
X011430Y044577
X011430Y042037
X011430Y039497
X011430Y036957
X021590Y054737
X021590Y052197
X021590Y049657
X021590Y047117
X021590Y044577
X021590Y042037
X021590Y039497
X021590Y036957
T11
X080264Y066421
X080264Y074168
T12
X113411Y068349G85X113411Y068354
X113411Y073378G85X113411Y073383
T13
X020867Y069723G85X022567Y069723
X017907Y073953G85X017907Y075653
X024257Y073953G85X024257Y075653
X086995Y070993
X088994Y064993
X088994Y076993
X101194Y076993
X101194Y064993
M30
