G04 Layer: TopSilkLayer*
G04 EasyEDA v6.4.19.5, 2021-05-28T19:21:40+07:00*
G04 6e6706e82e5b4a748e8d5c8c40211ff5,daa0c75fb02d462d8576232f80c62aaa,10*
G04 Gerber Generator version 0.2*
G04 Scale: 100 percent, Rotated: No, Reflected: No *
G04 Dimensions in millimeters *
G04 leading zeros omitted , absolute positions ,4 integer and 5 decimal *
%FSLAX45Y45*%
%MOMM*%

%ADD22C,0.1778*%
%ADD23C,0.2540*%
%ADD24C,0.2286*%
%ADD25C,0.1270*%
%ADD26C,0.3000*%
%ADD27C,0.2032*%
%ADD28C,0.1524*%
%ADD29C,0.1016*%
%ADD30C,0.2400*%
%ADD31C,0.1000*%
%ADD32C,0.1500*%
%ADD33C,0.2000*%
%ADD34C,0.1189*%

%LPD*%
D28*
X1830070Y8002015D02*
G01*
X1830070Y7918958D01*
X1824736Y7903210D01*
X1819655Y7898129D01*
X1809242Y7893050D01*
X1798828Y7893050D01*
X1788413Y7898129D01*
X1783079Y7903210D01*
X1778000Y7918958D01*
X1778000Y7929371D01*
X1905762Y8002015D02*
G01*
X1864360Y7893050D01*
X1905762Y8002015D02*
G01*
X1947418Y7893050D01*
X1879854Y7929371D02*
G01*
X1931670Y7929371D01*
X2059686Y7976108D02*
G01*
X2054352Y7986521D01*
X2043938Y7996936D01*
X2033524Y8002015D01*
X2012950Y8002015D01*
X2002536Y7996936D01*
X1992122Y7986521D01*
X1986788Y7976108D01*
X1981708Y7960360D01*
X1981708Y7934452D01*
X1986788Y7918958D01*
X1992122Y7908544D01*
X2002536Y7898129D01*
X2012950Y7893050D01*
X2033524Y7893050D01*
X2043938Y7898129D01*
X2054352Y7908544D01*
X2059686Y7918958D01*
X2093975Y8002015D02*
G01*
X2093975Y7893050D01*
X2166620Y8002015D02*
G01*
X2093975Y7929371D01*
X2119884Y7955279D02*
G01*
X2166620Y7893050D01*
X2200909Y7981187D02*
G01*
X2211324Y7986521D01*
X2226818Y8002015D01*
X2226818Y7893050D01*
X7398511Y4191000D02*
G01*
X7393177Y4201413D01*
X7377684Y4216907D01*
X7486650Y4216907D01*
D29*
X7763256Y3817365D02*
G01*
X7867141Y3817365D01*
X7815072Y3765550D02*
G01*
X7815072Y3869436D01*
D28*
X10274300Y4890515D02*
G01*
X10274300Y4781550D01*
X10274300Y4890515D02*
G01*
X10321036Y4890515D01*
X10336529Y4885436D01*
X10341863Y4880102D01*
X10346943Y4869687D01*
X10346943Y4859273D01*
X10341863Y4848860D01*
X10336529Y4843779D01*
X10321036Y4838700D01*
X10274300Y4838700D01*
X10310622Y4838700D02*
G01*
X10346943Y4781550D01*
X10391647Y4890515D02*
G01*
X10448797Y4890515D01*
X10417809Y4848860D01*
X10433304Y4848860D01*
X10443718Y4843779D01*
X10448797Y4838700D01*
X10454131Y4822952D01*
X10454131Y4812537D01*
X10448797Y4797044D01*
X10438384Y4786629D01*
X10422890Y4781550D01*
X10407395Y4781550D01*
X10391647Y4786629D01*
X10386568Y4791710D01*
X10381234Y4802123D01*
X9296400Y5510784D02*
G01*
X9296400Y5619750D01*
X9296400Y5510784D02*
G01*
X9249663Y5510784D01*
X9234170Y5515863D01*
X9228836Y5521197D01*
X9223756Y5531612D01*
X9223756Y5542026D01*
X9228836Y5552439D01*
X9234170Y5557520D01*
X9249663Y5562600D01*
X9296400Y5562600D01*
X9260077Y5562600D02*
G01*
X9223756Y5619750D01*
X9184131Y5536692D02*
G01*
X9184131Y5531612D01*
X9179052Y5521197D01*
X9173718Y5515863D01*
X9163304Y5510784D01*
X9142729Y5510784D01*
X9132315Y5515863D01*
X9126981Y5521197D01*
X9121902Y5531612D01*
X9121902Y5542026D01*
X9126981Y5552439D01*
X9137395Y5567934D01*
X9189465Y5619750D01*
X9116568Y5619750D01*
X6248400Y5296915D02*
G01*
X6248400Y5187950D01*
X6248400Y5296915D02*
G01*
X6295136Y5296915D01*
X6310629Y5291836D01*
X6315963Y5286502D01*
X6321043Y5276087D01*
X6321043Y5265673D01*
X6315963Y5255260D01*
X6310629Y5250179D01*
X6295136Y5245100D01*
X6248400Y5245100D01*
X6284722Y5245100D02*
G01*
X6321043Y5187950D01*
X6355334Y5276087D02*
G01*
X6365747Y5281421D01*
X6381495Y5296915D01*
X6381495Y5187950D01*
X7733284Y7023100D02*
G01*
X7842250Y7023100D01*
X7733284Y7023100D02*
G01*
X7733284Y7059421D01*
X7738363Y7075170D01*
X7748777Y7085329D01*
X7759191Y7090663D01*
X7774940Y7095744D01*
X7800847Y7095744D01*
X7816341Y7090663D01*
X7826756Y7085329D01*
X7837170Y7075170D01*
X7842250Y7059421D01*
X7842250Y7023100D01*
X7759191Y7135368D02*
G01*
X7754111Y7135368D01*
X7743697Y7140447D01*
X7738363Y7145781D01*
X7733284Y7156195D01*
X7733284Y7176770D01*
X7738363Y7187184D01*
X7743697Y7192518D01*
X7754111Y7197597D01*
X7764525Y7197597D01*
X7774940Y7192518D01*
X7790434Y7182104D01*
X7842250Y7130034D01*
X7842250Y7202931D01*
X10464800Y6211315D02*
G01*
X10464800Y6133337D01*
X10469879Y6117844D01*
X10480293Y6107429D01*
X10496041Y6102350D01*
X10506456Y6102350D01*
X10521950Y6107429D01*
X10532363Y6117844D01*
X10537443Y6133337D01*
X10537443Y6211315D01*
X10597895Y6211315D02*
G01*
X10582147Y6206236D01*
X10577068Y6195821D01*
X10577068Y6185407D01*
X10582147Y6174994D01*
X10592561Y6169660D01*
X10613390Y6164579D01*
X10628884Y6159500D01*
X10639297Y6149086D01*
X10644631Y6138671D01*
X10644631Y6122923D01*
X10639297Y6112510D01*
X10634218Y6107429D01*
X10618470Y6102350D01*
X10597895Y6102350D01*
X10582147Y6107429D01*
X10577068Y6112510D01*
X10571734Y6122923D01*
X10571734Y6138671D01*
X10577068Y6149086D01*
X10587481Y6159500D01*
X10602975Y6164579D01*
X10623804Y6169660D01*
X10634218Y6174994D01*
X10639297Y6185407D01*
X10639297Y6195821D01*
X10634218Y6206236D01*
X10618470Y6211315D01*
X10597895Y6211315D01*
X5232400Y8090915D02*
G01*
X5232400Y7981950D01*
X5232400Y8090915D02*
G01*
X5279136Y8090915D01*
X5294629Y8085836D01*
X5299963Y8080502D01*
X5305043Y8070087D01*
X5305043Y8059673D01*
X5299963Y8049260D01*
X5294629Y8044179D01*
X5279136Y8039100D01*
X5232400Y8039100D01*
X5268722Y8039100D02*
G01*
X5305043Y7981950D01*
X5339334Y8090915D02*
G01*
X5339334Y7981950D01*
X5339334Y8090915D02*
G01*
X5406897Y8090915D01*
X5339334Y8039100D02*
G01*
X5380990Y8039100D01*
X5339334Y7981950D02*
G01*
X5406897Y7981950D01*
X5519165Y8065008D02*
G01*
X5514086Y8075421D01*
X5503672Y8085836D01*
X5493258Y8090915D01*
X5472429Y8090915D01*
X5462015Y8085836D01*
X5451602Y8075421D01*
X5446522Y8065008D01*
X5441188Y8049260D01*
X5441188Y8023352D01*
X5446522Y8007858D01*
X5451602Y7997444D01*
X5462015Y7987029D01*
X5472429Y7981950D01*
X5493258Y7981950D01*
X5503672Y7987029D01*
X5514086Y7997444D01*
X5519165Y8007858D01*
X5519165Y8023352D01*
X5493258Y8023352D02*
G01*
X5519165Y8023352D01*
X5553456Y8070087D02*
G01*
X5563870Y8075421D01*
X5579363Y8090915D01*
X5579363Y7981950D01*
D30*
X3483356Y7927847D02*
G01*
X3483356Y7641336D01*
X3573525Y7927847D02*
G01*
X3573525Y7641336D01*
X3573525Y7927847D02*
G01*
X3764279Y7641336D01*
X3764279Y7927847D02*
G01*
X3764279Y7641336D01*
X3977131Y7886700D02*
G01*
X3977131Y7641336D01*
X3854195Y7764018D02*
G01*
X4099813Y7764018D01*
X3493515Y6207760D02*
G01*
X3493515Y5921247D01*
X3583431Y6207760D02*
G01*
X3583431Y5921247D01*
X3583431Y6207760D02*
G01*
X3774186Y5921247D01*
X3774186Y6207760D02*
G01*
X3774186Y5921247D01*
X3864356Y6044184D02*
G01*
X4109720Y6044184D01*
X6025134Y7937754D02*
G01*
X5997956Y7924037D01*
X5970777Y7896860D01*
X5957061Y7869428D01*
X5943345Y7828534D01*
X5943345Y7760462D01*
X5957061Y7719568D01*
X5970777Y7692136D01*
X5997956Y7664958D01*
X6025134Y7651242D01*
X6079743Y7651242D01*
X6106922Y7664958D01*
X6134354Y7692136D01*
X6147815Y7719568D01*
X6161531Y7760462D01*
X6161531Y7828534D01*
X6147815Y7869428D01*
X6134354Y7896860D01*
X6106922Y7924037D01*
X6079743Y7937754D01*
X6025134Y7937754D01*
X6251702Y7937754D02*
G01*
X6251702Y7733284D01*
X6265163Y7692136D01*
X6292595Y7664958D01*
X6333490Y7651242D01*
X6360668Y7651242D01*
X6401561Y7664958D01*
X6428740Y7692136D01*
X6442456Y7733284D01*
X6442456Y7937754D01*
X6627875Y7937754D02*
G01*
X6627875Y7651242D01*
X6532372Y7937754D02*
G01*
X6723379Y7937754D01*
X6936231Y7896860D02*
G01*
X6936231Y7651242D01*
X6813295Y7774178D02*
G01*
X7058913Y7774178D01*
X6175247Y6227826D02*
G01*
X6147815Y6214110D01*
X6120638Y6186931D01*
X6106922Y6159500D01*
X6093459Y6118605D01*
X6093459Y6050534D01*
X6106922Y6009639D01*
X6120638Y5982207D01*
X6147815Y5955029D01*
X6175247Y5941313D01*
X6229858Y5941313D01*
X6257036Y5955029D01*
X6284213Y5982207D01*
X6297929Y6009639D01*
X6311645Y6050534D01*
X6311645Y6118605D01*
X6297929Y6159500D01*
X6284213Y6186931D01*
X6257036Y6214110D01*
X6229858Y6227826D01*
X6175247Y6227826D01*
X6401561Y6227826D02*
G01*
X6401561Y6023102D01*
X6415277Y5982207D01*
X6442456Y5955029D01*
X6483350Y5941313D01*
X6510781Y5941313D01*
X6551675Y5955029D01*
X6578854Y5982207D01*
X6592570Y6023102D01*
X6592570Y6227826D01*
X6777990Y6227826D02*
G01*
X6777990Y5941313D01*
X6682486Y6227826D02*
G01*
X6873493Y6227826D01*
X6963409Y6063995D02*
G01*
X7208774Y6063995D01*
D28*
X7659115Y5029200D02*
G01*
X7581138Y5029200D01*
X7565643Y5024120D01*
X7555229Y5013705D01*
X7550150Y4997957D01*
X7550150Y4987544D01*
X7555229Y4972050D01*
X7565643Y4961636D01*
X7581138Y4956555D01*
X7659115Y4956555D01*
X7622793Y4854702D02*
G01*
X7607300Y4859781D01*
X7596886Y4870195D01*
X7591552Y4885689D01*
X7591552Y4891023D01*
X7596886Y4906518D01*
X7607300Y4916931D01*
X7622793Y4922265D01*
X7627874Y4922265D01*
X7643622Y4916931D01*
X7654036Y4906518D01*
X7659115Y4891023D01*
X7659115Y4885689D01*
X7654036Y4870195D01*
X7643622Y4859781D01*
X7622793Y4854702D01*
X7596886Y4854702D01*
X7570724Y4859781D01*
X7555229Y4870195D01*
X7550150Y4885689D01*
X7550150Y4896104D01*
X7555229Y4911852D01*
X7565643Y4916931D01*
D31*
X7418577Y4762500D02*
G01*
X7370825Y4762500D01*
X7418577Y4762500D02*
G01*
X7418577Y4741926D01*
X7416291Y4735321D01*
X7414006Y4733036D01*
X7409688Y4730750D01*
X7405115Y4730750D01*
X7400543Y4733036D01*
X7398258Y4735321D01*
X7395972Y4741926D01*
X7395972Y4762500D02*
G01*
X7395972Y4741926D01*
X7393686Y4735321D01*
X7391400Y4733036D01*
X7386827Y4730750D01*
X7379970Y4730750D01*
X7375397Y4733036D01*
X7373111Y4735321D01*
X7370825Y4741926D01*
X7370825Y4762500D01*
X7394702Y5007863D02*
G01*
X7399274Y5010150D01*
X7403591Y5014721D01*
X7405877Y5019294D01*
X7405877Y5028184D01*
X7403591Y5032755D01*
X7399274Y5037328D01*
X7394702Y5039613D01*
X7387843Y5041900D01*
X7376413Y5041900D01*
X7369556Y5039613D01*
X7364984Y5037328D01*
X7360411Y5032755D01*
X7358125Y5028184D01*
X7358125Y5019294D01*
X7360411Y5014721D01*
X7364984Y5010150D01*
X7369556Y5007863D01*
X7429497Y5295900D02*
G01*
X7381745Y5295900D01*
X7429497Y5295900D02*
G01*
X7429497Y5266436D01*
X7406891Y5295900D02*
G01*
X7406891Y5277612D01*
X7381745Y5295900D02*
G01*
X7381745Y5266436D01*
D28*
X9486900Y8027415D02*
G01*
X9486900Y7918450D01*
X9559543Y8027415D02*
G01*
X9486900Y7954771D01*
X9512808Y7980679D02*
G01*
X9559543Y7918450D01*
X9593834Y8006587D02*
G01*
X9604247Y8011921D01*
X9619995Y8027415D01*
X9619995Y7918450D01*
X10234320Y4235856D02*
G01*
X10234320Y4157878D01*
X10239400Y4142384D01*
X10249814Y4131970D01*
X10265562Y4126890D01*
X10275976Y4126890D01*
X10291470Y4131970D01*
X10301884Y4142384D01*
X10306964Y4157878D01*
X10306964Y4235856D01*
X10346588Y4209948D02*
G01*
X10346588Y4215028D01*
X10351668Y4225442D01*
X10357002Y4230776D01*
X10367416Y4235856D01*
X10387990Y4235856D01*
X10398404Y4230776D01*
X10403738Y4225442D01*
X10408818Y4215028D01*
X10408818Y4204614D01*
X10403738Y4194200D01*
X10393324Y4178706D01*
X10341254Y4126890D01*
X10414152Y4126890D01*
D32*
X9247873Y3197512D02*
G01*
X9247873Y3102008D01*
X9247873Y3197512D02*
G01*
X9279623Y3197512D01*
X9293339Y3192940D01*
X9302229Y3183796D01*
X9306801Y3174652D01*
X9311373Y3161190D01*
X9311373Y3138330D01*
X9306801Y3124614D01*
X9302229Y3115724D01*
X9293339Y3106580D01*
X9279623Y3102008D01*
X9247873Y3102008D01*
X9405099Y3183796D02*
G01*
X9395955Y3192940D01*
X9382239Y3197512D01*
X9364205Y3197512D01*
X9350489Y3192940D01*
X9341345Y3183796D01*
X9341345Y3174652D01*
X9345917Y3165508D01*
X9350489Y3161190D01*
X9359633Y3156618D01*
X9386811Y3147474D01*
X9395955Y3142902D01*
X9400527Y3138330D01*
X9405099Y3129186D01*
X9405099Y3115724D01*
X9395955Y3106580D01*
X9382239Y3102008D01*
X9364205Y3102008D01*
X9350489Y3106580D01*
X9341345Y3115724D01*
X9311482Y2933750D02*
G01*
X9302338Y2942894D01*
X9288622Y2947466D01*
X9270588Y2947466D01*
X9256872Y2942894D01*
X9247728Y2933750D01*
X9247728Y2924606D01*
X9252300Y2915716D01*
X9256872Y2911144D01*
X9266016Y2906572D01*
X9293194Y2897428D01*
X9302338Y2892856D01*
X9306910Y2888284D01*
X9311482Y2879140D01*
X9311482Y2865678D01*
X9302338Y2856534D01*
X9288622Y2851962D01*
X9270588Y2851962D01*
X9256872Y2856534D01*
X9247728Y2865678D01*
X9409526Y2924606D02*
G01*
X9404954Y2933750D01*
X9396064Y2942894D01*
X9386920Y2947466D01*
X9368632Y2947466D01*
X9359488Y2942894D01*
X9350598Y2933750D01*
X9346026Y2924606D01*
X9341454Y2911144D01*
X9341454Y2888284D01*
X9346026Y2874822D01*
X9350598Y2865678D01*
X9359488Y2856534D01*
X9368632Y2851962D01*
X9386920Y2851962D01*
X9396064Y2856534D01*
X9404954Y2865678D01*
X9409526Y2874822D01*
X9439498Y2947466D02*
G01*
X9439498Y2851962D01*
X9439498Y2851962D02*
G01*
X9494108Y2851962D01*
X9311340Y2683921D02*
G01*
X9302450Y2692811D01*
X9288734Y2697383D01*
X9270446Y2697383D01*
X9256984Y2692811D01*
X9247840Y2683921D01*
X9247840Y2674777D01*
X9252412Y2665633D01*
X9256984Y2661061D01*
X9265874Y2656489D01*
X9293306Y2647345D01*
X9302450Y2642773D01*
X9306768Y2638455D01*
X9311340Y2629311D01*
X9311340Y2615595D01*
X9302450Y2606451D01*
X9288734Y2601879D01*
X9270446Y2601879D01*
X9256984Y2606451D01*
X9247840Y2615595D01*
X9341312Y2697383D02*
G01*
X9341312Y2601879D01*
X9341312Y2697383D02*
G01*
X9373316Y2697383D01*
X9386778Y2692811D01*
X9395922Y2683921D01*
X9400494Y2674777D01*
X9405066Y2661061D01*
X9405066Y2638455D01*
X9400494Y2624739D01*
X9395922Y2615595D01*
X9386778Y2606451D01*
X9373316Y2601879D01*
X9341312Y2601879D01*
X9471360Y2697383D02*
G01*
X9435038Y2601879D01*
X9471360Y2697383D02*
G01*
X9507682Y2601879D01*
X9448754Y2633883D02*
G01*
X9494220Y2633883D01*
X9247759Y2422456D02*
G01*
X9284081Y2326952D01*
X9320402Y2422456D02*
G01*
X9284081Y2326952D01*
X9418700Y2399596D02*
G01*
X9414129Y2408740D01*
X9404984Y2417884D01*
X9396095Y2422456D01*
X9377806Y2422456D01*
X9368663Y2417884D01*
X9359518Y2408740D01*
X9354947Y2399596D01*
X9350629Y2386134D01*
X9350629Y2363274D01*
X9354947Y2349812D01*
X9359518Y2340668D01*
X9368663Y2331524D01*
X9377806Y2326952D01*
X9396095Y2326952D01*
X9404984Y2331524D01*
X9414129Y2340668D01*
X9418700Y2349812D01*
X9516999Y2399596D02*
G01*
X9512427Y2408740D01*
X9503283Y2417884D01*
X9494138Y2422456D01*
X9475850Y2422456D01*
X9466961Y2417884D01*
X9457816Y2408740D01*
X9453245Y2399596D01*
X9448672Y2386134D01*
X9448672Y2363274D01*
X9453245Y2349812D01*
X9457816Y2340668D01*
X9466961Y2331524D01*
X9475850Y2326952D01*
X9494138Y2326952D01*
X9503283Y2331524D01*
X9512427Y2340668D01*
X9516999Y2349812D01*
X9316051Y2149662D02*
G01*
X9311479Y2158806D01*
X9302335Y2167950D01*
X9293191Y2172522D01*
X9275157Y2172522D01*
X9266013Y2167950D01*
X9256869Y2158806D01*
X9252297Y2149662D01*
X9247725Y2135946D01*
X9247725Y2113340D01*
X9252297Y2099624D01*
X9256869Y2090734D01*
X9266013Y2081590D01*
X9275157Y2077018D01*
X9293191Y2077018D01*
X9302335Y2081590D01*
X9311479Y2090734D01*
X9316051Y2099624D01*
X9316051Y2113340D01*
X9293191Y2113340D02*
G01*
X9316051Y2113340D01*
X9346023Y2172522D02*
G01*
X9346023Y2077018D01*
X9346023Y2172522D02*
G01*
X9409523Y2077018D01*
X9409523Y2172522D02*
G01*
X9409523Y2077018D01*
X9439495Y2172522D02*
G01*
X9439495Y2077018D01*
X9439495Y2172522D02*
G01*
X9471499Y2172522D01*
X9484961Y2167950D01*
X9494105Y2158806D01*
X9498677Y2149662D01*
X9503249Y2135946D01*
X9503249Y2113340D01*
X9498677Y2099624D01*
X9494105Y2090734D01*
X9484961Y2081590D01*
X9471499Y2077018D01*
X9439495Y2077018D01*
X11047869Y3322515D02*
G01*
X11047869Y3227006D01*
X11047869Y3322515D02*
G01*
X11079619Y3322515D01*
X11093340Y3317948D01*
X11102230Y3308797D01*
X11106797Y3299663D01*
X11111369Y3286198D01*
X11111369Y3263341D01*
X11106797Y3249622D01*
X11102230Y3240730D01*
X11093340Y3231591D01*
X11079619Y3227006D01*
X11047869Y3227006D01*
X11205100Y3308797D02*
G01*
X11195956Y3317948D01*
X11182240Y3322515D01*
X11164206Y3322515D01*
X11150490Y3317948D01*
X11141341Y3308797D01*
X11141341Y3299663D01*
X11145916Y3290506D01*
X11150490Y3286198D01*
X11159632Y3281613D01*
X11186810Y3272480D01*
X11195956Y3267913D01*
X11200523Y3263341D01*
X11205100Y3254189D01*
X11205100Y3240730D01*
X11195956Y3231591D01*
X11182240Y3227006D01*
X11164206Y3227006D01*
X11150490Y3231591D01*
X11141341Y3240730D01*
X11086477Y3058751D02*
G01*
X11077333Y3067903D01*
X11063615Y3072470D01*
X11045583Y3072470D01*
X11031865Y3067903D01*
X11022723Y3058751D01*
X11022723Y3049612D01*
X11027298Y3040720D01*
X11031865Y3036153D01*
X11041009Y3031568D01*
X11068187Y3022434D01*
X11077333Y3017862D01*
X11081908Y3013278D01*
X11086477Y3004144D01*
X11086477Y2990684D01*
X11077333Y2981528D01*
X11063615Y2976961D01*
X11045583Y2976961D01*
X11031865Y2981528D01*
X11022723Y2990684D01*
X11184524Y3049612D02*
G01*
X11179949Y3058751D01*
X11171057Y3067903D01*
X11161918Y3072470D01*
X11143627Y3072470D01*
X11134483Y3067903D01*
X11125591Y3058751D01*
X11121024Y3049612D01*
X11116449Y3036153D01*
X11116449Y3013278D01*
X11121024Y2999818D01*
X11125591Y2990684D01*
X11134483Y2981528D01*
X11143627Y2976961D01*
X11161918Y2976961D01*
X11171057Y2981528D01*
X11179949Y2990684D01*
X11184524Y2999818D01*
X11214491Y3072470D02*
G01*
X11214491Y2976961D01*
X11214491Y2976961D02*
G01*
X11269103Y2976961D01*
X11086332Y2808930D02*
G01*
X11077450Y2817822D01*
X11063729Y2822389D01*
X11045443Y2822389D01*
X11031979Y2817822D01*
X11022832Y2808930D01*
X11022832Y2799773D01*
X11027407Y2790639D01*
X11031979Y2786072D01*
X11040866Y2781500D01*
X11068301Y2772349D01*
X11077450Y2767782D01*
X11081760Y2763456D01*
X11086332Y2754322D01*
X11086332Y2740599D01*
X11077450Y2731447D01*
X11063729Y2726880D01*
X11045443Y2726880D01*
X11031979Y2731447D01*
X11022832Y2740599D01*
X11116307Y2822389D02*
G01*
X11116307Y2726880D01*
X11116307Y2822389D02*
G01*
X11148308Y2822389D01*
X11161775Y2817822D01*
X11170917Y2808930D01*
X11175486Y2799773D01*
X11180058Y2786072D01*
X11180058Y2763456D01*
X11175486Y2749750D01*
X11170917Y2740599D01*
X11161775Y2731447D01*
X11148308Y2726880D01*
X11116307Y2726880D01*
X11246360Y2822389D02*
G01*
X11210033Y2726880D01*
X11246360Y2822389D02*
G01*
X11282677Y2726880D01*
X11223749Y2758889D02*
G01*
X11269212Y2758889D01*
X10972845Y2547447D02*
G01*
X11009167Y2451938D01*
X11045489Y2547447D02*
G01*
X11009167Y2451938D01*
X11143790Y2524589D02*
G01*
X11139215Y2533728D01*
X11130071Y2542862D01*
X11121179Y2547447D01*
X11102898Y2547447D01*
X11093747Y2542862D01*
X11084605Y2533728D01*
X11080038Y2524589D01*
X11075715Y2511112D01*
X11075715Y2488255D01*
X11080038Y2474795D01*
X11084605Y2465661D01*
X11093747Y2456505D01*
X11102898Y2451938D01*
X11121179Y2451938D01*
X11130071Y2456505D01*
X11139215Y2465661D01*
X11143790Y2474795D01*
X11242088Y2524589D02*
G01*
X11237513Y2533728D01*
X11228372Y2542862D01*
X11219223Y2547447D01*
X11200940Y2547447D01*
X11192047Y2542862D01*
X11182901Y2533728D01*
X11178329Y2524589D01*
X11173762Y2511112D01*
X11173762Y2488255D01*
X11178329Y2474795D01*
X11182901Y2465661D01*
X11192047Y2456505D01*
X11200940Y2451938D01*
X11219223Y2451938D01*
X11228372Y2456505D01*
X11237513Y2465661D01*
X11242088Y2474795D01*
X11066051Y2274661D02*
G01*
X11061479Y2283813D01*
X11052335Y2292951D01*
X11043188Y2297518D01*
X11025159Y2297518D01*
X11016010Y2292951D01*
X11006866Y2283813D01*
X11002299Y2274661D01*
X10997725Y2260942D01*
X10997725Y2238344D01*
X11002299Y2224625D01*
X11006866Y2215728D01*
X11016010Y2206594D01*
X11025159Y2202009D01*
X11043188Y2202009D01*
X11052335Y2206594D01*
X11061479Y2215728D01*
X11066051Y2224625D01*
X11066051Y2238344D01*
X11043188Y2238344D02*
G01*
X11066051Y2238344D01*
X11096025Y2297518D02*
G01*
X11096025Y2202009D01*
X11096025Y2297518D02*
G01*
X11159525Y2202009D01*
X11159525Y2297518D02*
G01*
X11159525Y2202009D01*
X11189492Y2297518D02*
G01*
X11189492Y2202009D01*
X11189492Y2297518D02*
G01*
X11221501Y2297518D01*
X11234958Y2292951D01*
X11244105Y2283813D01*
X11248677Y2274661D01*
X11253251Y2260942D01*
X11253251Y2238344D01*
X11248677Y2224625D01*
X11244105Y2215728D01*
X11234958Y2206594D01*
X11221501Y2202009D01*
X11189492Y2202009D01*
X11111473Y3558755D02*
G01*
X11102329Y3567899D01*
X11088613Y3572471D01*
X11070579Y3572471D01*
X11056863Y3567899D01*
X11047719Y3558755D01*
X11047719Y3549611D01*
X11052291Y3540721D01*
X11056863Y3536149D01*
X11066007Y3531577D01*
X11093185Y3522433D01*
X11102329Y3517861D01*
X11106901Y3513289D01*
X11111473Y3504145D01*
X11111473Y3490683D01*
X11102329Y3481539D01*
X11088613Y3476967D01*
X11070579Y3476967D01*
X11056863Y3481539D01*
X11047719Y3490683D01*
X11168623Y3572471D02*
G01*
X11159479Y3567899D01*
X11150589Y3558755D01*
X11146017Y3549611D01*
X11141445Y3536149D01*
X11141445Y3513289D01*
X11146017Y3499827D01*
X11150589Y3490683D01*
X11159479Y3481539D01*
X11168623Y3476967D01*
X11186911Y3476967D01*
X11196055Y3481539D01*
X11204945Y3490683D01*
X11209517Y3499827D01*
X11214089Y3513289D01*
X11214089Y3536149D01*
X11209517Y3549611D01*
X11204945Y3558755D01*
X11196055Y3567899D01*
X11186911Y3572471D01*
X11168623Y3572471D01*
X11182339Y3495255D02*
G01*
X11209517Y3467823D01*
X11022840Y2047318D02*
G01*
X11022840Y1952068D01*
X11022840Y2047318D02*
G01*
X11063734Y2047318D01*
X11077450Y2043000D01*
X11081768Y2038428D01*
X11086340Y2029284D01*
X11086340Y2020140D01*
X11081768Y2010996D01*
X11077450Y2006424D01*
X11063734Y2002106D01*
X11022840Y2002106D02*
G01*
X11063734Y2002106D01*
X11077450Y1997534D01*
X11081768Y1992962D01*
X11086340Y1983818D01*
X11086340Y1970102D01*
X11081768Y1960958D01*
X11077450Y1956640D01*
X11063734Y1952068D01*
X11022840Y1952068D01*
X11152888Y2047318D02*
G01*
X11116312Y1952068D01*
X11152888Y2047318D02*
G01*
X11189210Y1952068D01*
X11130028Y1983818D02*
G01*
X11175494Y1983818D01*
X11250932Y2047318D02*
G01*
X11250932Y1952068D01*
X11219182Y2047318D02*
G01*
X11282682Y2047318D01*
D33*
X9772898Y3098248D02*
G01*
X9772898Y2907494D01*
X9772898Y3098248D02*
G01*
X9836398Y3098248D01*
X9863576Y3089358D01*
X9881864Y3071070D01*
X9891008Y3052782D01*
X9900152Y3025604D01*
X9900152Y2980138D01*
X9891008Y2952960D01*
X9881864Y2934672D01*
X9863576Y2916638D01*
X9836398Y2907494D01*
X9772898Y2907494D01*
X10087350Y3071070D02*
G01*
X10069062Y3089358D01*
X10041884Y3098248D01*
X10005562Y3098248D01*
X9978130Y3089358D01*
X9960096Y3071070D01*
X9960096Y3052782D01*
X9969240Y3034748D01*
X9978130Y3025604D01*
X9996418Y3016460D01*
X10051028Y2998426D01*
X10069062Y2989282D01*
X10078206Y2980138D01*
X10087350Y2962104D01*
X10087350Y2934672D01*
X10069062Y2916638D01*
X10041884Y2907494D01*
X10005562Y2907494D01*
X9978130Y2916638D01*
X9960096Y2934672D01*
X10147294Y3061926D02*
G01*
X10165582Y3071070D01*
X10192760Y3098248D01*
X10192760Y2907494D01*
X10270992Y3098248D02*
G01*
X10371068Y3098248D01*
X10316458Y3025604D01*
X10343636Y3025604D01*
X10361924Y3016460D01*
X10371068Y3007316D01*
X10379958Y2980138D01*
X10379958Y2962104D01*
X10371068Y2934672D01*
X10352780Y2916638D01*
X10325602Y2907494D01*
X10298170Y2907494D01*
X10270992Y2916638D01*
X10261848Y2925528D01*
X10252704Y2943816D01*
X10494512Y3098248D02*
G01*
X10467334Y3089358D01*
X10449046Y3061926D01*
X10440156Y3016460D01*
X10440156Y2989282D01*
X10449046Y2943816D01*
X10467334Y2916638D01*
X10494512Y2907494D01*
X10512800Y2907494D01*
X10539978Y2916638D01*
X10558266Y2943816D01*
X10567410Y2989282D01*
X10567410Y3016460D01*
X10558266Y3061926D01*
X10539978Y3089358D01*
X10512800Y3098248D01*
X10494512Y3098248D01*
X10754608Y3098248D02*
G01*
X10663676Y2907494D01*
X10627354Y3098248D02*
G01*
X10754608Y3098248D01*
X9972761Y2748399D02*
G01*
X9972761Y2557391D01*
X9972761Y2748399D02*
G01*
X10054549Y2748399D01*
X10081981Y2739255D01*
X10090871Y2730111D01*
X10100015Y2712077D01*
X10100015Y2693789D01*
X10090871Y2675501D01*
X10081981Y2666611D01*
X10054549Y2657467D01*
X9972761Y2657467D01*
X10036515Y2657467D02*
G01*
X10100015Y2557391D01*
X10223713Y2748399D02*
G01*
X10223713Y2557391D01*
X10159959Y2748399D02*
G01*
X10287213Y2748399D01*
X10483809Y2702933D02*
G01*
X10474665Y2720967D01*
X10456377Y2739255D01*
X10438343Y2748399D01*
X10401767Y2748399D01*
X10383733Y2739255D01*
X10365445Y2720967D01*
X10356301Y2702933D01*
X10347411Y2675501D01*
X10347411Y2630289D01*
X10356301Y2602857D01*
X10365445Y2584823D01*
X10383733Y2566535D01*
X10401767Y2557391D01*
X10438343Y2557391D01*
X10456377Y2566535D01*
X10474665Y2584823D01*
X10483809Y2602857D01*
X9822670Y2423424D02*
G01*
X9822670Y2232416D01*
X9822670Y2423424D02*
G01*
X9895568Y2232416D01*
X9968212Y2423424D02*
G01*
X9895568Y2232416D01*
X9968212Y2423424D02*
G01*
X9968212Y2232416D01*
X10073622Y2359670D02*
G01*
X10055588Y2350526D01*
X10037300Y2332492D01*
X10028156Y2305060D01*
X10028156Y2287026D01*
X10037300Y2259594D01*
X10055588Y2241560D01*
X10073622Y2232416D01*
X10101054Y2232416D01*
X10119088Y2241560D01*
X10137376Y2259594D01*
X10146520Y2287026D01*
X10146520Y2305060D01*
X10137376Y2332492D01*
X10119088Y2350526D01*
X10101054Y2359670D01*
X10073622Y2359670D01*
X10315430Y2423424D02*
G01*
X10315430Y2232416D01*
X10315430Y2332492D02*
G01*
X10297396Y2350526D01*
X10279108Y2359670D01*
X10251930Y2359670D01*
X10233642Y2350526D01*
X10215608Y2332492D01*
X10206464Y2305060D01*
X10206464Y2287026D01*
X10215608Y2259594D01*
X10233642Y2241560D01*
X10251930Y2232416D01*
X10279108Y2232416D01*
X10297396Y2241560D01*
X10315430Y2259594D01*
X10375628Y2359670D02*
G01*
X10375628Y2268738D01*
X10384518Y2241560D01*
X10402806Y2232416D01*
X10429984Y2232416D01*
X10448272Y2241560D01*
X10475450Y2268738D01*
X10475450Y2359670D02*
G01*
X10475450Y2232416D01*
X10535394Y2423424D02*
G01*
X10535394Y2232416D01*
X10595592Y2305060D02*
G01*
X10704558Y2305060D01*
X10704558Y2323348D01*
X10695414Y2341636D01*
X10686524Y2350526D01*
X10668236Y2359670D01*
X10641058Y2359670D01*
X10622770Y2350526D01*
X10604482Y2332492D01*
X10595592Y2305060D01*
X10595592Y2287026D01*
X10604482Y2259594D01*
X10622770Y2241560D01*
X10641058Y2232416D01*
X10668236Y2232416D01*
X10686524Y2241560D01*
X10704558Y2259594D01*
D28*
X10793984Y7097521D02*
G01*
X10902950Y7097521D01*
X10793984Y7061200D02*
G01*
X10793984Y7133844D01*
X10793984Y7168134D02*
G01*
X10902950Y7168134D01*
X10793984Y7168134D02*
G01*
X10793984Y7235697D01*
X10845800Y7168134D02*
G01*
X10845800Y7209789D01*
X10902950Y7168134D02*
G01*
X10902950Y7235697D01*
X10793984Y7269987D02*
G01*
X10902950Y7269987D01*
X10793984Y7269987D02*
G01*
X10793984Y7316723D01*
X10799063Y7332471D01*
X10804397Y7337552D01*
X10814811Y7342886D01*
X10825225Y7342886D01*
X10835640Y7337552D01*
X10840720Y7332471D01*
X10845800Y7316723D01*
X10845800Y7269987D01*
X10845800Y7306310D02*
G01*
X10902950Y7342886D01*
X10819891Y7382255D02*
G01*
X10814811Y7382255D01*
X10804397Y7387589D01*
X10799063Y7392670D01*
X10793984Y7403084D01*
X10793984Y7423912D01*
X10799063Y7434326D01*
X10804397Y7439405D01*
X10814811Y7444739D01*
X10825225Y7444739D01*
X10835640Y7439405D01*
X10851134Y7428992D01*
X10902950Y7377176D01*
X10902950Y7449820D01*
D34*
X10955527Y6642100D02*
G01*
X10951209Y6650989D01*
X10937493Y6664705D01*
X11032236Y6664705D01*
X10960100Y7154671D02*
G01*
X10955527Y7154671D01*
X10946638Y7158989D01*
X10942065Y7163562D01*
X10937493Y7172705D01*
X10937493Y7190739D01*
X10942065Y7199629D01*
X10946638Y7204202D01*
X10955527Y7208520D01*
X10964672Y7208520D01*
X10973561Y7204202D01*
X10987024Y7195058D01*
X11032236Y7150100D01*
X11032236Y7213092D01*
D28*
X2146300Y2020315D02*
G01*
X2218943Y1911350D01*
X2218943Y2020315D02*
G01*
X2146300Y1911350D01*
X2253234Y1999487D02*
G01*
X2263647Y2004821D01*
X2279395Y2020315D01*
X2279395Y1911350D01*
X1130300Y2020315D02*
G01*
X1202944Y1911350D01*
X1202944Y2020315D02*
G01*
X1130300Y1911350D01*
X1242568Y1994407D02*
G01*
X1242568Y1999487D01*
X1247647Y2009902D01*
X1252981Y2015236D01*
X1263395Y2020315D01*
X1283970Y2020315D01*
X1294384Y2015236D01*
X1299718Y2009902D01*
X1304797Y1999487D01*
X1304797Y1989073D01*
X1299718Y1978660D01*
X1289304Y1963165D01*
X1237234Y1911350D01*
X1310131Y1911350D01*
X8596884Y5245100D02*
G01*
X8674861Y5245100D01*
X8690356Y5250179D01*
X8700770Y5260594D01*
X8705850Y5276342D01*
X8705850Y5286755D01*
X8700770Y5302250D01*
X8690356Y5312663D01*
X8674861Y5317744D01*
X8596884Y5317744D01*
X8596884Y5362447D02*
G01*
X8596884Y5419597D01*
X8638540Y5388610D01*
X8638540Y5404104D01*
X8643620Y5414518D01*
X8648700Y5419597D01*
X8664447Y5424931D01*
X8674861Y5424931D01*
X8690356Y5419597D01*
X8700770Y5409184D01*
X8705850Y5393689D01*
X8705850Y5378195D01*
X8700770Y5362447D01*
X8695690Y5357368D01*
X8685275Y5352034D01*
X3522472Y519937D02*
G01*
X3532886Y509523D01*
X3548379Y504444D01*
X3569208Y504444D01*
X3584702Y509523D01*
X3595115Y519937D01*
X3595115Y530352D01*
X3590036Y540765D01*
X3584702Y546100D01*
X3574288Y551179D01*
X3543045Y561594D01*
X3532886Y566673D01*
X3527552Y572007D01*
X3522472Y582421D01*
X3522472Y597915D01*
X3532886Y608329D01*
X3548379Y613410D01*
X3569208Y613410D01*
X3584702Y608329D01*
X3595115Y597915D01*
X3488181Y504444D02*
G01*
X3462020Y613410D01*
X3436111Y504444D02*
G01*
X3462020Y613410D01*
X3436111Y504444D02*
G01*
X3410204Y613410D01*
X3384295Y504444D02*
G01*
X3410204Y613410D01*
X3350006Y525271D02*
G01*
X3339591Y519937D01*
X3323843Y504444D01*
X3323843Y613410D01*
X1664970Y6490715D02*
G01*
X1664970Y6407657D01*
X1659636Y6391910D01*
X1654555Y6386829D01*
X1644142Y6381750D01*
X1633728Y6381750D01*
X1623313Y6386829D01*
X1617979Y6391910D01*
X1612900Y6407657D01*
X1612900Y6418071D01*
X1709420Y6490715D02*
G01*
X1766570Y6490715D01*
X1735581Y6449060D01*
X1751076Y6449060D01*
X1761489Y6443979D01*
X1766570Y6438900D01*
X1771904Y6423152D01*
X1771904Y6412737D01*
X1766570Y6397244D01*
X1756410Y6386829D01*
X1740662Y6381750D01*
X1725168Y6381750D01*
X1709420Y6386829D01*
X1704339Y6391910D01*
X1699260Y6402323D01*
X1436115Y4610100D02*
G01*
X1327150Y4610100D01*
X1436115Y4537455D02*
G01*
X1327150Y4537455D01*
X1384300Y4610100D02*
G01*
X1384300Y4537455D01*
X1415287Y4503165D02*
G01*
X1420621Y4492752D01*
X1436115Y4477004D01*
X1327150Y4477004D01*
X2452115Y4610100D02*
G01*
X2343150Y4610100D01*
X2452115Y4537455D02*
G01*
X2343150Y4537455D01*
X2400300Y4610100D02*
G01*
X2400300Y4537455D01*
X2426208Y4497831D02*
G01*
X2431288Y4497831D01*
X2441702Y4492752D01*
X2447036Y4487418D01*
X2452115Y4477004D01*
X2452115Y4456429D01*
X2447036Y4446015D01*
X2441702Y4440681D01*
X2431288Y4435602D01*
X2420874Y4435602D01*
X2410459Y4440681D01*
X2394965Y4451095D01*
X2343150Y4503165D01*
X2343150Y4430268D01*
X7240015Y2933700D02*
G01*
X7162038Y2933700D01*
X7146543Y2928620D01*
X7136129Y2918205D01*
X7131050Y2902457D01*
X7131050Y2892044D01*
X7136129Y2876550D01*
X7146543Y2866136D01*
X7162038Y2861055D01*
X7240015Y2861055D01*
X7219188Y2826765D02*
G01*
X7224522Y2816352D01*
X7240015Y2800604D01*
X7131050Y2800604D01*
D27*
X6007100Y2836671D02*
G01*
X5966713Y3006344D01*
X5926327Y2836671D02*
G01*
X5966713Y3006344D01*
X5926327Y2836671D02*
G01*
X5885941Y3006344D01*
X5845556Y2836671D02*
G01*
X5885941Y3006344D01*
X5792215Y2836671D02*
G01*
X5792215Y3006344D01*
X5792215Y2836671D02*
G01*
X5687059Y2836671D01*
X5792215Y2917444D02*
G01*
X5727445Y2917444D01*
X5792215Y3006344D02*
G01*
X5687059Y3006344D01*
X5633720Y2836671D02*
G01*
X5633720Y3006344D01*
X5633720Y2836671D02*
G01*
X5568950Y3006344D01*
X5504434Y2836671D02*
G01*
X5568950Y3006344D01*
X5504434Y2836671D02*
G01*
X5504434Y3006344D01*
X5402579Y2836671D02*
G01*
X5418836Y2844800D01*
X5434838Y2861055D01*
X5442965Y2877057D01*
X5451093Y2901442D01*
X5451093Y2941828D01*
X5442965Y2965957D01*
X5434838Y2982213D01*
X5418836Y2998470D01*
X5402579Y3006344D01*
X5370322Y3006344D01*
X5354065Y2998470D01*
X5337809Y2982213D01*
X5329936Y2965957D01*
X5321808Y2941828D01*
X5321808Y2901442D01*
X5329936Y2877057D01*
X5337809Y2861055D01*
X5354065Y2844800D01*
X5370322Y2836671D01*
X5402579Y2836671D01*
X5155184Y2861055D02*
G01*
X5171440Y2844800D01*
X5195570Y2836671D01*
X5228081Y2836671D01*
X5252211Y2844800D01*
X5268468Y2861055D01*
X5268468Y2877057D01*
X5260340Y2893313D01*
X5252211Y2901442D01*
X5236209Y2909570D01*
X5187695Y2925571D01*
X5171440Y2933700D01*
X5163311Y2941828D01*
X5155184Y2957829D01*
X5155184Y2982213D01*
X5171440Y2998470D01*
X5195570Y3006344D01*
X5228081Y3006344D01*
X5252211Y2998470D01*
X5268468Y2982213D01*
X4977384Y2836671D02*
G01*
X4977384Y3006344D01*
X4977384Y2836671D02*
G01*
X4920995Y2836671D01*
X4896611Y2844800D01*
X4880609Y2861055D01*
X4872481Y2877057D01*
X4864354Y2901442D01*
X4864354Y2941828D01*
X4872481Y2965957D01*
X4880609Y2982213D01*
X4896611Y2998470D01*
X4920995Y3006344D01*
X4977384Y3006344D01*
X4811013Y2868929D02*
G01*
X4794758Y2861055D01*
X4770627Y2836671D01*
X4770627Y3006344D01*
X4592827Y2836671D02*
G01*
X4592827Y3006344D01*
X4592827Y2836671D02*
G01*
X4487672Y2836671D01*
X4592827Y2917444D02*
G01*
X4528058Y2917444D01*
X4592827Y3006344D02*
G01*
X4487672Y3006344D01*
X4321302Y2861055D02*
G01*
X4337304Y2844800D01*
X4361688Y2836671D01*
X4393945Y2836671D01*
X4418329Y2844800D01*
X4434331Y2861055D01*
X4434331Y2877057D01*
X4426204Y2893313D01*
X4418329Y2901442D01*
X4402074Y2909570D01*
X4353559Y2925571D01*
X4337304Y2933700D01*
X4329429Y2941828D01*
X4321302Y2957829D01*
X4321302Y2982213D01*
X4337304Y2998470D01*
X4361688Y3006344D01*
X4393945Y3006344D01*
X4418329Y2998470D01*
X4434331Y2982213D01*
X4267961Y2836671D02*
G01*
X4267961Y3006344D01*
X4267961Y2836671D02*
G01*
X4195063Y2836671D01*
X4170934Y2844800D01*
X4162806Y2852928D01*
X4154677Y2868929D01*
X4154677Y2893313D01*
X4162806Y2909570D01*
X4170934Y2917444D01*
X4195063Y2925571D01*
X4267961Y2925571D01*
X4085336Y2836671D02*
G01*
X3996436Y2836671D01*
X4044950Y2901442D01*
X4020565Y2901442D01*
X4004309Y2909570D01*
X3996436Y2917444D01*
X3988308Y2941828D01*
X3988308Y2957829D01*
X3996436Y2982213D01*
X4012438Y2998470D01*
X4036822Y3006344D01*
X4060952Y3006344D01*
X4085336Y2998470D01*
X4093209Y2990342D01*
X4101338Y2974086D01*
X3926840Y2877057D02*
G01*
X3926840Y2868929D01*
X3918711Y2852928D01*
X3910584Y2844800D01*
X3894581Y2836671D01*
X3862070Y2836671D01*
X3846068Y2844800D01*
X3837940Y2852928D01*
X3829811Y2868929D01*
X3829811Y2885186D01*
X3837940Y2901442D01*
X3854195Y2925571D01*
X3934968Y3006344D01*
X3821684Y3006344D01*
G36*
X11150600Y7124700D02*
G01*
X11150600Y7048500D01*
X11531600Y7048500D01*
X11531600Y7124700D01*
G37*
G36*
X3652570Y918057D02*
G01*
X3652570Y792073D01*
X3768547Y788060D01*
X3769563Y915060D01*
G37*
D22*
X1206500Y7023100D02*
G01*
X1206500Y7861300D01*
X2413000Y7861300D02*
G01*
X1028700Y7861300D01*
X1028700Y7023100D01*
X2413000Y7023100D01*
X2413000Y7861300D01*
D23*
X10088879Y4711700D02*
G01*
X10088879Y4512182D01*
X10139679Y4706620D02*
G01*
X10139679Y4508500D01*
X10190479Y4709160D02*
G01*
X10190479Y4511039D01*
X10462259Y4711700D02*
G01*
X10462259Y4516120D01*
X9809683Y4597323D02*
G01*
X9962083Y4597323D01*
X9962083Y4724323D01*
X9979939Y4742179D01*
X10038130Y4742179D01*
X10068483Y4711700D01*
X10482376Y4711700D01*
X10513136Y4742179D01*
X10579227Y4742179D01*
X10597083Y4724323D01*
X10597083Y4495723D01*
X10581919Y4480560D01*
X10520781Y4480560D01*
X10492714Y4508500D01*
X10065893Y4508500D01*
X10038232Y4480560D01*
X9977247Y4480560D01*
X9962083Y4495723D01*
X9962083Y4597323D01*
X10597083Y4597323D02*
G01*
X10749483Y4597323D01*
X9481820Y5689600D02*
G01*
X9481820Y5889117D01*
X9431020Y5694679D02*
G01*
X9431020Y5892800D01*
X9380220Y5692139D02*
G01*
X9380220Y5890260D01*
X9108440Y5689600D02*
G01*
X9108440Y5885179D01*
X9761016Y5803976D02*
G01*
X9608616Y5803976D01*
X9608616Y5676976D01*
X9590760Y5659120D01*
X9532569Y5659120D01*
X9502216Y5689600D01*
X9088323Y5689600D01*
X9057563Y5659120D01*
X8991472Y5659120D01*
X8973616Y5676976D01*
X8973616Y5905576D01*
X8988780Y5920739D01*
X9049918Y5920739D01*
X9077985Y5892800D01*
X9504806Y5892800D01*
X9532467Y5920739D01*
X9593452Y5920739D01*
X9608616Y5905576D01*
X9608616Y5803976D01*
X8973616Y5803976D02*
G01*
X8821216Y5803976D01*
X6062979Y5118100D02*
G01*
X6062979Y4918582D01*
X6113779Y5113020D02*
G01*
X6113779Y4914900D01*
X6164579Y5115560D02*
G01*
X6164579Y4917439D01*
X6436359Y5118100D02*
G01*
X6436359Y4922520D01*
X5783783Y5003723D02*
G01*
X5936183Y5003723D01*
X5936183Y5130723D01*
X5954039Y5148579D01*
X6012230Y5148579D01*
X6042583Y5118100D01*
X6456476Y5118100D01*
X6487236Y5148579D01*
X6553327Y5148579D01*
X6571183Y5130723D01*
X6571183Y4902123D01*
X6556019Y4886960D01*
X6494881Y4886960D01*
X6466814Y4914900D01*
X6039993Y4914900D01*
X6012332Y4886960D01*
X5951347Y4886960D01*
X5936183Y4902123D01*
X5936183Y5003723D01*
X6571183Y5003723D02*
G01*
X6723583Y5003723D01*
D24*
X7889240Y6769100D02*
G01*
X7889240Y7289800D01*
X8163559Y7289800D01*
X8163559Y6769100D01*
X7889240Y6769100D01*
X7889240Y7226300D02*
G01*
X8163559Y7226300D01*
D23*
X10289413Y5580506D02*
G01*
X10289413Y5976493D01*
D25*
X3073400Y5715000D02*
G01*
X3073400Y7844993D01*
X7423404Y7844993D01*
X7423404Y5715000D01*
X3073400Y5715000D01*
D23*
X7061200Y5224779D02*
G01*
X7061200Y4808220D01*
X8549213Y6324302D02*
G01*
X10449387Y6324302D01*
X8549259Y7874297D02*
G01*
X10449433Y7874297D01*
X8549261Y7874297D02*
G01*
X8549261Y6324300D01*
X10449384Y7874297D02*
G01*
X10449384Y6324300D01*
D26*
X11593220Y1682140D02*
G01*
X11593220Y4095140D01*
X8926220Y4095140D01*
X8926118Y3406749D01*
X8926220Y1301140D01*
X11593220Y1301140D01*
X11593220Y1682140D01*
D25*
X11696700Y7594600D02*
G01*
X11696700Y6578600D01*
X11557000Y6578600D01*
X11557000Y7594600D01*
X11696700Y7594600D01*
X11557000Y7594600D02*
G01*
X11125200Y7594600D01*
X10947400Y7594600D01*
X10947400Y6578600D01*
X11036300Y6578600D01*
X11125200Y6578600D01*
X11125200Y7594600D01*
X11036300Y6578600D02*
G01*
X11023600Y6527800D01*
X11137900Y6527800D01*
X11125200Y6578600D01*
X11557000Y6578600D01*
D23*
X1968500Y1879600D02*
G01*
X2355062Y1879600D01*
X2355062Y635000D01*
X1968500Y635000D01*
X1968500Y1879600D01*
X952500Y1879600D02*
G01*
X1339062Y1879600D01*
X1339062Y635000D01*
X952500Y635000D01*
X952500Y1879600D01*
X8962897Y5018023D02*
G01*
X8962897Y5475223D01*
X9587991Y5475223D01*
X9587991Y5018023D01*
X8962897Y5018023D01*
X3078556Y1049070D02*
G01*
X3078556Y647700D01*
X4078554Y647700D01*
X4078554Y1049070D01*
X3078556Y1049070D01*
X3771986Y917986D02*
G01*
X3371987Y917986D01*
X3371987Y787986D01*
X3771986Y787986D01*
X3771986Y917986D01*
D27*
X1295400Y6057900D02*
G01*
X2044700Y6057900D01*
X2044700Y6337300D01*
X1282700Y6337300D01*
X1282700Y6062218D01*
D23*
X1016000Y5621700D02*
G01*
X1016000Y3547699D01*
X1270000Y3547699D02*
G01*
X1016000Y3547699D01*
X1270000Y5621700D02*
G01*
X1270000Y3547699D01*
X1270000Y5344347D02*
G01*
X1016000Y5344347D01*
X1270000Y5621700D02*
G01*
X1016000Y5621700D01*
X2032000Y5621700D02*
G01*
X2032000Y3547699D01*
X2286000Y3547699D02*
G01*
X2032000Y3547699D01*
X2286000Y5621700D02*
G01*
X2286000Y3547699D01*
X2286000Y5344347D02*
G01*
X2032000Y5344347D01*
X2286000Y5621700D02*
G01*
X2032000Y5621700D01*
X6591300Y4584700D02*
G01*
X3775303Y4584700D01*
X3775303Y4076700D01*
X3075304Y4076700D01*
X3075304Y1282700D01*
X6591300Y1282700D01*
X7099300Y1536700D02*
G01*
X7099300Y4330700D01*
D25*
G75*
G01*
X8128000Y4809998D02*
G03*
X8141183Y4809846I-344J-599999D01*
D23*
G75*
G01*
X10289286Y5580380D02*
G03*
X10289286Y5976620I149840J198120D01*
G75*
G01*
X7061200Y5225959D02*
G02*
X7481148Y5095131I165101J-209453D01*
G75*
G01*
X7481141Y4937869D02*
G02*
X7061200Y4807052I-254841J78630D01*
G75*
G01*
X7480300Y5080000D02*
G02*
X7480300Y4953000I-285739J-63500D01*
G75*
G01*
X7480300Y4953000D02*
G02*
X7416800Y4826000I-285749J63500D01*
G75*
G01*
X7416800Y5207000D02*
G02*
X7480300Y4953000I-222238J-190497D01*
D25*
G75*
G01*
X11036300Y7388860D02*
G03*
X11036859Y7388860I279J-50799D01*
G75*
G01*
X11036300Y6885940D02*
G03*
X11036859Y6885940I279J-50799D01*
D23*
G75*
G01*
X9017000Y5372100D02*
G02*
X9042400Y5372100I12700J0D01*
G75*
G01*
X9042400Y5372100D02*
G02*
X9017000Y5372100I-12700J0D01*
G75*
G01*
X6591300Y4584700D02*
G02*
X7099300Y4330700I68375J-498250D01*
G75*
G01*
X6591300Y1282700D02*
G03*
X7099300Y1536700I68375J498250D01*
G75*
G01
X1231900Y6210300D02*
G03X1231900Y6210300I-12700J0D01*
M02*
