G04 Layer: TopLayer*
G04 EasyEDA v6.4.19.5, 2021-05-28T19:21:40+07:00*
G04 6e6706e82e5b4a748e8d5c8c40211ff5,daa0c75fb02d462d8576232f80c62aaa,10*
G04 Gerber Generator version 0.2*
G04 Scale: 100 percent, Rotated: No, Reflected: No *
G04 Dimensions in millimeters *
G04 leading zeros omitted , absolute positions ,4 integer and 5 decimal *
%FSLAX45Y45*%
%MOMM*%

%ADD10C,1.0000*%
%ADD11C,2.0000*%
%ADD12C,1.5240*%
%ADD15C,2.5400*%
%ADD16C,2.1590*%
%ADD18C,2.5000*%
%ADD19R,2.0000X2.0000*%
%ADD20C,2.2000*%
%ADD21C,1.2000*%

%LPD*%
D10*
X2781300Y4457700D02*
G01*
X2781300Y3810000D01*
X4305300Y2730500D02*
G01*
X4305300Y1790700D01*
X1143000Y900988D02*
G01*
X2159000Y900988D01*
D11*
G01*
X2781300Y4457700D03*
G01*
X2781300Y3810000D03*
D12*
G01*
X4305300Y2730500D03*
G36*
X1946699Y7099300D02*
G01*
X2396700Y7099300D01*
X2396700Y6845300D01*
X1946699Y6845300D01*
G37*
G36*
X1663700Y7705300D02*
G01*
X1917700Y7705300D01*
X1917700Y7255299D01*
X1663700Y7255299D01*
G37*
G36*
X2298700Y7705300D02*
G01*
X2552700Y7705300D01*
X2552700Y7255299D01*
X2298700Y7255299D01*
G37*
D15*
G01*
X8128000Y3828999D03*
G01*
X8128000Y4590999D03*
D11*
G01*
X9766300Y4597400D03*
G01*
X10782300Y4597400D03*
G01*
X9804400Y5803900D03*
G01*
X8788400Y5803900D03*
G01*
X5740400Y5003800D03*
G01*
X6756400Y5003800D03*
D16*
G01*
X8026400Y6642100D03*
G01*
X8026400Y7416800D03*
G36*
X3098406Y7789989D02*
G01*
X3398405Y7789989D01*
X3398405Y7489990D01*
X3098406Y7489990D01*
G37*
G36*
X3098406Y6040005D02*
G01*
X3398405Y6040005D01*
X3398405Y5740006D01*
X3098406Y5740006D01*
G37*
G36*
X7098398Y7789989D02*
G01*
X7398397Y7789989D01*
X7398397Y7489990D01*
X7098398Y7489990D01*
G37*
G36*
X7098398Y6040005D02*
G01*
X7398397Y6040005D01*
X7398397Y5740006D01*
X7098398Y5740006D01*
G37*
D18*
G01*
X8699500Y7099300D03*
G01*
X8899397Y6499301D03*
G01*
X8899397Y7699298D03*
G01*
X10119385Y7699298D03*
G01*
X10119385Y6499301D03*
D11*
G01*
X11457940Y3530600D03*
G01*
X9065259Y2127757D03*
G01*
X9065259Y3143757D03*
G01*
X9065259Y2889757D03*
G01*
X9065259Y2635757D03*
G01*
X9065259Y2381757D03*
G01*
X11457940Y3276600D03*
G01*
X11457940Y3022600D03*
G01*
X11457940Y2768600D03*
G01*
X11457940Y2514600D03*
G01*
X11457940Y2260600D03*
G01*
X11457940Y2006600D03*
G36*
X11280825Y6980631D02*
G01*
X11195608Y6895414D01*
X11195608Y6774865D01*
X11280825Y6689648D01*
X11401374Y6689648D01*
X11486591Y6774865D01*
X11486591Y6895414D01*
X11401374Y6980631D01*
G37*
G36*
X11280825Y7483551D02*
G01*
X11195608Y7398334D01*
X11195608Y7277785D01*
X11280825Y7192568D01*
X11401374Y7192568D01*
X11486591Y7277785D01*
X11486591Y7398334D01*
X11401374Y7483551D01*
G37*
G36*
X2058997Y1750999D02*
G01*
X2258997Y1750999D01*
X2258997Y1551000D01*
X2058997Y1551000D01*
G37*
G01*
X2159000Y1400987D03*
G01*
X2159000Y1151001D03*
D20*
G01*
X2159000Y900988D03*
G36*
X1042997Y1750999D02*
G01*
X1242997Y1750999D01*
X1242997Y1551000D01*
X1042997Y1551000D01*
G37*
D11*
G01*
X1143000Y1400987D03*
G01*
X1143000Y1151001D03*
D20*
G01*
X1143000Y900988D03*
D12*
G01*
X8838006Y5118100D03*
G01*
X8838006Y5368112D03*
G01*
X9713010Y5118100D03*
G01*
X9713010Y5368112D03*
D11*
G01*
X3187700Y850900D03*
G01*
X3975100Y850900D03*
G01*
X1663700Y6210300D03*
G36*
X1309700Y6310299D02*
G01*
X1509699Y6310299D01*
X1509699Y6110300D01*
X1309700Y6110300D01*
G37*
G01*
X1917700Y6210300D03*
D19*
G01*
X1143000Y5473700D03*
D11*
G01*
X1143000Y5219700D03*
G01*
X1143000Y4965700D03*
G01*
X1143000Y4711700D03*
G01*
X1143000Y4457700D03*
G01*
X1143000Y4203700D03*
G01*
X1143000Y3949700D03*
G01*
X1143000Y3695700D03*
D19*
G01*
X2159000Y5473700D03*
D11*
G01*
X2159000Y5219700D03*
G01*
X2159000Y4965700D03*
G01*
X2159000Y4711700D03*
G01*
X2159000Y4457700D03*
G01*
X2159000Y4203700D03*
G01*
X2159000Y3949700D03*
G01*
X2159000Y3695700D03*
G01*
X6337300Y4330700D03*
G01*
X6337300Y1790700D03*
G01*
X6337300Y4076700D03*
G01*
X6337300Y1536700D03*
G01*
X6083300Y4330700D03*
G01*
X6083300Y1790700D03*
G01*
X6083300Y4076700D03*
G01*
X6083300Y1536700D03*
G01*
X5829300Y4330700D03*
G01*
X5829300Y1790700D03*
G01*
X5829300Y4076700D03*
G01*
X5829300Y1536700D03*
G01*
X5575300Y4330700D03*
G01*
X5575300Y1790700D03*
G01*
X5575300Y4076700D03*
G01*
X5575300Y1536700D03*
G01*
X5321300Y4330700D03*
G01*
X5321300Y1790700D03*
G01*
X5321300Y4076700D03*
G01*
X5321300Y1536700D03*
G01*
X5067300Y4330700D03*
G01*
X5067300Y1790700D03*
G01*
X5067300Y4076700D03*
G01*
X5067300Y1536700D03*
G01*
X4813300Y4330700D03*
G01*
X4813300Y1790700D03*
G01*
X4813300Y4076700D03*
G01*
X4813300Y1536700D03*
G01*
X4559300Y4330700D03*
G01*
X4559300Y1790700D03*
G01*
X4559300Y4076700D03*
G01*
X4559300Y1536700D03*
G01*
X4305300Y4330700D03*
G01*
X4305300Y1790700D03*
G01*
X4305300Y4076700D03*
G01*
X4305300Y1536700D03*
G01*
X4051300Y4330700D03*
G01*
X4051300Y1790700D03*
G01*
X4051300Y4076700D03*
G01*
X4051300Y1536700D03*
D21*
X10479399Y5943600D02*
G01*
X10399400Y5943600D01*
X10479399Y5778500D02*
G01*
X10399400Y5778500D01*
X10479399Y5613400D02*
G01*
X10399400Y5613400D01*
X7266299Y4838700D02*
G01*
X7186300Y4838700D01*
X7186300Y5016500D02*
G01*
X7266299Y5016500D01*
X7266299Y5194300D02*
G01*
X7186300Y5194300D01*
M02*
