G04 Layer: BottomLayer*
G04 EasyEDA v6.4.19.5, 2021-05-28T19:21:40+07:00*
G04 6e6706e82e5b4a748e8d5c8c40211ff5,daa0c75fb02d462d8576232f80c62aaa,10*
G04 Gerber Generator version 0.2*
G04 Scale: 100 percent, Rotated: No, Reflected: No *
G04 Dimensions in millimeters *
G04 leading zeros omitted , absolute positions ,4 integer and 5 decimal *
%FSLAX45Y45*%
%MOMM*%

%ADD10C,1.0000*%
%ADD11C,2.0000*%
%ADD12C,1.5240*%
%ADD15C,2.5400*%
%ADD16C,2.1590*%
%ADD18C,2.5000*%
%ADD19R,2.0000X2.0000*%
%ADD20C,2.2000*%
%ADD21C,1.2000*%

%LPD*%
G36*
X310184Y249986D02*
G01*
X306273Y250748D01*
X302971Y252984D01*
X300786Y256286D01*
X300024Y260146D01*
X300024Y8589822D01*
X300786Y8593734D01*
X302971Y8597036D01*
X306273Y8599220D01*
X310184Y8599982D01*
X11889841Y8599982D01*
X11893753Y8599220D01*
X11897004Y8597036D01*
X11899239Y8593734D01*
X11900001Y8589822D01*
X11900001Y260146D01*
X11899239Y256286D01*
X11897004Y252984D01*
X11893753Y250748D01*
X11889841Y249986D01*
G37*

%LPC*%
G36*
X1765452Y341782D02*
G01*
X4571847Y341782D01*
X4579264Y341985D01*
X4586478Y342646D01*
X4593691Y343763D01*
X4600803Y345287D01*
X4607763Y347218D01*
X4614621Y349605D01*
X4621377Y352348D01*
X4627880Y355549D01*
X4634230Y359105D01*
X4640326Y363067D01*
X4646168Y367385D01*
X4651756Y372008D01*
X4657140Y377088D01*
X5152237Y872185D01*
X5157317Y877569D01*
X5161940Y883158D01*
X5166258Y889000D01*
X5170220Y895096D01*
X5173776Y901446D01*
X5176977Y907948D01*
X5179720Y914704D01*
X5182108Y921562D01*
X5184038Y928522D01*
X5185562Y935634D01*
X5186680Y942848D01*
X5187340Y950061D01*
X5187543Y957478D01*
X5187543Y1405483D01*
X5188305Y1409395D01*
X5190540Y1412646D01*
X5193842Y1414881D01*
X5197703Y1415643D01*
X5201615Y1414881D01*
X5204917Y1412646D01*
X5207406Y1410208D01*
X5221224Y1398981D01*
X5236159Y1389278D01*
X5252059Y1381201D01*
X5268671Y1374800D01*
X5285892Y1370177D01*
X5303520Y1367383D01*
X5321300Y1366469D01*
X5339080Y1367383D01*
X5356707Y1370177D01*
X5373928Y1374800D01*
X5390540Y1381201D01*
X5406440Y1389278D01*
X5421376Y1398981D01*
X5435193Y1410208D01*
X5441137Y1416100D01*
X5444388Y1418285D01*
X5448300Y1419047D01*
X5452211Y1418285D01*
X5455462Y1416100D01*
X5461406Y1410208D01*
X5475224Y1398981D01*
X5490159Y1389278D01*
X5506059Y1381201D01*
X5522671Y1374800D01*
X5539892Y1370177D01*
X5557520Y1367383D01*
X5575300Y1366469D01*
X5593080Y1367383D01*
X5610707Y1370177D01*
X5627928Y1374800D01*
X5644540Y1381201D01*
X5660440Y1389278D01*
X5675376Y1398981D01*
X5689193Y1410208D01*
X5695137Y1416100D01*
X5698388Y1418285D01*
X5702300Y1419047D01*
X5706211Y1418285D01*
X5709462Y1416100D01*
X5715406Y1410208D01*
X5729224Y1398981D01*
X5744159Y1389278D01*
X5760059Y1381201D01*
X5776671Y1374800D01*
X5793892Y1370177D01*
X5811520Y1367383D01*
X5829300Y1366469D01*
X5847080Y1367383D01*
X5864707Y1370177D01*
X5881928Y1374800D01*
X5898540Y1381201D01*
X5914440Y1389278D01*
X5929376Y1398981D01*
X5943193Y1410208D01*
X5949137Y1416100D01*
X5952388Y1418285D01*
X5956300Y1419047D01*
X5960211Y1418285D01*
X5963462Y1416100D01*
X5969406Y1410208D01*
X5983224Y1398981D01*
X5998159Y1389278D01*
X6014059Y1381201D01*
X6030671Y1374800D01*
X6047892Y1370177D01*
X6065520Y1367383D01*
X6083300Y1366469D01*
X6101080Y1367383D01*
X6118707Y1370177D01*
X6135928Y1374800D01*
X6152540Y1381201D01*
X6168440Y1389278D01*
X6183376Y1398981D01*
X6197193Y1410208D01*
X6203137Y1416100D01*
X6206388Y1418285D01*
X6210300Y1419047D01*
X6214211Y1418285D01*
X6217462Y1416100D01*
X6223406Y1410208D01*
X6237224Y1398981D01*
X6252159Y1389278D01*
X6268059Y1381201D01*
X6280962Y1376222D01*
X6280962Y1480362D01*
X6257442Y1480362D01*
X6253784Y1481023D01*
X6250635Y1482953D01*
X6248400Y1485900D01*
X6247333Y1489456D01*
X6247638Y1493164D01*
X6249822Y1501292D01*
X6252616Y1518920D01*
X6253530Y1536700D01*
X6252616Y1554480D01*
X6249822Y1572107D01*
X6247638Y1580235D01*
X6247333Y1583944D01*
X6248400Y1587500D01*
X6250635Y1590446D01*
X6253784Y1592376D01*
X6257442Y1593037D01*
X6280962Y1593037D01*
X6280962Y1616557D01*
X6281623Y1620215D01*
X6283553Y1623364D01*
X6286500Y1625600D01*
X6290056Y1626666D01*
X6293764Y1626362D01*
X6301892Y1624177D01*
X6319520Y1621383D01*
X6337300Y1620469D01*
X6355080Y1621383D01*
X6372707Y1624177D01*
X6380835Y1626362D01*
X6384544Y1626666D01*
X6388100Y1625600D01*
X6391046Y1623364D01*
X6392976Y1620215D01*
X6393637Y1616557D01*
X6393637Y1593037D01*
X6497777Y1593037D01*
X6492798Y1605940D01*
X6484721Y1621840D01*
X6475018Y1636776D01*
X6463792Y1650593D01*
X6457899Y1656537D01*
X6455714Y1659788D01*
X6454952Y1663700D01*
X6455714Y1667611D01*
X6457899Y1670862D01*
X6463792Y1676806D01*
X6475018Y1690624D01*
X6484721Y1705559D01*
X6492798Y1721459D01*
X6499199Y1738071D01*
X6503822Y1755292D01*
X6506616Y1772920D01*
X6507530Y1790700D01*
X6506616Y1808480D01*
X6503822Y1826107D01*
X6499199Y1843328D01*
X6492798Y1859940D01*
X6484721Y1875840D01*
X6475018Y1890775D01*
X6463792Y1904593D01*
X6451193Y1917192D01*
X6437376Y1928418D01*
X6422440Y1938121D01*
X6406540Y1946198D01*
X6389928Y1952599D01*
X6372707Y1957222D01*
X6355080Y1960016D01*
X6337300Y1960930D01*
X6319520Y1960016D01*
X6301892Y1957222D01*
X6284671Y1952599D01*
X6268059Y1946198D01*
X6252159Y1938121D01*
X6237224Y1928418D01*
X6223406Y1917192D01*
X6217462Y1911299D01*
X6214211Y1909114D01*
X6210300Y1908352D01*
X6206388Y1909114D01*
X6203137Y1911299D01*
X6197193Y1917192D01*
X6183376Y1928418D01*
X6168440Y1938121D01*
X6152540Y1946198D01*
X6135928Y1952599D01*
X6118707Y1957222D01*
X6101080Y1960016D01*
X6083300Y1960930D01*
X6065520Y1960016D01*
X6047892Y1957222D01*
X6030671Y1952599D01*
X6014059Y1946198D01*
X5998159Y1938121D01*
X5983224Y1928418D01*
X5969406Y1917192D01*
X5966917Y1914753D01*
X5963615Y1912518D01*
X5959703Y1911756D01*
X5955842Y1912518D01*
X5952540Y1914753D01*
X5950305Y1918004D01*
X5949543Y1921916D01*
X5949543Y2524099D01*
X5950305Y2527960D01*
X5952540Y2531262D01*
X6187795Y2766517D01*
X6191097Y2768752D01*
X6194958Y2769514D01*
X8934043Y2769514D01*
X8937955Y2768752D01*
X8941206Y2766517D01*
X8943441Y2763215D01*
X8944203Y2759354D01*
X8943441Y2755442D01*
X8941206Y2752140D01*
X8938768Y2749651D01*
X8927541Y2735834D01*
X8917838Y2720898D01*
X8909761Y2704998D01*
X8903360Y2688386D01*
X8898737Y2671165D01*
X8895943Y2653538D01*
X8895029Y2635758D01*
X8895943Y2617978D01*
X8898737Y2600350D01*
X8903360Y2583129D01*
X8909761Y2566517D01*
X8917838Y2550617D01*
X8927541Y2535682D01*
X8938768Y2521864D01*
X8944660Y2515920D01*
X8946845Y2512669D01*
X8947607Y2508758D01*
X8946845Y2504846D01*
X8944660Y2501595D01*
X8938768Y2495651D01*
X8927541Y2481834D01*
X8917838Y2466898D01*
X8909761Y2450998D01*
X8903360Y2434386D01*
X8898737Y2417165D01*
X8895943Y2399538D01*
X8895029Y2381758D01*
X8895943Y2363978D01*
X8898737Y2346350D01*
X8903360Y2329129D01*
X8909761Y2312517D01*
X8917838Y2296617D01*
X8927541Y2281682D01*
X8938768Y2267864D01*
X8944660Y2261920D01*
X8946845Y2258669D01*
X8947607Y2254758D01*
X8946845Y2250846D01*
X8944660Y2247595D01*
X8938768Y2241651D01*
X8927541Y2227834D01*
X8917838Y2212898D01*
X8909761Y2196998D01*
X8904782Y2184095D01*
X9008922Y2184095D01*
X9008922Y2207615D01*
X9009583Y2211273D01*
X9011513Y2214422D01*
X9014460Y2216658D01*
X9018016Y2217724D01*
X9021724Y2217420D01*
X9029852Y2215235D01*
X9047480Y2212441D01*
X9065260Y2211527D01*
X9083040Y2212441D01*
X9100667Y2215235D01*
X9108795Y2217420D01*
X9112504Y2217724D01*
X9116060Y2216658D01*
X9119006Y2214422D01*
X9120936Y2211273D01*
X9121597Y2207615D01*
X9121597Y2184095D01*
X9225737Y2184095D01*
X9220758Y2196998D01*
X9212681Y2212898D01*
X9202978Y2227834D01*
X9191752Y2241651D01*
X9189313Y2244140D01*
X9187078Y2247442D01*
X9186316Y2251354D01*
X9187078Y2255215D01*
X9189313Y2258517D01*
X9192564Y2260752D01*
X9196476Y2261514D01*
X9519005Y2261514D01*
X9526422Y2261717D01*
X9533636Y2262378D01*
X9540849Y2263495D01*
X9547961Y2265019D01*
X9554921Y2266950D01*
X9561779Y2269337D01*
X9568535Y2272080D01*
X9575038Y2275281D01*
X9581388Y2278837D01*
X9587484Y2282799D01*
X9593326Y2287117D01*
X9598914Y2291740D01*
X9604298Y2296820D01*
X9889337Y2581859D01*
X9894417Y2587244D01*
X9899040Y2592832D01*
X9903358Y2598674D01*
X9907320Y2604770D01*
X9910876Y2611120D01*
X9914077Y2617622D01*
X9916820Y2624378D01*
X9919208Y2631236D01*
X9921138Y2638196D01*
X9922662Y2645308D01*
X9923780Y2652522D01*
X9924440Y2659735D01*
X9924643Y2667152D01*
X9924643Y3327247D01*
X9924440Y3334664D01*
X9923780Y3341878D01*
X9922662Y3349091D01*
X9921138Y3356152D01*
X9919208Y3363163D01*
X9916820Y3370021D01*
X9914077Y3376777D01*
X9910876Y3383279D01*
X9907320Y3389629D01*
X9903358Y3395726D01*
X9899040Y3401568D01*
X9894417Y3407156D01*
X9889337Y3412540D01*
X9845344Y3456482D01*
X9843160Y3459784D01*
X9842398Y3463696D01*
X9843160Y3467557D01*
X9845344Y3470859D01*
X9848646Y3473094D01*
X9852558Y3473856D01*
X10794847Y3473856D01*
X10802264Y3474059D01*
X10809478Y3474720D01*
X10816691Y3475837D01*
X10823803Y3477361D01*
X10830763Y3479292D01*
X10837621Y3481679D01*
X10844377Y3484422D01*
X10850880Y3487623D01*
X10857230Y3491179D01*
X10863326Y3495141D01*
X10869168Y3499459D01*
X10874756Y3504082D01*
X10880140Y3509162D01*
X11197437Y3826459D01*
X11202517Y3831844D01*
X11207140Y3837432D01*
X11211458Y3843274D01*
X11215420Y3849370D01*
X11218976Y3855720D01*
X11222177Y3862222D01*
X11224920Y3868978D01*
X11227308Y3875836D01*
X11229238Y3882796D01*
X11230762Y3889908D01*
X11231880Y3897122D01*
X11232540Y3904335D01*
X11232743Y3911752D01*
X11232743Y5994247D01*
X11232540Y6001664D01*
X11231880Y6008878D01*
X11230762Y6016091D01*
X11229238Y6023152D01*
X11227308Y6030163D01*
X11224920Y6037021D01*
X11222177Y6043777D01*
X11218976Y6050280D01*
X11215420Y6056630D01*
X11211458Y6062726D01*
X11207140Y6068568D01*
X11202517Y6074156D01*
X11197437Y6079540D01*
X10930940Y6346037D01*
X10925556Y6351117D01*
X10919968Y6355740D01*
X10914126Y6360058D01*
X10908030Y6364020D01*
X10901680Y6367576D01*
X10895177Y6370777D01*
X10888421Y6373520D01*
X10881563Y6375908D01*
X10874603Y6377838D01*
X10867491Y6379362D01*
X10860278Y6380480D01*
X10853064Y6381140D01*
X10845647Y6381343D01*
X10293959Y6381343D01*
X10289794Y6382258D01*
X10286390Y6384747D01*
X10284307Y6388455D01*
X10283901Y6392722D01*
X10285272Y6396736D01*
X10291572Y6407251D01*
X10299750Y6424574D01*
X10306202Y6442608D01*
X10310876Y6461201D01*
X10313670Y6480149D01*
X10314635Y6499301D01*
X10313670Y6518452D01*
X10310876Y6537401D01*
X10306202Y6555994D01*
X10299750Y6574028D01*
X10291572Y6591350D01*
X10281716Y6607759D01*
X10270286Y6623151D01*
X10257434Y6637375D01*
X10243261Y6650228D01*
X10227868Y6661658D01*
X10211409Y6671513D01*
X10194086Y6679692D01*
X10176052Y6686143D01*
X10157460Y6690817D01*
X10138511Y6693611D01*
X10119410Y6694525D01*
X10100259Y6693611D01*
X10081310Y6690817D01*
X10062718Y6686143D01*
X10044684Y6679692D01*
X10027361Y6671513D01*
X10010902Y6661658D01*
X9995509Y6650228D01*
X9981336Y6637375D01*
X9968484Y6623151D01*
X9957054Y6607759D01*
X9947198Y6591350D01*
X9939020Y6574028D01*
X9932568Y6555994D01*
X9927894Y6537401D01*
X9925100Y6518452D01*
X9924135Y6499301D01*
X9925100Y6480149D01*
X9927894Y6461201D01*
X9932568Y6442608D01*
X9939020Y6424574D01*
X9947198Y6407251D01*
X9953498Y6396736D01*
X9954869Y6392722D01*
X9954463Y6388455D01*
X9952380Y6384747D01*
X9948976Y6382258D01*
X9944811Y6381343D01*
X9858400Y6381343D01*
X9854539Y6382105D01*
X9851237Y6384340D01*
X9292640Y6942937D01*
X9287256Y6948017D01*
X9281668Y6952640D01*
X9275826Y6956958D01*
X9270593Y6960362D01*
X9267545Y6963409D01*
X9266021Y6967474D01*
X9266326Y6971741D01*
X9268409Y6975551D01*
X9271863Y6978142D01*
X9276080Y6979056D01*
X10312247Y6979056D01*
X10319664Y6979259D01*
X10326878Y6979920D01*
X10334091Y6981037D01*
X10341203Y6982561D01*
X10348163Y6984492D01*
X10355021Y6986879D01*
X10361777Y6989622D01*
X10368280Y6992823D01*
X10374630Y6996379D01*
X10380726Y7000341D01*
X10386568Y7004659D01*
X10392156Y7009282D01*
X10397540Y7014362D01*
X10597997Y7214819D01*
X10601299Y7217054D01*
X10605160Y7217816D01*
X11152022Y7217816D01*
X11155934Y7217054D01*
X11159185Y7214819D01*
X11230864Y7143191D01*
X11239550Y7135774D01*
X11248948Y7129983D01*
X11259108Y7125766D01*
X11269827Y7123226D01*
X11281206Y7122312D01*
X11400993Y7122312D01*
X11412372Y7123226D01*
X11423091Y7125766D01*
X11433251Y7129983D01*
X11442649Y7135774D01*
X11451336Y7143191D01*
X11535968Y7227824D01*
X11543385Y7236510D01*
X11549176Y7245908D01*
X11553393Y7256068D01*
X11555933Y7266787D01*
X11556847Y7278166D01*
X11556847Y7397953D01*
X11555933Y7409332D01*
X11553393Y7420051D01*
X11549176Y7430211D01*
X11543385Y7439609D01*
X11535968Y7448296D01*
X11451336Y7532928D01*
X11442649Y7540345D01*
X11433251Y7546136D01*
X11423091Y7550353D01*
X11412372Y7552893D01*
X11400993Y7553807D01*
X11281206Y7553807D01*
X11269827Y7552893D01*
X11259108Y7550353D01*
X11248948Y7546136D01*
X11239550Y7540345D01*
X11230864Y7532928D01*
X11159185Y7461300D01*
X11155934Y7459065D01*
X11152022Y7458303D01*
X10551312Y7458303D01*
X10543895Y7458100D01*
X10536682Y7457440D01*
X10529468Y7456322D01*
X10522407Y7454798D01*
X10515396Y7452868D01*
X10508538Y7450480D01*
X10501782Y7447737D01*
X10495280Y7444536D01*
X10488930Y7440980D01*
X10482834Y7437018D01*
X10476992Y7432700D01*
X10471404Y7428077D01*
X10466019Y7422997D01*
X10265562Y7222540D01*
X10262260Y7220305D01*
X10258399Y7219543D01*
X8858199Y7219543D01*
X8854084Y7220407D01*
X8850680Y7222896D01*
X8837523Y7237374D01*
X8823350Y7250226D01*
X8807958Y7261656D01*
X8791549Y7271512D01*
X8774226Y7279690D01*
X8756142Y7286142D01*
X8737600Y7290816D01*
X8718600Y7293609D01*
X8699500Y7294524D01*
X8680348Y7293609D01*
X8661400Y7290816D01*
X8642807Y7286142D01*
X8624773Y7279690D01*
X8607450Y7271512D01*
X8590991Y7261656D01*
X8575649Y7250226D01*
X8561425Y7237374D01*
X8548573Y7223150D01*
X8537143Y7207758D01*
X8527288Y7191349D01*
X8519109Y7174026D01*
X8512657Y7155992D01*
X8507984Y7137400D01*
X8505190Y7118451D01*
X8504224Y7099300D01*
X8505190Y7080148D01*
X8507984Y7061200D01*
X8512657Y7042607D01*
X8519109Y7024573D01*
X8527288Y7007250D01*
X8535466Y6993636D01*
X8536838Y6989622D01*
X8536432Y6985355D01*
X8534349Y6981647D01*
X8530894Y6979158D01*
X8526729Y6978243D01*
X8270900Y6978243D01*
X8267039Y6979005D01*
X8263737Y6981240D01*
X8149640Y7095337D01*
X8147405Y7098639D01*
X8146643Y7102500D01*
X8146643Y7280960D01*
X8147558Y7285177D01*
X8150758Y7289190D01*
X8163255Y7302652D01*
X8174228Y7317333D01*
X8183676Y7333030D01*
X8191449Y7349693D01*
X8197494Y7367016D01*
X8201710Y7384846D01*
X8204047Y7403033D01*
X8204555Y7421372D01*
X8203742Y7431735D01*
X8204352Y7436053D01*
X8206689Y7439710D01*
X8238337Y7471359D01*
X8241639Y7473594D01*
X8245500Y7474356D01*
X8794546Y7474356D01*
X8801963Y7474559D01*
X8809177Y7475220D01*
X8816390Y7476337D01*
X8823502Y7477861D01*
X8830462Y7479792D01*
X8837320Y7482179D01*
X8844076Y7484922D01*
X8850579Y7488123D01*
X8856929Y7491679D01*
X8863025Y7495641D01*
X8868765Y7499858D01*
X8871915Y7502652D01*
X8875318Y7504582D01*
X8879128Y7505090D01*
X8899398Y7504074D01*
X8918854Y7504988D01*
X8923020Y7504328D01*
X8926525Y7502042D01*
X9084005Y7344562D01*
X9089390Y7339482D01*
X9094978Y7334859D01*
X9100820Y7330541D01*
X9106916Y7326579D01*
X9113266Y7323023D01*
X9119768Y7319822D01*
X9126524Y7317079D01*
X9133382Y7314692D01*
X9140393Y7312761D01*
X9147454Y7311237D01*
X9154668Y7310120D01*
X9161881Y7309459D01*
X9169298Y7309256D01*
X10261447Y7309256D01*
X10268864Y7309459D01*
X10276078Y7310120D01*
X10283291Y7311237D01*
X10290403Y7312761D01*
X10297363Y7314692D01*
X10304221Y7317079D01*
X10310977Y7319822D01*
X10317480Y7323023D01*
X10323830Y7326579D01*
X10329926Y7330541D01*
X10335768Y7334859D01*
X10341356Y7339482D01*
X10346740Y7344562D01*
X10511637Y7509459D01*
X10516717Y7514844D01*
X10521340Y7520431D01*
X10525658Y7526274D01*
X10529620Y7532370D01*
X10533176Y7538720D01*
X10536377Y7545222D01*
X10539120Y7551978D01*
X10541508Y7558836D01*
X10543438Y7565796D01*
X10544962Y7572908D01*
X10546080Y7580122D01*
X10546740Y7587335D01*
X10546943Y7594752D01*
X10546943Y7899247D01*
X10546740Y7906664D01*
X10546080Y7913878D01*
X10544962Y7921091D01*
X10543438Y7928152D01*
X10541508Y7935163D01*
X10539120Y7942021D01*
X10536377Y7948777D01*
X10533176Y7955280D01*
X10529620Y7961630D01*
X10525658Y7967725D01*
X10521340Y7973568D01*
X10516717Y7979156D01*
X10511637Y7984540D01*
X10080040Y8416137D01*
X10074656Y8421217D01*
X10069068Y8425840D01*
X10063226Y8430158D01*
X10057130Y8434120D01*
X10050780Y8437676D01*
X10044277Y8440877D01*
X10037521Y8443620D01*
X10030663Y8446008D01*
X10023703Y8447938D01*
X10016591Y8449462D01*
X10009378Y8450580D01*
X10002164Y8451240D01*
X9994747Y8451443D01*
X2006752Y8451443D01*
X1999335Y8451240D01*
X1992122Y8450580D01*
X1984908Y8449462D01*
X1977847Y8447938D01*
X1970836Y8446008D01*
X1963978Y8443620D01*
X1957222Y8440877D01*
X1950720Y8437676D01*
X1944370Y8434120D01*
X1938274Y8430158D01*
X1932432Y8425840D01*
X1926843Y8421217D01*
X1921459Y8416137D01*
X1324762Y7819440D01*
X1319682Y7814056D01*
X1315059Y7808468D01*
X1310741Y7802625D01*
X1306779Y7796530D01*
X1303223Y7790180D01*
X1300022Y7783677D01*
X1297279Y7776921D01*
X1294892Y7770063D01*
X1292961Y7763052D01*
X1291437Y7755991D01*
X1290320Y7748778D01*
X1289659Y7741564D01*
X1289456Y7734147D01*
X1289456Y6384493D01*
X1288694Y6380581D01*
X1286459Y6377279D01*
X1283157Y6375095D01*
X1277823Y6372860D01*
X1268425Y6367119D01*
X1260043Y6359956D01*
X1252880Y6351574D01*
X1247140Y6342176D01*
X1244904Y6336842D01*
X1242720Y6333540D01*
X1239418Y6331305D01*
X1235506Y6330543D01*
X1003452Y6330543D01*
X996035Y6330340D01*
X988821Y6329680D01*
X981608Y6328562D01*
X974547Y6327038D01*
X967536Y6325108D01*
X960678Y6322720D01*
X953922Y6319977D01*
X947419Y6316776D01*
X941069Y6313220D01*
X934974Y6309258D01*
X929132Y6304940D01*
X923544Y6300317D01*
X918159Y6295237D01*
X473862Y5850940D01*
X468782Y5845556D01*
X464159Y5839968D01*
X459841Y5834126D01*
X455879Y5828030D01*
X452323Y5821680D01*
X449122Y5815177D01*
X446379Y5808421D01*
X443992Y5801563D01*
X442061Y5794552D01*
X440537Y5787491D01*
X439420Y5780278D01*
X438759Y5773064D01*
X438556Y5765647D01*
X438556Y1333652D01*
X438759Y1326235D01*
X439420Y1319022D01*
X440537Y1311808D01*
X442061Y1304696D01*
X443992Y1297736D01*
X446379Y1290878D01*
X449122Y1284122D01*
X452323Y1277620D01*
X455879Y1271270D01*
X459841Y1265174D01*
X464159Y1259332D01*
X468782Y1253744D01*
X473862Y1248359D01*
X906221Y816000D01*
X911606Y810920D01*
X917194Y806297D01*
X923036Y801979D01*
X929132Y798017D01*
X935482Y794461D01*
X941984Y791260D01*
X948740Y788517D01*
X955598Y786130D01*
X962609Y784199D01*
X969670Y782675D01*
X976884Y781558D01*
X984097Y780897D01*
X991514Y780694D01*
X1004519Y780694D01*
X1008684Y779780D01*
X1012139Y777240D01*
X1013917Y775208D01*
X1027531Y762609D01*
X1042365Y751433D01*
X1058265Y741883D01*
X1075080Y734060D01*
X1092606Y727964D01*
X1110691Y723696D01*
X1129080Y721309D01*
X1147622Y720801D01*
X1166164Y722223D01*
X1184402Y725576D01*
X1202232Y730758D01*
X1219403Y737768D01*
X1235760Y746455D01*
X1251204Y756818D01*
X1265428Y768705D01*
X1278382Y782015D01*
X1289913Y796544D01*
X1299870Y812241D01*
X1308150Y828802D01*
X1314704Y846175D01*
X1319428Y864108D01*
X1322273Y882446D01*
X1323238Y900988D01*
X1322273Y919530D01*
X1319428Y937869D01*
X1314704Y955802D01*
X1308150Y973175D01*
X1299870Y989787D01*
X1296924Y994410D01*
X1295400Y998474D01*
X1295755Y1002792D01*
X1297787Y1006551D01*
X1301242Y1009142D01*
X1305458Y1010056D01*
X1411325Y1010056D01*
X1415186Y1009294D01*
X1418488Y1007059D01*
X1464259Y961288D01*
X1466494Y957986D01*
X1467256Y954125D01*
X1467256Y639978D01*
X1467459Y632561D01*
X1468120Y625348D01*
X1469237Y618134D01*
X1470761Y611022D01*
X1472692Y604062D01*
X1475079Y597204D01*
X1477822Y590448D01*
X1481023Y583946D01*
X1484579Y577596D01*
X1488541Y571500D01*
X1492859Y565658D01*
X1497482Y560070D01*
X1502562Y554685D01*
X1680159Y377088D01*
X1685543Y372008D01*
X1691132Y367385D01*
X1696974Y363067D01*
X1703070Y359105D01*
X1709420Y355549D01*
X1715922Y352348D01*
X1722678Y349605D01*
X1729536Y347218D01*
X1736547Y345287D01*
X1743608Y343763D01*
X1750822Y342646D01*
X1758035Y341985D01*
G37*
G36*
X623519Y352298D02*
G01*
X646480Y352298D01*
X669340Y354228D01*
X691946Y358140D01*
X714146Y363880D01*
X735787Y371551D01*
X756666Y381000D01*
X776681Y392176D01*
X795680Y405028D01*
X813562Y419455D01*
X830122Y435305D01*
X845261Y452526D01*
X858926Y470966D01*
X870915Y490524D01*
X881278Y510997D01*
X889812Y532282D01*
X896518Y554228D01*
X901344Y576630D01*
X904290Y599389D01*
X905256Y622300D01*
X904290Y645210D01*
X901344Y667969D01*
X896518Y690372D01*
X889812Y712317D01*
X881278Y733602D01*
X870915Y754075D01*
X858926Y773633D01*
X845261Y792073D01*
X830122Y809294D01*
X813562Y825144D01*
X795680Y839571D01*
X776681Y852424D01*
X756666Y863600D01*
X735787Y873048D01*
X714146Y880719D01*
X691946Y886460D01*
X669340Y890371D01*
X646480Y892302D01*
X623519Y892302D01*
X600659Y890371D01*
X578053Y886460D01*
X555853Y880719D01*
X534212Y873048D01*
X513334Y863600D01*
X493318Y852424D01*
X474319Y839571D01*
X456438Y825144D01*
X439877Y809294D01*
X424738Y792073D01*
X411073Y773633D01*
X399084Y754075D01*
X388721Y733602D01*
X380187Y712317D01*
X373481Y690372D01*
X368655Y667969D01*
X365709Y645210D01*
X364744Y622300D01*
X365709Y599389D01*
X368655Y576630D01*
X373481Y554228D01*
X380187Y532282D01*
X388721Y510997D01*
X399084Y490524D01*
X411073Y470966D01*
X424738Y452526D01*
X439877Y435305D01*
X456438Y419455D01*
X474319Y405028D01*
X493318Y392176D01*
X513334Y381000D01*
X534212Y371551D01*
X555853Y363880D01*
X578053Y358140D01*
X600659Y354228D01*
G37*
G36*
X11545519Y364998D02*
G01*
X11568480Y364998D01*
X11591340Y366928D01*
X11613946Y370840D01*
X11636146Y376580D01*
X11657787Y384251D01*
X11678666Y393700D01*
X11698681Y404876D01*
X11717680Y417728D01*
X11735562Y432155D01*
X11752122Y448005D01*
X11767261Y465226D01*
X11780926Y483666D01*
X11792915Y503224D01*
X11803278Y523697D01*
X11811812Y544982D01*
X11818518Y566928D01*
X11823344Y589330D01*
X11826290Y612089D01*
X11827256Y635000D01*
X11826290Y657910D01*
X11823344Y680669D01*
X11818518Y703072D01*
X11811812Y725017D01*
X11803278Y746302D01*
X11792915Y766775D01*
X11780926Y786333D01*
X11767261Y804773D01*
X11752122Y821994D01*
X11735562Y837844D01*
X11717680Y852271D01*
X11698681Y865124D01*
X11678666Y876300D01*
X11657787Y885748D01*
X11636146Y893419D01*
X11613946Y899160D01*
X11591340Y903071D01*
X11568480Y905002D01*
X11545519Y905002D01*
X11522659Y903071D01*
X11500053Y899160D01*
X11477853Y893419D01*
X11456212Y885748D01*
X11435334Y876300D01*
X11415318Y865124D01*
X11396319Y852271D01*
X11378438Y837844D01*
X11361877Y821994D01*
X11346738Y804773D01*
X11333073Y786333D01*
X11321084Y766775D01*
X11310721Y746302D01*
X11302187Y725017D01*
X11295481Y703072D01*
X11290655Y680669D01*
X11287709Y657910D01*
X11286744Y635000D01*
X11287709Y612089D01*
X11290655Y589330D01*
X11295481Y566928D01*
X11302187Y544982D01*
X11310721Y523697D01*
X11321084Y503224D01*
X11333073Y483666D01*
X11346738Y465226D01*
X11361877Y448005D01*
X11378438Y432155D01*
X11396319Y417728D01*
X11415318Y404876D01*
X11435334Y393700D01*
X11456212Y384251D01*
X11477853Y376580D01*
X11500053Y370840D01*
X11522659Y366928D01*
G37*
G36*
X5393385Y438505D02*
G01*
X10933480Y438505D01*
X10944910Y439420D01*
X10955578Y441959D01*
X10965789Y446176D01*
X10975187Y451967D01*
X10983569Y459130D01*
X10990732Y467512D01*
X10996472Y476910D01*
X11000689Y487070D01*
X11003280Y497789D01*
X11004143Y509168D01*
X11004143Y974293D01*
X11003280Y985672D01*
X11000689Y996391D01*
X10996472Y1006551D01*
X10990732Y1015949D01*
X10983569Y1024331D01*
X10975187Y1031494D01*
X10965789Y1037234D01*
X10955578Y1041450D01*
X10944910Y1044041D01*
X10933480Y1044956D01*
X5393385Y1044956D01*
X5382006Y1044041D01*
X5371287Y1041450D01*
X5361127Y1037234D01*
X5351729Y1031494D01*
X5343347Y1024331D01*
X5336184Y1015949D01*
X5330444Y1006551D01*
X5326227Y996391D01*
X5323636Y985672D01*
X5322722Y974293D01*
X5322722Y509168D01*
X5323636Y497789D01*
X5326227Y487070D01*
X5330444Y476910D01*
X5336184Y467512D01*
X5343347Y459130D01*
X5351729Y451967D01*
X5361127Y446176D01*
X5371287Y441959D01*
X5382006Y439420D01*
G37*
G36*
X6807708Y1245057D02*
G01*
X11670080Y1245057D01*
X11681510Y1245920D01*
X11692178Y1248511D01*
X11702389Y1252728D01*
X11711787Y1258468D01*
X11720169Y1265631D01*
X11727332Y1274013D01*
X11733072Y1283411D01*
X11737289Y1293571D01*
X11739880Y1304290D01*
X11740743Y1315669D01*
X11740743Y1748993D01*
X11739880Y1760372D01*
X11737289Y1771091D01*
X11733072Y1781251D01*
X11727332Y1790649D01*
X11720169Y1799031D01*
X11711787Y1806193D01*
X11702389Y1811934D01*
X11692178Y1816150D01*
X11681510Y1818741D01*
X11670080Y1819656D01*
X11493398Y1819656D01*
X11489182Y1820570D01*
X11485727Y1823110D01*
X11483644Y1826869D01*
X11483289Y1831136D01*
X11484762Y1835200D01*
X11487759Y1838299D01*
X11491772Y1839823D01*
X11493347Y1840077D01*
X11510568Y1844700D01*
X11527180Y1851101D01*
X11543080Y1859178D01*
X11558016Y1868881D01*
X11571833Y1880107D01*
X11584432Y1892706D01*
X11595658Y1906524D01*
X11605361Y1921459D01*
X11613438Y1937359D01*
X11619839Y1953971D01*
X11624462Y1971192D01*
X11627256Y1988820D01*
X11628170Y2006600D01*
X11627256Y2024380D01*
X11624462Y2042007D01*
X11619839Y2059228D01*
X11613438Y2075840D01*
X11605361Y2091740D01*
X11595658Y2106676D01*
X11584432Y2120493D01*
X11578539Y2126437D01*
X11576354Y2129688D01*
X11575592Y2133600D01*
X11576354Y2137511D01*
X11578539Y2140762D01*
X11584432Y2146706D01*
X11595658Y2160524D01*
X11605361Y2175459D01*
X11613438Y2191359D01*
X11619839Y2207971D01*
X11624462Y2225192D01*
X11627256Y2242820D01*
X11628170Y2260600D01*
X11627256Y2278380D01*
X11624462Y2296007D01*
X11619839Y2313228D01*
X11613438Y2329840D01*
X11605361Y2345740D01*
X11595658Y2360676D01*
X11584432Y2374493D01*
X11578539Y2380437D01*
X11576354Y2383688D01*
X11575592Y2387600D01*
X11576354Y2391511D01*
X11578539Y2394762D01*
X11584432Y2400706D01*
X11595658Y2414524D01*
X11605361Y2429459D01*
X11613438Y2445359D01*
X11619839Y2461971D01*
X11624462Y2479192D01*
X11627256Y2496820D01*
X11628170Y2514600D01*
X11627256Y2532380D01*
X11624462Y2550007D01*
X11619839Y2567228D01*
X11613438Y2583840D01*
X11605361Y2599740D01*
X11595658Y2614676D01*
X11584432Y2628493D01*
X11578539Y2634437D01*
X11576354Y2637688D01*
X11575592Y2641600D01*
X11576354Y2645511D01*
X11578539Y2648762D01*
X11584432Y2654706D01*
X11595658Y2668524D01*
X11605361Y2683459D01*
X11613438Y2699359D01*
X11619839Y2715971D01*
X11624462Y2733192D01*
X11627256Y2750820D01*
X11628170Y2768600D01*
X11627256Y2786380D01*
X11624462Y2804007D01*
X11619839Y2821228D01*
X11613438Y2837840D01*
X11605361Y2853740D01*
X11595658Y2868676D01*
X11584432Y2882493D01*
X11578539Y2888437D01*
X11576354Y2891688D01*
X11575592Y2895600D01*
X11576354Y2899511D01*
X11578539Y2902762D01*
X11584432Y2908706D01*
X11595658Y2922524D01*
X11605361Y2937459D01*
X11613438Y2953359D01*
X11619839Y2969971D01*
X11624462Y2987192D01*
X11627256Y3004820D01*
X11628170Y3022600D01*
X11627256Y3040380D01*
X11624462Y3058007D01*
X11619839Y3075228D01*
X11613438Y3091840D01*
X11605361Y3107740D01*
X11595658Y3122676D01*
X11584432Y3136493D01*
X11578539Y3142437D01*
X11576354Y3145688D01*
X11575592Y3149600D01*
X11576354Y3153511D01*
X11578539Y3156762D01*
X11584432Y3162706D01*
X11595658Y3176524D01*
X11605361Y3191459D01*
X11613438Y3207359D01*
X11619839Y3223971D01*
X11624462Y3241192D01*
X11627256Y3258820D01*
X11628170Y3276600D01*
X11627256Y3294379D01*
X11624462Y3312007D01*
X11619839Y3329228D01*
X11613438Y3345840D01*
X11605361Y3361740D01*
X11595658Y3376676D01*
X11584432Y3390493D01*
X11578539Y3396437D01*
X11576354Y3399688D01*
X11575592Y3403600D01*
X11576354Y3407511D01*
X11578539Y3410762D01*
X11584432Y3416706D01*
X11595658Y3430524D01*
X11605361Y3445459D01*
X11613438Y3461359D01*
X11619839Y3477971D01*
X11624462Y3495192D01*
X11627256Y3512820D01*
X11628170Y3530600D01*
X11627256Y3548379D01*
X11624462Y3566007D01*
X11619839Y3583228D01*
X11613438Y3599840D01*
X11605361Y3615740D01*
X11595658Y3630676D01*
X11584432Y3644493D01*
X11571833Y3657092D01*
X11558016Y3668318D01*
X11543080Y3678021D01*
X11527180Y3686098D01*
X11510568Y3692499D01*
X11493347Y3697122D01*
X11475720Y3699916D01*
X11457940Y3700830D01*
X11440160Y3699916D01*
X11422532Y3697122D01*
X11405311Y3692499D01*
X11388699Y3686098D01*
X11372799Y3678021D01*
X11357864Y3668318D01*
X11344046Y3657092D01*
X11331448Y3644493D01*
X11320221Y3630676D01*
X11310518Y3615740D01*
X11302441Y3599840D01*
X11296040Y3583228D01*
X11291417Y3566007D01*
X11288623Y3548379D01*
X11287709Y3530600D01*
X11288623Y3512820D01*
X11291417Y3495192D01*
X11296040Y3477971D01*
X11302441Y3461359D01*
X11310518Y3445459D01*
X11320221Y3430524D01*
X11331448Y3416706D01*
X11337340Y3410762D01*
X11339525Y3407511D01*
X11340287Y3403600D01*
X11339525Y3399688D01*
X11337340Y3396437D01*
X11331448Y3390493D01*
X11320221Y3376676D01*
X11310518Y3361740D01*
X11302441Y3345840D01*
X11296040Y3329228D01*
X11291417Y3312007D01*
X11288623Y3294379D01*
X11287709Y3276600D01*
X11288623Y3258820D01*
X11291417Y3241192D01*
X11296040Y3223971D01*
X11302441Y3207359D01*
X11310518Y3191459D01*
X11320221Y3176524D01*
X11331448Y3162706D01*
X11337340Y3156762D01*
X11339525Y3153511D01*
X11340287Y3149600D01*
X11339525Y3145688D01*
X11337340Y3142437D01*
X11331448Y3136493D01*
X11320221Y3122676D01*
X11310518Y3107740D01*
X11302441Y3091840D01*
X11296040Y3075228D01*
X11291417Y3058007D01*
X11288623Y3040380D01*
X11287709Y3022600D01*
X11288623Y3004820D01*
X11291417Y2987192D01*
X11296040Y2969971D01*
X11302441Y2953359D01*
X11310518Y2937459D01*
X11320221Y2922524D01*
X11331448Y2908706D01*
X11337340Y2902762D01*
X11339525Y2899511D01*
X11340287Y2895600D01*
X11339525Y2891688D01*
X11337340Y2888437D01*
X11331448Y2882493D01*
X11320221Y2868676D01*
X11310518Y2853740D01*
X11302441Y2837840D01*
X11296040Y2821228D01*
X11291417Y2804007D01*
X11288623Y2786380D01*
X11287709Y2768600D01*
X11288623Y2750820D01*
X11291417Y2733192D01*
X11296040Y2715971D01*
X11302441Y2699359D01*
X11310518Y2683459D01*
X11320221Y2668524D01*
X11331448Y2654706D01*
X11337340Y2648762D01*
X11339525Y2645511D01*
X11340287Y2641600D01*
X11339525Y2637688D01*
X11337340Y2634437D01*
X11331448Y2628493D01*
X11320221Y2614676D01*
X11310518Y2599740D01*
X11302441Y2583840D01*
X11296040Y2567228D01*
X11291417Y2550007D01*
X11288623Y2532380D01*
X11287709Y2514600D01*
X11288623Y2496820D01*
X11291417Y2479192D01*
X11296040Y2461971D01*
X11302441Y2445359D01*
X11310518Y2429459D01*
X11320221Y2414524D01*
X11331448Y2400706D01*
X11337340Y2394762D01*
X11339525Y2391511D01*
X11340287Y2387600D01*
X11339525Y2383688D01*
X11337340Y2380437D01*
X11331448Y2374493D01*
X11320221Y2360676D01*
X11310518Y2345740D01*
X11302441Y2329840D01*
X11296040Y2313228D01*
X11291417Y2296007D01*
X11288623Y2278380D01*
X11287709Y2260600D01*
X11288623Y2242820D01*
X11291417Y2225192D01*
X11296040Y2207971D01*
X11302441Y2191359D01*
X11310518Y2175459D01*
X11320221Y2160524D01*
X11331448Y2146706D01*
X11337340Y2140762D01*
X11339525Y2137511D01*
X11340287Y2133600D01*
X11339525Y2129688D01*
X11337340Y2126437D01*
X11331448Y2120493D01*
X11320221Y2106676D01*
X11310518Y2091740D01*
X11302441Y2075840D01*
X11296040Y2059228D01*
X11291417Y2042007D01*
X11288623Y2024380D01*
X11287709Y2006600D01*
X11288623Y1988820D01*
X11291417Y1971192D01*
X11296040Y1953971D01*
X11302441Y1937359D01*
X11310518Y1921459D01*
X11320221Y1906524D01*
X11331448Y1892706D01*
X11344046Y1880107D01*
X11357864Y1868881D01*
X11372799Y1859178D01*
X11388699Y1851101D01*
X11405311Y1844700D01*
X11422532Y1840077D01*
X11424107Y1839823D01*
X11428120Y1838299D01*
X11431117Y1835200D01*
X11432590Y1831136D01*
X11432235Y1826869D01*
X11430152Y1823110D01*
X11426698Y1820570D01*
X11422481Y1819656D01*
X6807708Y1819656D01*
X6796328Y1818741D01*
X6785609Y1816150D01*
X6775450Y1811934D01*
X6766052Y1806193D01*
X6757670Y1799031D01*
X6750507Y1790649D01*
X6744766Y1781251D01*
X6740550Y1771091D01*
X6737959Y1760372D01*
X6737045Y1748993D01*
X6737045Y1315669D01*
X6737959Y1304290D01*
X6740550Y1293571D01*
X6744766Y1283411D01*
X6750507Y1274013D01*
X6757670Y1265631D01*
X6766052Y1258468D01*
X6775450Y1252728D01*
X6785609Y1248511D01*
X6796328Y1245920D01*
G37*
G36*
X6393637Y1376222D02*
G01*
X6406540Y1381201D01*
X6422440Y1389278D01*
X6437376Y1398981D01*
X6451193Y1410208D01*
X6463792Y1422806D01*
X6475018Y1436624D01*
X6484721Y1451559D01*
X6492798Y1467459D01*
X6497777Y1480362D01*
X6393637Y1480362D01*
G37*
G36*
X9121597Y1967280D02*
G01*
X9134500Y1972259D01*
X9150400Y1980336D01*
X9165336Y1990039D01*
X9179153Y2001266D01*
X9191752Y2013864D01*
X9202978Y2027682D01*
X9212681Y2042617D01*
X9220758Y2058517D01*
X9225737Y2071420D01*
X9121597Y2071420D01*
G37*
G36*
X9008922Y1967280D02*
G01*
X9008922Y2071420D01*
X8904782Y2071420D01*
X8909761Y2058517D01*
X8917838Y2042617D01*
X8927541Y2027682D01*
X8938768Y2013864D01*
X8951366Y2001266D01*
X8965184Y1990039D01*
X8980119Y1980336D01*
X8996019Y1972259D01*
G37*
G36*
X11281206Y6619392D02*
G01*
X11400993Y6619392D01*
X11412372Y6620306D01*
X11423091Y6622846D01*
X11433251Y6627063D01*
X11442649Y6632854D01*
X11451336Y6640271D01*
X11535968Y6724903D01*
X11543385Y6733590D01*
X11549176Y6742988D01*
X11553393Y6753148D01*
X11555933Y6763867D01*
X11556847Y6775246D01*
X11556847Y6895033D01*
X11555933Y6906412D01*
X11553393Y6917131D01*
X11549176Y6927291D01*
X11543385Y6936689D01*
X11535968Y6945375D01*
X11451336Y7030008D01*
X11442649Y7037425D01*
X11433251Y7043216D01*
X11423091Y7047433D01*
X11412372Y7049973D01*
X11400993Y7050887D01*
X11281206Y7050887D01*
X11269827Y7049973D01*
X11259108Y7047433D01*
X11248948Y7043216D01*
X11239550Y7037425D01*
X11230864Y7030008D01*
X11146231Y6945375D01*
X11138814Y6936689D01*
X11133023Y6927291D01*
X11128806Y6917131D01*
X11126266Y6906412D01*
X11125352Y6895033D01*
X11125352Y6775246D01*
X11126266Y6763867D01*
X11128806Y6753148D01*
X11133023Y6742988D01*
X11138814Y6733590D01*
X11146231Y6724903D01*
X11230864Y6640271D01*
X11239550Y6632854D01*
X11248948Y6627063D01*
X11259108Y6622846D01*
X11269827Y6620306D01*
G37*
G36*
X623519Y7972298D02*
G01*
X646480Y7972298D01*
X669340Y7974228D01*
X691946Y7978140D01*
X714146Y7983880D01*
X735787Y7991551D01*
X756666Y8001000D01*
X776681Y8012175D01*
X795680Y8025028D01*
X813562Y8039455D01*
X830122Y8055305D01*
X845261Y8072526D01*
X858926Y8090966D01*
X870915Y8110524D01*
X881278Y8130997D01*
X889812Y8152282D01*
X896518Y8174228D01*
X901344Y8196630D01*
X904290Y8219389D01*
X905256Y8242300D01*
X905002Y8249056D01*
X905256Y8255000D01*
X904290Y8277910D01*
X901344Y8300669D01*
X896518Y8323072D01*
X889812Y8345017D01*
X881278Y8366302D01*
X870915Y8386775D01*
X858926Y8406333D01*
X845261Y8424773D01*
X830122Y8441994D01*
X813562Y8457844D01*
X795680Y8472271D01*
X776681Y8485124D01*
X756666Y8496300D01*
X735787Y8505748D01*
X714146Y8513419D01*
X691946Y8519160D01*
X669340Y8523071D01*
X646480Y8525002D01*
X623519Y8525002D01*
X600659Y8523071D01*
X578053Y8519160D01*
X555853Y8513419D01*
X534212Y8505748D01*
X513334Y8496300D01*
X493318Y8485124D01*
X474319Y8472271D01*
X456438Y8457844D01*
X439877Y8441994D01*
X424738Y8424773D01*
X411073Y8406333D01*
X399084Y8386775D01*
X388721Y8366302D01*
X380187Y8345017D01*
X373481Y8323072D01*
X368655Y8300669D01*
X365709Y8277910D01*
X364744Y8255000D01*
X364998Y8248243D01*
X364744Y8242300D01*
X365709Y8219389D01*
X368655Y8196630D01*
X373481Y8174228D01*
X380187Y8152282D01*
X388721Y8130997D01*
X399084Y8110524D01*
X411073Y8090966D01*
X424738Y8072526D01*
X439877Y8055305D01*
X456438Y8039455D01*
X474319Y8025028D01*
X493318Y8012175D01*
X513334Y8001000D01*
X534212Y7991551D01*
X555853Y7983880D01*
X578053Y7978140D01*
X600659Y7974228D01*
G37*
G36*
X11545519Y7984998D02*
G01*
X11568480Y7984998D01*
X11591340Y7986928D01*
X11613946Y7990840D01*
X11636146Y7996580D01*
X11657787Y8004251D01*
X11678666Y8013700D01*
X11698681Y8024875D01*
X11717680Y8037728D01*
X11735562Y8052155D01*
X11752122Y8068005D01*
X11767261Y8085226D01*
X11780926Y8103666D01*
X11792915Y8123224D01*
X11803278Y8143697D01*
X11811812Y8164982D01*
X11818518Y8186928D01*
X11823344Y8209330D01*
X11826290Y8232089D01*
X11827256Y8255000D01*
X11826290Y8277910D01*
X11823344Y8300669D01*
X11818518Y8323072D01*
X11811812Y8345017D01*
X11803278Y8366302D01*
X11792915Y8386775D01*
X11780926Y8406333D01*
X11767261Y8424773D01*
X11752122Y8441994D01*
X11735562Y8457844D01*
X11717680Y8472271D01*
X11698681Y8485124D01*
X11678666Y8496300D01*
X11657787Y8505748D01*
X11636146Y8513419D01*
X11613946Y8519160D01*
X11591340Y8523071D01*
X11568480Y8525002D01*
X11545519Y8525002D01*
X11522659Y8523071D01*
X11500053Y8519160D01*
X11477853Y8513419D01*
X11456212Y8505748D01*
X11435334Y8496300D01*
X11415318Y8485124D01*
X11396319Y8472271D01*
X11378438Y8457844D01*
X11361877Y8441994D01*
X11346738Y8424773D01*
X11333073Y8406333D01*
X11321084Y8386775D01*
X11310721Y8366302D01*
X11302187Y8345017D01*
X11295481Y8323072D01*
X11290655Y8300669D01*
X11287709Y8277910D01*
X11286744Y8255000D01*
X11287709Y8232089D01*
X11290655Y8209330D01*
X11295481Y8186928D01*
X11302187Y8164982D01*
X11310721Y8143697D01*
X11321084Y8123224D01*
X11333073Y8103666D01*
X11346738Y8085226D01*
X11361877Y8068005D01*
X11378438Y8052155D01*
X11396319Y8037728D01*
X11415318Y8024875D01*
X11435334Y8013700D01*
X11456212Y8004251D01*
X11477853Y7996580D01*
X11500053Y7990840D01*
X11522659Y7986928D01*
G37*

%LPD*%
G36*
X11340998Y6731711D02*
G01*
X11337086Y6732524D01*
X11333784Y6734708D01*
X11331600Y6738010D01*
X11330838Y6741871D01*
X11330838Y6824827D01*
X11247882Y6824827D01*
X11243970Y6825640D01*
X11240668Y6827824D01*
X11238484Y6831126D01*
X11237722Y6835241D01*
X11238484Y6839153D01*
X11240668Y6842455D01*
X11243970Y6844639D01*
X11247882Y6845401D01*
X11330838Y6845401D01*
X11330838Y6928358D01*
X11331600Y6932269D01*
X11333784Y6935571D01*
X11337086Y6937756D01*
X11341252Y6938518D01*
X11345113Y6937756D01*
X11348415Y6935571D01*
X11350599Y6932269D01*
X11351412Y6928358D01*
X11351412Y6845401D01*
X11434368Y6845401D01*
X11438229Y6844639D01*
X11441531Y6842455D01*
X11443716Y6839153D01*
X11444528Y6834987D01*
X11443716Y6831126D01*
X11441531Y6827824D01*
X11438229Y6825640D01*
X11434368Y6824827D01*
X11351412Y6824827D01*
X11351412Y6741871D01*
X11350599Y6738010D01*
X11348415Y6734708D01*
X11345113Y6732524D01*
G37*

%LPD*%
G36*
X4766056Y1700733D02*
G01*
X4762500Y1701800D01*
X4759553Y1704035D01*
X4757623Y1707184D01*
X4756962Y1710842D01*
X4756962Y1734362D01*
X4733442Y1734362D01*
X4729784Y1735023D01*
X4726635Y1736953D01*
X4724400Y1739900D01*
X4723333Y1743456D01*
X4723638Y1747164D01*
X4725822Y1755292D01*
X4728616Y1772920D01*
X4729530Y1790700D01*
X4728616Y1808480D01*
X4725822Y1826107D01*
X4723638Y1834235D01*
X4723333Y1837943D01*
X4724400Y1841500D01*
X4726635Y1844446D01*
X4729784Y1846376D01*
X4733442Y1847037D01*
X4756962Y1847037D01*
X4756962Y1951177D01*
X4744059Y1946198D01*
X4728159Y1938121D01*
X4713224Y1928418D01*
X4699406Y1917192D01*
X4696917Y1914753D01*
X4693615Y1912518D01*
X4689703Y1911756D01*
X4685842Y1912518D01*
X4682540Y1914753D01*
X4680305Y1918004D01*
X4679543Y1921916D01*
X4679543Y1955647D01*
X4679340Y1963064D01*
X4678680Y1970278D01*
X4677562Y1977491D01*
X4676038Y1984552D01*
X4674108Y1991563D01*
X4671720Y1998421D01*
X4668977Y2005177D01*
X4665776Y2011680D01*
X4662220Y2018030D01*
X4658258Y2024125D01*
X4653940Y2029968D01*
X4649317Y2035556D01*
X4644237Y2040940D01*
X4638344Y2046782D01*
X4636160Y2050084D01*
X4635398Y2053996D01*
X4636160Y2057857D01*
X4638344Y2061159D01*
X4641646Y2063394D01*
X4645558Y2064156D01*
X4860899Y2064156D01*
X4864760Y2063394D01*
X4868062Y2061159D01*
X4944059Y1985162D01*
X4946294Y1981860D01*
X4947056Y1977999D01*
X4947056Y1921916D01*
X4946294Y1918004D01*
X4944059Y1914753D01*
X4940757Y1912518D01*
X4936896Y1911756D01*
X4932984Y1912518D01*
X4929682Y1914753D01*
X4927193Y1917192D01*
X4913376Y1928418D01*
X4898440Y1938121D01*
X4882540Y1946198D01*
X4869637Y1951177D01*
X4869637Y1847037D01*
X4893157Y1847037D01*
X4896815Y1846376D01*
X4899964Y1844446D01*
X4902200Y1841500D01*
X4903266Y1837943D01*
X4902962Y1834235D01*
X4900777Y1826107D01*
X4897983Y1808480D01*
X4897069Y1790700D01*
X4897983Y1772920D01*
X4900777Y1755292D01*
X4902962Y1747164D01*
X4903266Y1743456D01*
X4902200Y1739900D01*
X4899964Y1736953D01*
X4896815Y1735023D01*
X4893157Y1734362D01*
X4869637Y1734362D01*
X4869637Y1710842D01*
X4868976Y1707184D01*
X4867046Y1704035D01*
X4864100Y1701800D01*
X4860544Y1700733D01*
X4856835Y1701038D01*
X4848707Y1703222D01*
X4831080Y1706016D01*
X4813300Y1706930D01*
X4795520Y1706016D01*
X4777892Y1703222D01*
X4769764Y1701038D01*
G37*

%LPD*%
G36*
X1984400Y776579D02*
G01*
X1980539Y777392D01*
X1977237Y779576D01*
X1875840Y880973D01*
X1873605Y884275D01*
X1872843Y888136D01*
X1872843Y1142847D01*
X1872640Y1150264D01*
X1871980Y1157478D01*
X1870862Y1164691D01*
X1869338Y1171752D01*
X1867407Y1178763D01*
X1865020Y1185621D01*
X1862277Y1192377D01*
X1859076Y1198880D01*
X1855520Y1205230D01*
X1851558Y1211326D01*
X1847240Y1217168D01*
X1842617Y1222756D01*
X1837537Y1228140D01*
X1558340Y1507337D01*
X1552956Y1512417D01*
X1547368Y1517040D01*
X1541526Y1521358D01*
X1535430Y1525320D01*
X1529080Y1528876D01*
X1522577Y1532077D01*
X1515821Y1534820D01*
X1508963Y1537208D01*
X1502003Y1539138D01*
X1494891Y1540662D01*
X1487678Y1541780D01*
X1480464Y1542440D01*
X1473047Y1542643D01*
X1323390Y1542643D01*
X1319530Y1543405D01*
X1316228Y1545640D01*
X1314043Y1548942D01*
X1313230Y1552803D01*
X1313230Y1594662D01*
X1199337Y1594662D01*
X1199337Y1575155D01*
X1198676Y1571498D01*
X1196746Y1568348D01*
X1193800Y1566113D01*
X1190244Y1565046D01*
X1186535Y1565351D01*
X1178407Y1567535D01*
X1160780Y1570329D01*
X1143000Y1571244D01*
X1125220Y1570329D01*
X1107592Y1567535D01*
X1099413Y1565351D01*
X1095756Y1565046D01*
X1092200Y1566113D01*
X1089253Y1568348D01*
X1087323Y1571498D01*
X1086662Y1575155D01*
X1086662Y1594662D01*
X972718Y1594662D01*
X972718Y1551381D01*
X973632Y1540002D01*
X976223Y1529283D01*
X980440Y1519123D01*
X986180Y1509725D01*
X996645Y1497634D01*
X997813Y1494231D01*
X997661Y1490573D01*
X995578Y1486103D01*
X987501Y1470253D01*
X981100Y1453591D01*
X976477Y1436420D01*
X973683Y1418793D01*
X972769Y1401013D01*
X973683Y1383182D01*
X976477Y1365605D01*
X981100Y1348384D01*
X987501Y1331772D01*
X995578Y1315872D01*
X1005281Y1300937D01*
X1016508Y1287068D01*
X1020368Y1283208D01*
X1022603Y1279906D01*
X1023366Y1275994D01*
X1022603Y1272133D01*
X1020368Y1268831D01*
X1016508Y1264920D01*
X1005281Y1251051D01*
X995578Y1236116D01*
X987450Y1220266D01*
X981100Y1203604D01*
X976477Y1186383D01*
X973683Y1168806D01*
X972769Y1150975D01*
X973683Y1133195D01*
X976477Y1115618D01*
X977544Y1111656D01*
X977747Y1107236D01*
X976071Y1103172D01*
X972819Y1100226D01*
X968603Y1098905D01*
X964234Y1099464D01*
X960526Y1101852D01*
X682040Y1380337D01*
X679805Y1383639D01*
X679043Y1387500D01*
X679043Y5711799D01*
X679805Y5715660D01*
X682040Y5718962D01*
X1050137Y6087059D01*
X1053439Y6089294D01*
X1057300Y6090056D01*
X1235506Y6090056D01*
X1239418Y6089294D01*
X1242720Y6087059D01*
X1244904Y6083757D01*
X1247140Y6078423D01*
X1252880Y6069025D01*
X1260043Y6060643D01*
X1268425Y6053480D01*
X1277823Y6047740D01*
X1287983Y6043523D01*
X1298702Y6040932D01*
X1310081Y6040018D01*
X1509318Y6040018D01*
X1520698Y6040932D01*
X1531416Y6043523D01*
X1541576Y6047740D01*
X1550974Y6053480D01*
X1559356Y6060643D01*
X1561642Y6063335D01*
X1564487Y6065621D01*
X1567891Y6066790D01*
X1571548Y6066637D01*
X1574901Y6065266D01*
X1578559Y6062878D01*
X1594459Y6054801D01*
X1607362Y6049822D01*
X1607362Y6153962D01*
X1590141Y6153962D01*
X1586230Y6154724D01*
X1582928Y6156909D01*
X1580743Y6160211D01*
X1579981Y6164122D01*
X1579981Y6256477D01*
X1580743Y6260388D01*
X1582928Y6263690D01*
X1586230Y6265875D01*
X1590141Y6266637D01*
X1607362Y6266637D01*
X1607362Y6370777D01*
X1594459Y6365798D01*
X1578559Y6357721D01*
X1574901Y6355334D01*
X1571548Y6353962D01*
X1567891Y6353810D01*
X1564487Y6354978D01*
X1561642Y6357264D01*
X1559356Y6359956D01*
X1550974Y6367119D01*
X1541576Y6372860D01*
X1536242Y6375095D01*
X1532940Y6377279D01*
X1530705Y6380581D01*
X1529943Y6384493D01*
X1529943Y7680299D01*
X1530705Y7684160D01*
X1532940Y7687462D01*
X1579168Y7733690D01*
X1582826Y7736027D01*
X1587144Y7736636D01*
X1591310Y7735366D01*
X1594561Y7732471D01*
X1596288Y7728508D01*
X1596237Y7724140D01*
X1594358Y7716266D01*
X1593443Y7704886D01*
X1593443Y7599172D01*
X1720850Y7599172D01*
X1720850Y7775549D01*
X1664106Y7775549D01*
X1652727Y7774635D01*
X1644853Y7772755D01*
X1640484Y7772704D01*
X1636522Y7774431D01*
X1633626Y7777683D01*
X1632356Y7781848D01*
X1632966Y7786166D01*
X1635302Y7789824D01*
X2053437Y8207959D01*
X2056739Y8210194D01*
X2060600Y8210956D01*
X3576320Y8210956D01*
X3580536Y8210042D01*
X3583990Y8207451D01*
X3586073Y8203641D01*
X3586378Y8199374D01*
X3584854Y8195309D01*
X3581806Y8192262D01*
X3576574Y8188858D01*
X3570732Y8184540D01*
X3565144Y8179917D01*
X3559759Y8174837D01*
X3248152Y7863230D01*
X3244850Y7860995D01*
X3240989Y7860233D01*
X3098800Y7860233D01*
X3087420Y7859369D01*
X3076702Y7856778D01*
X3066542Y7852562D01*
X3057144Y7846822D01*
X3048762Y7839659D01*
X3041599Y7831277D01*
X3035858Y7821879D01*
X3031642Y7811668D01*
X3029051Y7800949D01*
X3028137Y7789570D01*
X3028137Y7770418D01*
X3027375Y7766507D01*
X3025190Y7763205D01*
X3021888Y7761020D01*
X3017977Y7760258D01*
X2599893Y7760258D01*
X2597150Y7760614D01*
X2594559Y7761731D01*
X2584602Y7767878D01*
X2574391Y7772095D01*
X2563672Y7774635D01*
X2552293Y7775549D01*
X2299106Y7775549D01*
X2287727Y7774635D01*
X2277008Y7772095D01*
X2266797Y7767878D01*
X2257399Y7762087D01*
X2249068Y7754975D01*
X2241905Y7746593D01*
X2236114Y7737195D01*
X2231898Y7726984D01*
X2229358Y7716266D01*
X2228443Y7704886D01*
X2228443Y7255713D01*
X2229358Y7244334D01*
X2231898Y7233615D01*
X2236114Y7223404D01*
X2241905Y7214006D01*
X2249068Y7205624D01*
X2257399Y7198512D01*
X2266797Y7192721D01*
X2275586Y7189114D01*
X2278888Y7186879D01*
X2281072Y7183628D01*
X2281834Y7179716D01*
X2281072Y7175804D01*
X2278888Y7172553D01*
X2275586Y7170318D01*
X2271674Y7169556D01*
X1947113Y7169556D01*
X1945030Y7169403D01*
X1941017Y7169912D01*
X1937461Y7171944D01*
X1935022Y7175195D01*
X1934108Y7179157D01*
X1934768Y7183221D01*
X1937004Y7186625D01*
X1940356Y7188911D01*
X1949602Y7192721D01*
X1959000Y7198512D01*
X1967331Y7205624D01*
X1974494Y7214006D01*
X1980285Y7223404D01*
X1984502Y7233615D01*
X1987042Y7244334D01*
X1987956Y7255713D01*
X1987956Y7361428D01*
X1860550Y7361428D01*
X1860550Y7185050D01*
X1917293Y7185050D01*
X1919376Y7185202D01*
X1923389Y7184694D01*
X1926945Y7182662D01*
X1929333Y7179360D01*
X1930298Y7175398D01*
X1929638Y7171385D01*
X1927402Y7167981D01*
X1924050Y7165695D01*
X1914804Y7161885D01*
X1905406Y7156094D01*
X1897024Y7148931D01*
X1889912Y7140600D01*
X1884121Y7131202D01*
X1879904Y7120991D01*
X1877364Y7110272D01*
X1876450Y7098893D01*
X1876450Y6845706D01*
X1877364Y6834327D01*
X1879904Y6823608D01*
X1884121Y6813397D01*
X1889912Y6803999D01*
X1897024Y6795668D01*
X1905406Y6788505D01*
X1914804Y6782714D01*
X1925015Y6778498D01*
X1935734Y6775958D01*
X1947113Y6775043D01*
X2396286Y6775043D01*
X2407666Y6775958D01*
X2418384Y6778498D01*
X2428595Y6782714D01*
X2437993Y6788505D01*
X2446375Y6795668D01*
X2453487Y6803999D01*
X2459278Y6813397D01*
X2463495Y6823608D01*
X2466035Y6834327D01*
X2466949Y6845706D01*
X2466949Y7098893D01*
X2466035Y7110272D01*
X2463495Y7120991D01*
X2459278Y7131202D01*
X2453487Y7140600D01*
X2446375Y7148931D01*
X2437993Y7156094D01*
X2428595Y7161885D01*
X2419807Y7165492D01*
X2416505Y7167676D01*
X2414320Y7170978D01*
X2413558Y7174890D01*
X2414320Y7178751D01*
X2416505Y7182053D01*
X2419807Y7184288D01*
X2423718Y7185050D01*
X2552293Y7185050D01*
X2563672Y7185964D01*
X2574391Y7188504D01*
X2584602Y7192721D01*
X2594000Y7198512D01*
X2602331Y7205624D01*
X2609494Y7214006D01*
X2615285Y7223404D01*
X2619502Y7233615D01*
X2622042Y7244334D01*
X2622956Y7255713D01*
X2622956Y7503261D01*
X2623718Y7507173D01*
X2625953Y7510475D01*
X2632252Y7516774D01*
X2635504Y7518958D01*
X2639415Y7519720D01*
X3017977Y7519720D01*
X3021888Y7518958D01*
X3025190Y7516774D01*
X3027375Y7513472D01*
X3028137Y7509560D01*
X3028137Y7490409D01*
X3029051Y7478979D01*
X3031642Y7468311D01*
X3035858Y7458100D01*
X3041599Y7448702D01*
X3048762Y7440320D01*
X3057144Y7433157D01*
X3066542Y7427417D01*
X3076702Y7423200D01*
X3087420Y7420609D01*
X3098800Y7419746D01*
X3398012Y7419746D01*
X3409391Y7420609D01*
X3420110Y7423200D01*
X3430270Y7427417D01*
X3439668Y7433157D01*
X3448050Y7440320D01*
X3455212Y7448702D01*
X3460953Y7458100D01*
X3465169Y7468311D01*
X3467760Y7478979D01*
X3468674Y7490409D01*
X3468674Y7739380D01*
X3469436Y7743291D01*
X3471621Y7746593D01*
X3691737Y7966659D01*
X3695039Y7968894D01*
X3698900Y7969656D01*
X9788499Y7969656D01*
X9792360Y7968894D01*
X9795662Y7966659D01*
X9950500Y7811820D01*
X9952888Y7808061D01*
X9953447Y7803642D01*
X9952024Y7799425D01*
X9947198Y7791348D01*
X9939020Y7774025D01*
X9932568Y7755991D01*
X9927894Y7737398D01*
X9925100Y7718450D01*
X9924135Y7699298D01*
X9925100Y7680147D01*
X9927894Y7661198D01*
X9932568Y7642606D01*
X9939020Y7624572D01*
X9947198Y7607249D01*
X9957054Y7590840D01*
X9968484Y7575448D01*
X9976358Y7566761D01*
X9978339Y7563408D01*
X9978948Y7559598D01*
X9978085Y7555788D01*
X9975900Y7552639D01*
X9972649Y7550505D01*
X9968839Y7549743D01*
X9223146Y7549743D01*
X9219285Y7550505D01*
X9215983Y7552740D01*
X9096654Y7672070D01*
X9094317Y7675625D01*
X9093657Y7679740D01*
X9094622Y7699298D01*
X9093708Y7718450D01*
X9090863Y7737398D01*
X9086240Y7755991D01*
X9079788Y7774025D01*
X9071559Y7791348D01*
X9061704Y7807756D01*
X9050324Y7823149D01*
X9037421Y7837373D01*
X9023248Y7850225D01*
X9007856Y7861655D01*
X8991447Y7871510D01*
X8974124Y7879689D01*
X8956040Y7886141D01*
X8937498Y7890814D01*
X8918498Y7893608D01*
X8899398Y7894523D01*
X8880246Y7893608D01*
X8861298Y7890814D01*
X8842705Y7886141D01*
X8824671Y7879689D01*
X8807348Y7871510D01*
X8790889Y7861655D01*
X8775547Y7850225D01*
X8761323Y7837373D01*
X8748471Y7823149D01*
X8737041Y7807756D01*
X8727186Y7791348D01*
X8719007Y7774025D01*
X8712555Y7755991D01*
X8707882Y7737398D01*
X8705850Y7723530D01*
X8704681Y7720126D01*
X8702446Y7717332D01*
X8699347Y7715503D01*
X8695791Y7714843D01*
X8191652Y7714843D01*
X8184235Y7714640D01*
X8177022Y7713980D01*
X8169808Y7712862D01*
X8162747Y7711338D01*
X8155736Y7709408D01*
X8148878Y7707020D01*
X8142122Y7704277D01*
X8135620Y7701076D01*
X8129270Y7697520D01*
X8123174Y7693558D01*
X8117331Y7689240D01*
X8111744Y7684617D01*
X8106359Y7679537D01*
X8027212Y7600391D01*
X8023961Y7598206D01*
X8020050Y7597444D01*
X8016138Y7598206D01*
X8012887Y7600391D01*
X7888376Y7724902D01*
X7882940Y7729981D01*
X7877352Y7734655D01*
X7871510Y7738973D01*
X7865414Y7742885D01*
X7859115Y7746492D01*
X7852562Y7749641D01*
X7845856Y7752435D01*
X7838998Y7754772D01*
X7831988Y7756753D01*
X7824876Y7758277D01*
X7817713Y7759344D01*
X7810449Y7760004D01*
X7803032Y7760258D01*
X7478826Y7760258D01*
X7474915Y7761020D01*
X7471613Y7763205D01*
X7469428Y7766507D01*
X7468666Y7770418D01*
X7468666Y7789570D01*
X7467752Y7800949D01*
X7465161Y7811668D01*
X7460945Y7821879D01*
X7455204Y7831277D01*
X7448042Y7839659D01*
X7439659Y7846822D01*
X7430262Y7852562D01*
X7420102Y7856778D01*
X7409383Y7859369D01*
X7398003Y7860233D01*
X7098792Y7860233D01*
X7087412Y7859369D01*
X7076694Y7856778D01*
X7066534Y7852562D01*
X7057136Y7846822D01*
X7048753Y7839659D01*
X7041591Y7831277D01*
X7035850Y7821879D01*
X7031634Y7811668D01*
X7029043Y7800949D01*
X7028129Y7789570D01*
X7028129Y7490409D01*
X7029043Y7478979D01*
X7031634Y7468311D01*
X7035850Y7458100D01*
X7041591Y7448702D01*
X7048753Y7440320D01*
X7057136Y7433157D01*
X7066534Y7427417D01*
X7076694Y7423200D01*
X7087412Y7420609D01*
X7098792Y7419746D01*
X7398003Y7419746D01*
X7409383Y7420609D01*
X7420102Y7423200D01*
X7430262Y7427417D01*
X7439659Y7433157D01*
X7448042Y7440320D01*
X7455204Y7448702D01*
X7460945Y7458100D01*
X7465161Y7468311D01*
X7467752Y7478979D01*
X7468666Y7490409D01*
X7468666Y7509560D01*
X7469428Y7513472D01*
X7471613Y7516774D01*
X7474915Y7518958D01*
X7478826Y7519720D01*
X7749184Y7519720D01*
X7753096Y7518958D01*
X7756398Y7516774D01*
X7845298Y7427823D01*
X7847482Y7424674D01*
X7848295Y7420914D01*
X7848752Y7403033D01*
X7851089Y7384846D01*
X7855305Y7367016D01*
X7861350Y7349693D01*
X7869123Y7333030D01*
X7878572Y7317333D01*
X7889544Y7302652D01*
X7902041Y7289190D01*
X7905242Y7285177D01*
X7906156Y7280960D01*
X7906156Y7048652D01*
X7906359Y7041235D01*
X7907020Y7034022D01*
X7908137Y7026808D01*
X7909661Y7019696D01*
X7911592Y7012736D01*
X7913979Y7005878D01*
X7916722Y6999122D01*
X7919923Y6992620D01*
X7923479Y6986270D01*
X7927441Y6980174D01*
X7931759Y6974331D01*
X7936382Y6968744D01*
X7941462Y6963359D01*
X8071002Y6833819D01*
X8073288Y6830314D01*
X8073948Y6826148D01*
X8072881Y6822033D01*
X8070189Y6818782D01*
X8066430Y6816852D01*
X8062264Y6816598D01*
X8044738Y6819341D01*
X8026400Y6820306D01*
X8008061Y6819341D01*
X7989925Y6816547D01*
X7972196Y6811873D01*
X7955025Y6805371D01*
X7938617Y6797192D01*
X7923174Y6787337D01*
X7908747Y6775958D01*
X7895640Y6763156D01*
X7883855Y6749034D01*
X7873644Y6733844D01*
X7865008Y6717639D01*
X7858099Y6700621D01*
X7852968Y6683044D01*
X7849666Y6664959D01*
X7848244Y6646672D01*
X7848752Y6628333D01*
X7851089Y6610146D01*
X7855305Y6592316D01*
X7861350Y6574993D01*
X7869123Y6558330D01*
X7878572Y6542633D01*
X7889544Y6527952D01*
X7902041Y6514490D01*
X7915808Y6502400D01*
X7930743Y6491732D01*
X7946745Y6482689D01*
X7963560Y6475374D01*
X7981035Y6469786D01*
X7998968Y6466027D01*
X8017205Y6464147D01*
X8035594Y6464147D01*
X8053831Y6466027D01*
X8071764Y6469786D01*
X8089239Y6475374D01*
X8106054Y6482689D01*
X8122056Y6491732D01*
X8136991Y6502400D01*
X8150758Y6514490D01*
X8154568Y6518605D01*
X8157972Y6520992D01*
X8162036Y6521856D01*
X8694572Y6521856D01*
X8698585Y6521043D01*
X8701938Y6518706D01*
X8704122Y6515201D01*
X8704732Y6511188D01*
X8704122Y6499301D01*
X8705088Y6480149D01*
X8707882Y6461201D01*
X8712555Y6442608D01*
X8719007Y6424574D01*
X8727186Y6407251D01*
X8737041Y6390843D01*
X8748471Y6375450D01*
X8761323Y6361226D01*
X8775547Y6348374D01*
X8790889Y6336944D01*
X8807348Y6327089D01*
X8824671Y6318910D01*
X8842705Y6312458D01*
X8861298Y6307785D01*
X8880246Y6304991D01*
X8899398Y6304076D01*
X8918956Y6305042D01*
X8923121Y6304330D01*
X8926626Y6302044D01*
X9325559Y5903112D01*
X9327794Y5899810D01*
X9328556Y5895949D01*
X9328556Y4407052D01*
X9328759Y4399635D01*
X9329420Y4392422D01*
X9330537Y4385208D01*
X9332061Y4378096D01*
X9333992Y4371136D01*
X9336379Y4364278D01*
X9339122Y4357522D01*
X9342323Y4351020D01*
X9345879Y4344670D01*
X9349841Y4338574D01*
X9354159Y4332732D01*
X9358782Y4327144D01*
X9363862Y4321759D01*
X9439859Y4245762D01*
X9445244Y4240682D01*
X9450832Y4236059D01*
X9456674Y4231741D01*
X9462770Y4227779D01*
X9469120Y4224223D01*
X9475622Y4221022D01*
X9482378Y4218279D01*
X9489236Y4215892D01*
X9496247Y4213961D01*
X9503308Y4212437D01*
X9510522Y4211320D01*
X9517735Y4210659D01*
X9525152Y4210456D01*
X10058247Y4210456D01*
X10065664Y4210659D01*
X10072878Y4211320D01*
X10080091Y4212437D01*
X10087203Y4213961D01*
X10094163Y4215892D01*
X10101021Y4218279D01*
X10107777Y4221022D01*
X10114280Y4224223D01*
X10120630Y4227779D01*
X10126726Y4231741D01*
X10132568Y4236059D01*
X10138156Y4240682D01*
X10143540Y4245762D01*
X10257637Y4359859D01*
X10262717Y4365244D01*
X10267340Y4370832D01*
X10271658Y4376674D01*
X10275620Y4382770D01*
X10279176Y4389120D01*
X10282377Y4395622D01*
X10285120Y4402378D01*
X10287508Y4409236D01*
X10289438Y4416196D01*
X10290962Y4423308D01*
X10292080Y4430522D01*
X10292740Y4437735D01*
X10292943Y4445152D01*
X10292943Y5511495D01*
X10293705Y5515356D01*
X10295839Y5518658D01*
X10299090Y5520842D01*
X10302900Y5521655D01*
X10306761Y5520994D01*
X10310114Y5518912D01*
X10315956Y5513374D01*
X10318292Y5510022D01*
X10319156Y5506008D01*
X10319156Y4940452D01*
X10319359Y4933035D01*
X10320020Y4925822D01*
X10321137Y4918608D01*
X10322661Y4911496D01*
X10324592Y4904536D01*
X10326979Y4897678D01*
X10329722Y4890922D01*
X10332923Y4884420D01*
X10336479Y4878070D01*
X10340441Y4871974D01*
X10344759Y4866132D01*
X10349382Y4860544D01*
X10354462Y4855159D01*
X10609275Y4600346D01*
X10611408Y4597298D01*
X10612272Y4593691D01*
X10612983Y4579620D01*
X10615777Y4561992D01*
X10620400Y4544771D01*
X10626801Y4528159D01*
X10634878Y4512259D01*
X10644581Y4497324D01*
X10655808Y4483506D01*
X10668406Y4470908D01*
X10682224Y4459681D01*
X10697159Y4449978D01*
X10713059Y4441901D01*
X10729671Y4435500D01*
X10746892Y4430877D01*
X10764520Y4428083D01*
X10782300Y4427169D01*
X10800080Y4428083D01*
X10817707Y4430877D01*
X10834928Y4435500D01*
X10851540Y4441901D01*
X10867440Y4449978D01*
X10882376Y4459681D01*
X10896193Y4470908D01*
X10908792Y4483506D01*
X10920018Y4497324D01*
X10929721Y4512259D01*
X10937798Y4528159D01*
X10944199Y4544771D01*
X10948822Y4561992D01*
X10951616Y4579620D01*
X10952530Y4597400D01*
X10951616Y4615180D01*
X10948822Y4632807D01*
X10944199Y4650028D01*
X10937798Y4666640D01*
X10929721Y4682540D01*
X10920018Y4697476D01*
X10908792Y4711293D01*
X10896193Y4723892D01*
X10882376Y4735118D01*
X10867440Y4744821D01*
X10851540Y4752898D01*
X10834928Y4759299D01*
X10817707Y4763922D01*
X10800080Y4766716D01*
X10786008Y4767427D01*
X10782401Y4768291D01*
X10779353Y4770424D01*
X10562640Y4987137D01*
X10560405Y4990439D01*
X10559643Y4994300D01*
X10559643Y5506008D01*
X10560507Y5510022D01*
X10562844Y5513374D01*
X10574121Y5524042D01*
X10583875Y5535625D01*
X10592206Y5548274D01*
X10598962Y5561838D01*
X10604144Y5576062D01*
X10607649Y5590794D01*
X10609427Y5605830D01*
X10609427Y5620969D01*
X10607649Y5636006D01*
X10604144Y5650738D01*
X10598962Y5664962D01*
X10592206Y5678525D01*
X10584383Y5690362D01*
X10582910Y5693968D01*
X10582910Y5697931D01*
X10584383Y5701538D01*
X10592206Y5713374D01*
X10598962Y5726938D01*
X10604144Y5741162D01*
X10607649Y5755894D01*
X10609427Y5770930D01*
X10609427Y5786069D01*
X10607649Y5801106D01*
X10604144Y5815838D01*
X10598962Y5830062D01*
X10592206Y5843625D01*
X10584383Y5855462D01*
X10582910Y5859068D01*
X10582910Y5863031D01*
X10584383Y5866638D01*
X10592206Y5878474D01*
X10598962Y5892038D01*
X10604398Y5907227D01*
X10498836Y5907227D01*
X10494518Y5907836D01*
X10479125Y5908751D01*
X10399674Y5908751D01*
X10384282Y5907836D01*
X10379964Y5907227D01*
X10273588Y5907227D01*
X10272369Y5903925D01*
X10270134Y5901182D01*
X10267035Y5899353D01*
X10263581Y5898743D01*
X10173004Y5898743D01*
X10158222Y5897880D01*
X10143947Y5895238D01*
X10130078Y5890920D01*
X10116820Y5884976D01*
X10104374Y5877458D01*
X10092944Y5868517D01*
X10082682Y5858256D01*
X10073741Y5846826D01*
X10066223Y5834380D01*
X10060279Y5821121D01*
X10055961Y5807252D01*
X10053320Y5792978D01*
X10052456Y5778195D01*
X10052456Y4499000D01*
X10051694Y4495139D01*
X10049459Y4491837D01*
X10011562Y4453940D01*
X10008260Y4451705D01*
X10004399Y4450943D01*
X9884308Y4450943D01*
X9880244Y4451807D01*
X9876840Y4454194D01*
X9874707Y4457700D01*
X9874148Y4461814D01*
X9875266Y4465828D01*
X9877907Y4469028D01*
X9880193Y4470908D01*
X9892792Y4483506D01*
X9904018Y4497324D01*
X9913721Y4512259D01*
X9921798Y4528159D01*
X9928199Y4544771D01*
X9932822Y4561992D01*
X9935616Y4579620D01*
X9936530Y4597400D01*
X9935616Y4615180D01*
X9932822Y4632807D01*
X9928199Y4650028D01*
X9921798Y4666640D01*
X9913721Y4682540D01*
X9904018Y4697476D01*
X9892792Y4711293D01*
X9880193Y4723892D01*
X9866376Y4735118D01*
X9851440Y4744821D01*
X9838791Y4751273D01*
X9835896Y4753508D01*
X9833965Y4756658D01*
X9833254Y4760315D01*
X9833254Y5031689D01*
X9833762Y5034788D01*
X9835134Y5037582D01*
X9837013Y5040172D01*
X9844938Y5054549D01*
X9851237Y5069738D01*
X9855758Y5085537D01*
X9858552Y5101691D01*
X9859467Y5118100D01*
X9858552Y5134508D01*
X9855758Y5150662D01*
X9851237Y5166461D01*
X9844938Y5181650D01*
X9837013Y5196027D01*
X9827514Y5209387D01*
X9816541Y5221630D01*
X9804298Y5232603D01*
X9801199Y5234838D01*
X9798507Y5237581D01*
X9797084Y5241188D01*
X9797084Y5245049D01*
X9798507Y5248605D01*
X9801199Y5251399D01*
X9804298Y5253634D01*
X9816541Y5264556D01*
X9827514Y5276799D01*
X9837013Y5290210D01*
X9844938Y5304586D01*
X9851237Y5319725D01*
X9855758Y5335524D01*
X9856317Y5338724D01*
X9857333Y5341670D01*
X9859162Y5344160D01*
X9889337Y5374335D01*
X9894417Y5379770D01*
X9899040Y5385358D01*
X9903358Y5391200D01*
X9907320Y5397296D01*
X9910876Y5403596D01*
X9914077Y5410149D01*
X9916820Y5416854D01*
X9919208Y5423712D01*
X9921138Y5430723D01*
X9922662Y5437835D01*
X9923780Y5444998D01*
X9924440Y5452262D01*
X9924643Y5459679D01*
X9924643Y5679541D01*
X9925405Y5683402D01*
X9927640Y5686704D01*
X9930892Y5690006D01*
X9942118Y5703824D01*
X9951821Y5718759D01*
X9959898Y5734659D01*
X9966299Y5751271D01*
X9970922Y5768492D01*
X9973716Y5786120D01*
X9974630Y5803900D01*
X9973716Y5821680D01*
X9970922Y5839307D01*
X9966299Y5856528D01*
X9959898Y5873140D01*
X9951821Y5889040D01*
X9942118Y5903976D01*
X9930892Y5917793D01*
X9927640Y5921095D01*
X9925405Y5924397D01*
X9924643Y5928258D01*
X9924643Y6130696D01*
X9925405Y6134557D01*
X9927640Y6137859D01*
X9930942Y6140094D01*
X9934803Y6140856D01*
X10791799Y6140856D01*
X10795660Y6140094D01*
X10798962Y6137859D01*
X10989259Y5947562D01*
X10991494Y5944260D01*
X10992256Y5940399D01*
X10992256Y3965600D01*
X10991494Y3961739D01*
X10989259Y3958437D01*
X10748162Y3717340D01*
X10744860Y3715105D01*
X10740999Y3714343D01*
X9576104Y3714343D01*
X9561322Y3713479D01*
X9558578Y3712972D01*
X9554921Y3712972D01*
X9552025Y3713479D01*
X9544964Y3714140D01*
X9537547Y3714343D01*
X8416899Y3714343D01*
X8413038Y3715105D01*
X8409736Y3717340D01*
X8327034Y3800043D01*
X8325154Y3802583D01*
X8324189Y3805580D01*
X8325256Y3828999D01*
X8324291Y3848354D01*
X8321446Y3867454D01*
X8316772Y3886250D01*
X8310219Y3904487D01*
X8301939Y3921963D01*
X8291982Y3938574D01*
X8280450Y3954119D01*
X8267496Y3968496D01*
X8253120Y3981450D01*
X8237575Y3992981D01*
X8220964Y4002938D01*
X8203488Y4011218D01*
X8185251Y4017772D01*
X8166455Y4022445D01*
X8147354Y4025290D01*
X8128000Y4026255D01*
X8108645Y4025290D01*
X8089544Y4022445D01*
X8070748Y4017772D01*
X8052511Y4011218D01*
X8035036Y4002938D01*
X8018424Y3992981D01*
X8002879Y3981450D01*
X7988503Y3968496D01*
X7975549Y3954119D01*
X7964017Y3938574D01*
X7954060Y3921963D01*
X7945780Y3904487D01*
X7939227Y3886250D01*
X7934553Y3867454D01*
X7931708Y3848354D01*
X7930743Y3828999D01*
X7931708Y3809644D01*
X7934553Y3790543D01*
X7939227Y3771747D01*
X7945780Y3753510D01*
X7954060Y3736035D01*
X7964017Y3719423D01*
X7975549Y3703878D01*
X7988503Y3689502D01*
X8002879Y3676548D01*
X8018424Y3665016D01*
X8035036Y3655060D01*
X8052511Y3646779D01*
X8070748Y3640226D01*
X8089544Y3635552D01*
X8108645Y3632708D01*
X8128000Y3631742D01*
X8151418Y3632809D01*
X8154416Y3631844D01*
X8156956Y3629964D01*
X8277758Y3509213D01*
X8284006Y3503371D01*
X8286343Y3500069D01*
X8287258Y3496157D01*
X8286546Y3492195D01*
X8284362Y3488842D01*
X8281060Y3486556D01*
X8277098Y3485743D01*
X6273952Y3485743D01*
X6266535Y3485540D01*
X6259322Y3484879D01*
X6252108Y3483762D01*
X6245047Y3482238D01*
X6238036Y3480308D01*
X6231178Y3477920D01*
X6224422Y3475177D01*
X6217920Y3471976D01*
X6211570Y3468420D01*
X6205474Y3464458D01*
X6199632Y3460140D01*
X6194044Y3455517D01*
X6188659Y3450437D01*
X5490362Y2752140D01*
X5485282Y2746756D01*
X5480659Y2741168D01*
X5476341Y2735326D01*
X5472379Y2729230D01*
X5468823Y2722880D01*
X5465622Y2716377D01*
X5462879Y2709621D01*
X5460492Y2702763D01*
X5458561Y2695752D01*
X5457037Y2688691D01*
X5455920Y2681478D01*
X5455259Y2674264D01*
X5455056Y2666847D01*
X5455056Y2098903D01*
X5454243Y2094941D01*
X5451957Y2091588D01*
X5448503Y2089404D01*
X5444540Y2088743D01*
X5440578Y2089657D01*
X5437327Y2092096D01*
X5435295Y2095550D01*
X5433720Y2100021D01*
X5430977Y2106777D01*
X5427776Y2113280D01*
X5424220Y2119630D01*
X5420258Y2125726D01*
X5415940Y2131568D01*
X5411317Y2137156D01*
X5406237Y2142540D01*
X5101640Y2447137D01*
X5096256Y2452217D01*
X5090668Y2456840D01*
X5084826Y2461158D01*
X5078730Y2465120D01*
X5072380Y2468676D01*
X5065877Y2471877D01*
X5059121Y2474620D01*
X5052263Y2477008D01*
X5045303Y2478938D01*
X5038191Y2480462D01*
X5030978Y2481580D01*
X5023764Y2482240D01*
X5016347Y2482443D01*
X2832252Y2482443D01*
X2824835Y2482240D01*
X2817622Y2481580D01*
X2810408Y2480462D01*
X2803347Y2478938D01*
X2796336Y2477008D01*
X2789478Y2474620D01*
X2782722Y2471877D01*
X2776220Y2468676D01*
X2769870Y2465120D01*
X2763774Y2461158D01*
X2757932Y2456840D01*
X2752344Y2452217D01*
X2746959Y2447137D01*
X2404262Y2104440D01*
X2399182Y2099056D01*
X2394559Y2093468D01*
X2390241Y2087625D01*
X2386279Y2081530D01*
X2382723Y2075180D01*
X2379522Y2068677D01*
X2376779Y2061921D01*
X2374392Y2055063D01*
X2372461Y2048052D01*
X2370937Y2040991D01*
X2369820Y2033778D01*
X2369159Y2026564D01*
X2368956Y2019147D01*
X2368956Y1832000D01*
X2368194Y1828139D01*
X2365959Y1824837D01*
X2331618Y1790496D01*
X2328621Y1788414D01*
X2325116Y1787499D01*
X2321509Y1787956D01*
X2318258Y1789582D01*
X2308656Y1800656D01*
X2300274Y1807819D01*
X2290876Y1813560D01*
X2280716Y1817776D01*
X2269998Y1820367D01*
X2258618Y1821230D01*
X2059381Y1821230D01*
X2048002Y1820367D01*
X2037283Y1817776D01*
X2027123Y1813560D01*
X2017725Y1807819D01*
X2009343Y1800656D01*
X2002180Y1792274D01*
X1996439Y1782876D01*
X1992223Y1772716D01*
X1989632Y1761998D01*
X1988718Y1750618D01*
X1988718Y1551381D01*
X1989632Y1540002D01*
X1992223Y1529283D01*
X1996439Y1519123D01*
X2002180Y1509725D01*
X2012645Y1497634D01*
X2013813Y1494231D01*
X2013661Y1490573D01*
X2011578Y1486103D01*
X2003501Y1470253D01*
X1997100Y1453591D01*
X1992477Y1436420D01*
X1989683Y1418793D01*
X1988769Y1401013D01*
X1989683Y1383182D01*
X1992477Y1365605D01*
X1997100Y1348384D01*
X2003501Y1331772D01*
X2011578Y1315872D01*
X2021281Y1300937D01*
X2032507Y1287068D01*
X2036368Y1283208D01*
X2038604Y1279906D01*
X2039366Y1275994D01*
X2038604Y1272133D01*
X2036368Y1268831D01*
X2032507Y1264920D01*
X2021281Y1251051D01*
X2011578Y1236116D01*
X2003450Y1220266D01*
X1998522Y1207363D01*
X2102662Y1207363D01*
X2102662Y1226870D01*
X2103323Y1230477D01*
X2105253Y1233627D01*
X2108200Y1235913D01*
X2111756Y1236980D01*
X2115413Y1236675D01*
X2123592Y1234490D01*
X2141220Y1231696D01*
X2159000Y1230782D01*
X2176780Y1231696D01*
X2194407Y1234490D01*
X2202535Y1236675D01*
X2206244Y1236980D01*
X2209800Y1235913D01*
X2212746Y1233627D01*
X2214676Y1230477D01*
X2215337Y1226870D01*
X2215337Y1207363D01*
X2319477Y1207363D01*
X2314498Y1220266D01*
X2306421Y1236116D01*
X2296718Y1251051D01*
X2286050Y1264259D01*
X2284272Y1267612D01*
X2283815Y1271371D01*
X2284780Y1275029D01*
X2287016Y1278077D01*
X2290216Y1280109D01*
X2293924Y1280820D01*
X2391511Y1280820D01*
X2398928Y1281023D01*
X2406142Y1281684D01*
X2413355Y1282801D01*
X2420416Y1284325D01*
X2427427Y1286256D01*
X2434285Y1288643D01*
X2441041Y1291386D01*
X2447544Y1294587D01*
X2453894Y1298143D01*
X2459990Y1302105D01*
X2465832Y1306423D01*
X2471420Y1311046D01*
X2476804Y1316126D01*
X2757982Y1597355D01*
X2761284Y1599539D01*
X2765196Y1600301D01*
X2769057Y1599539D01*
X2772359Y1597355D01*
X2774594Y1594053D01*
X2775356Y1590141D01*
X2775356Y1438300D01*
X2774594Y1434439D01*
X2772359Y1431137D01*
X2378862Y1037640D01*
X2375560Y1035405D01*
X2371699Y1034643D01*
X2304846Y1034643D01*
X2300630Y1035558D01*
X2297176Y1038199D01*
X2295093Y1042009D01*
X2294788Y1046327D01*
X2296312Y1050340D01*
X2306421Y1065885D01*
X2314498Y1081735D01*
X2319477Y1094638D01*
X2215337Y1094638D01*
X2215337Y1085596D01*
X2214676Y1081938D01*
X2212695Y1078738D01*
X2209698Y1076502D01*
X2206091Y1075486D01*
X2202332Y1075842D01*
X2200402Y1076401D01*
X2182164Y1079754D01*
X2163622Y1081176D01*
X2145080Y1080719D01*
X2126691Y1078331D01*
X2115159Y1075588D01*
X2111502Y1075385D01*
X2108047Y1076502D01*
X2105152Y1078788D01*
X2103323Y1081887D01*
X2102662Y1085494D01*
X2102662Y1094638D01*
X1998522Y1094638D01*
X2003450Y1081735D01*
X2011578Y1065885D01*
X2021281Y1050950D01*
X2030171Y1039926D01*
X2031898Y1036828D01*
X2032457Y1033322D01*
X2031746Y1029817D01*
X2029917Y1026820D01*
X2017674Y1012850D01*
X2006904Y997712D01*
X1997760Y981608D01*
X1990343Y964590D01*
X1984705Y946912D01*
X1980895Y928725D01*
X1979015Y910285D01*
X1979015Y891743D01*
X1980895Y873252D01*
X1984705Y855116D01*
X1990343Y837437D01*
X1997760Y820419D01*
X2006904Y804265D01*
X2015185Y792632D01*
X2016912Y788568D01*
X2016709Y784148D01*
X2014677Y780237D01*
X2011222Y777544D01*
X2006904Y776579D01*
G37*

%LPC*%
G36*
X972718Y1707337D02*
G01*
X1086662Y1707337D01*
X1086662Y1821230D01*
X1043381Y1821230D01*
X1032002Y1820367D01*
X1021283Y1817776D01*
X1011123Y1813560D01*
X1001725Y1807819D01*
X993343Y1800656D01*
X986180Y1792274D01*
X980440Y1782876D01*
X976223Y1772716D01*
X973632Y1761998D01*
X972718Y1750618D01*
G37*
G36*
X1199337Y1707337D02*
G01*
X1313230Y1707337D01*
X1313230Y1750618D01*
X1312367Y1761998D01*
X1309776Y1772716D01*
X1305560Y1782876D01*
X1299819Y1792274D01*
X1292656Y1800656D01*
X1284274Y1807819D01*
X1274876Y1813560D01*
X1264716Y1817776D01*
X1253998Y1820367D01*
X1242618Y1821230D01*
X1199337Y1821230D01*
G37*
G36*
X4305300Y2584043D02*
G01*
X4321708Y2584958D01*
X4337862Y2587752D01*
X4353661Y2592273D01*
X4368850Y2598572D01*
X4383227Y2606497D01*
X4396587Y2615996D01*
X4408830Y2626969D01*
X4419803Y2639212D01*
X4429302Y2652572D01*
X4437227Y2666949D01*
X4443526Y2682138D01*
X4448048Y2697937D01*
X4450842Y2714091D01*
X4451756Y2730500D01*
X4450842Y2746908D01*
X4448048Y2763062D01*
X4443526Y2778861D01*
X4437227Y2794050D01*
X4429302Y2808427D01*
X4419803Y2821787D01*
X4415434Y2826664D01*
X4413504Y2829814D01*
X4412843Y2833420D01*
X4412843Y3009747D01*
X4412640Y3017164D01*
X4411980Y3024378D01*
X4410862Y3031591D01*
X4409338Y3038652D01*
X4407408Y3045663D01*
X4405020Y3052521D01*
X4402277Y3059277D01*
X4399076Y3065780D01*
X4395520Y3072130D01*
X4391558Y3078226D01*
X4387240Y3084068D01*
X4383227Y3088894D01*
X4381398Y3092196D01*
X4380890Y3096006D01*
X4381855Y3099714D01*
X4384090Y3102762D01*
X4387291Y3104845D01*
X4391050Y3105556D01*
X5295747Y3105556D01*
X5303164Y3105759D01*
X5310378Y3106420D01*
X5317591Y3107537D01*
X5324703Y3109061D01*
X5331663Y3110992D01*
X5338521Y3113379D01*
X5345277Y3116122D01*
X5351780Y3119323D01*
X5358130Y3122879D01*
X5364226Y3126841D01*
X5370068Y3131159D01*
X5375656Y3135782D01*
X5381040Y3140862D01*
X5914237Y3674059D01*
X5919317Y3679444D01*
X5923940Y3685032D01*
X5928258Y3690874D01*
X5932220Y3696970D01*
X5935776Y3703320D01*
X5938977Y3709822D01*
X5941720Y3716578D01*
X5944108Y3723436D01*
X5946038Y3730396D01*
X5947562Y3737508D01*
X5948680Y3744722D01*
X5949340Y3751935D01*
X5949543Y3759352D01*
X5949543Y3945483D01*
X5950305Y3949395D01*
X5952540Y3952646D01*
X5955842Y3954881D01*
X5959703Y3955643D01*
X5963615Y3954881D01*
X5966917Y3952646D01*
X5969406Y3950208D01*
X5983224Y3938981D01*
X5998159Y3929278D01*
X6014059Y3921201D01*
X6030671Y3914800D01*
X6047892Y3910177D01*
X6065520Y3907383D01*
X6083300Y3906469D01*
X6101080Y3907383D01*
X6118707Y3910177D01*
X6135928Y3914800D01*
X6152540Y3921201D01*
X6168440Y3929278D01*
X6183376Y3938981D01*
X6197193Y3950208D01*
X6203137Y3956100D01*
X6206388Y3958285D01*
X6210300Y3959047D01*
X6214211Y3958285D01*
X6217462Y3956100D01*
X6223406Y3950208D01*
X6237224Y3938981D01*
X6252159Y3929278D01*
X6268059Y3921201D01*
X6284671Y3914800D01*
X6301892Y3910177D01*
X6319520Y3907383D01*
X6337300Y3906469D01*
X6355080Y3907383D01*
X6372707Y3910177D01*
X6389928Y3914800D01*
X6406540Y3921201D01*
X6422440Y3929278D01*
X6437376Y3938981D01*
X6451193Y3950208D01*
X6463792Y3962806D01*
X6475018Y3976624D01*
X6484721Y3991559D01*
X6492798Y4007459D01*
X6499199Y4024071D01*
X6503822Y4041292D01*
X6506616Y4058920D01*
X6507530Y4076700D01*
X6506616Y4094479D01*
X6503822Y4112107D01*
X6499199Y4129328D01*
X6492798Y4145940D01*
X6484721Y4161840D01*
X6475018Y4176776D01*
X6463792Y4190593D01*
X6457899Y4196537D01*
X6455714Y4199788D01*
X6454952Y4203700D01*
X6455714Y4207611D01*
X6457899Y4210862D01*
X6463792Y4216806D01*
X6475018Y4230624D01*
X6484721Y4245559D01*
X6492798Y4261459D01*
X6497777Y4274362D01*
X6393637Y4274362D01*
X6393637Y4250842D01*
X6392976Y4247184D01*
X6391046Y4244035D01*
X6388100Y4241800D01*
X6384544Y4240733D01*
X6380835Y4241038D01*
X6372707Y4243222D01*
X6355080Y4246016D01*
X6337300Y4246930D01*
X6319520Y4246016D01*
X6301892Y4243222D01*
X6293764Y4241038D01*
X6290056Y4240733D01*
X6286500Y4241800D01*
X6283553Y4244035D01*
X6281623Y4247184D01*
X6280962Y4250842D01*
X6280962Y4274362D01*
X6257442Y4274362D01*
X6253784Y4275023D01*
X6250635Y4276953D01*
X6248400Y4279900D01*
X6247333Y4283456D01*
X6247638Y4287164D01*
X6249822Y4295292D01*
X6252616Y4312920D01*
X6253530Y4330700D01*
X6252616Y4348480D01*
X6249822Y4366107D01*
X6247638Y4374235D01*
X6247333Y4377944D01*
X6248400Y4381500D01*
X6250635Y4384446D01*
X6253784Y4386376D01*
X6257442Y4387037D01*
X6280962Y4387037D01*
X6280962Y4491177D01*
X6268059Y4486198D01*
X6252159Y4478121D01*
X6237224Y4468418D01*
X6223406Y4457192D01*
X6217462Y4451299D01*
X6214211Y4449114D01*
X6210300Y4448352D01*
X6206388Y4449114D01*
X6203137Y4451299D01*
X6197193Y4457192D01*
X6183376Y4468418D01*
X6168440Y4478121D01*
X6152540Y4486198D01*
X6135928Y4492599D01*
X6118707Y4497222D01*
X6101080Y4500016D01*
X6083300Y4500930D01*
X6065520Y4500016D01*
X6047892Y4497222D01*
X6030671Y4492599D01*
X6014059Y4486198D01*
X5998159Y4478121D01*
X5983224Y4468418D01*
X5969406Y4457192D01*
X5963462Y4451299D01*
X5960211Y4449114D01*
X5956300Y4448352D01*
X5952388Y4449114D01*
X5949137Y4451299D01*
X5943193Y4457192D01*
X5929376Y4468418D01*
X5914440Y4478121D01*
X5898540Y4486198D01*
X5881928Y4492599D01*
X5864707Y4497222D01*
X5847080Y4500016D01*
X5829300Y4500930D01*
X5811520Y4500016D01*
X5793892Y4497222D01*
X5776671Y4492599D01*
X5760059Y4486198D01*
X5744159Y4478121D01*
X5729224Y4468418D01*
X5715406Y4457192D01*
X5712917Y4454753D01*
X5709615Y4452518D01*
X5705703Y4451756D01*
X5701842Y4452518D01*
X5698540Y4454753D01*
X5696305Y4458004D01*
X5695543Y4461916D01*
X5695543Y4784699D01*
X5696305Y4788560D01*
X5698540Y4791862D01*
X5737453Y4830775D01*
X5740501Y4832908D01*
X5744108Y4833772D01*
X5758180Y4834483D01*
X5775807Y4837277D01*
X5793028Y4841900D01*
X5809640Y4848301D01*
X5825540Y4856378D01*
X5840476Y4866081D01*
X5854293Y4877308D01*
X5866892Y4889906D01*
X5878118Y4903724D01*
X5887821Y4918659D01*
X5895898Y4934559D01*
X5902299Y4951171D01*
X5906922Y4968392D01*
X5909716Y4986020D01*
X5910630Y5003800D01*
X5909716Y5021580D01*
X5906922Y5039207D01*
X5902299Y5056428D01*
X5895898Y5073040D01*
X5887821Y5088940D01*
X5878118Y5103876D01*
X5866892Y5117693D01*
X5854293Y5130292D01*
X5840476Y5141518D01*
X5825540Y5151221D01*
X5809640Y5159298D01*
X5793028Y5165699D01*
X5775807Y5170322D01*
X5758180Y5173116D01*
X5740400Y5174030D01*
X5722620Y5173116D01*
X5704992Y5170322D01*
X5687771Y5165699D01*
X5671159Y5159298D01*
X5655259Y5151221D01*
X5653125Y5149850D01*
X5649163Y5148326D01*
X5644946Y5148529D01*
X5641187Y5150459D01*
X5638546Y5153761D01*
X5637428Y5157825D01*
X5638088Y5161991D01*
X5640425Y5165547D01*
X5774537Y5299659D01*
X5777839Y5301894D01*
X5781700Y5302656D01*
X7086092Y5302656D01*
X7090054Y5301843D01*
X7093356Y5299608D01*
X7095540Y5296255D01*
X7096252Y5292293D01*
X7095388Y5288381D01*
X7093051Y5285079D01*
X7091578Y5283657D01*
X7081824Y5272074D01*
X7073493Y5259425D01*
X7066737Y5245862D01*
X7061301Y5230672D01*
X7169962Y5230672D01*
X7169962Y5292496D01*
X7170724Y5296357D01*
X7172909Y5299659D01*
X7176211Y5301894D01*
X7180122Y5302656D01*
X7272477Y5302656D01*
X7276388Y5301894D01*
X7279690Y5299659D01*
X7281875Y5296357D01*
X7282637Y5292496D01*
X7282637Y5230672D01*
X7391298Y5230672D01*
X7385862Y5245862D01*
X7379106Y5259425D01*
X7370775Y5272074D01*
X7361021Y5283657D01*
X7359548Y5285079D01*
X7357211Y5288381D01*
X7356348Y5292293D01*
X7357059Y5296255D01*
X7359243Y5299608D01*
X7362545Y5301843D01*
X7366508Y5302656D01*
X8048599Y5302656D01*
X8052460Y5301894D01*
X8055762Y5299659D01*
X8334959Y5020462D01*
X8340344Y5015382D01*
X8345931Y5010759D01*
X8351774Y5006441D01*
X8357870Y5002479D01*
X8364220Y4998923D01*
X8370722Y4995722D01*
X8377478Y4992979D01*
X8384336Y4990592D01*
X8391347Y4988661D01*
X8398408Y4987137D01*
X8405622Y4986020D01*
X8412835Y4985359D01*
X8420252Y4985156D01*
X8774887Y4985156D01*
X8778798Y4984394D01*
X8789619Y4979873D01*
X8805418Y4975352D01*
X8821623Y4972558D01*
X8838031Y4971643D01*
X8854389Y4972558D01*
X8870594Y4975352D01*
X8886393Y4979873D01*
X8901531Y4986172D01*
X8915908Y4994097D01*
X8929319Y5003596D01*
X8941562Y5014569D01*
X8952484Y5026812D01*
X8961983Y5040172D01*
X8969959Y5054549D01*
X8976207Y5069738D01*
X8980779Y5085537D01*
X8983522Y5101691D01*
X8984437Y5118100D01*
X8983522Y5134508D01*
X8980779Y5150662D01*
X8976207Y5166461D01*
X8969959Y5181650D01*
X8961983Y5196027D01*
X8952484Y5209387D01*
X8941562Y5221630D01*
X8929319Y5232603D01*
X8926169Y5234838D01*
X8923528Y5237581D01*
X8922054Y5241188D01*
X8922054Y5245049D01*
X8923528Y5248605D01*
X8926169Y5251399D01*
X8929319Y5253634D01*
X8941562Y5264556D01*
X8952484Y5276799D01*
X8961983Y5290210D01*
X8969959Y5304586D01*
X8976207Y5319725D01*
X8980779Y5335524D01*
X8983522Y5351729D01*
X8984437Y5368086D01*
X8983522Y5384495D01*
X8980779Y5400700D01*
X8976207Y5416499D01*
X8969959Y5431637D01*
X8961983Y5446014D01*
X8952484Y5459425D01*
X8941562Y5471668D01*
X8929319Y5482590D01*
X8915908Y5492089D01*
X8913926Y5493207D01*
X8911132Y5495493D01*
X8909304Y5498592D01*
X8908643Y5502097D01*
X8908643Y5679541D01*
X8909405Y5683402D01*
X8911640Y5686704D01*
X8914892Y5690006D01*
X8926118Y5703824D01*
X8935821Y5718759D01*
X8943898Y5734659D01*
X8950299Y5751271D01*
X8954922Y5768492D01*
X8957716Y5786120D01*
X8958630Y5803900D01*
X8957716Y5821680D01*
X8954922Y5839307D01*
X8950299Y5856528D01*
X8943898Y5873140D01*
X8935821Y5889040D01*
X8926118Y5903976D01*
X8914892Y5917793D01*
X8902293Y5930392D01*
X8888476Y5941618D01*
X8873540Y5951321D01*
X8857640Y5959398D01*
X8841028Y5965799D01*
X8823807Y5970422D01*
X8806180Y5973216D01*
X8788400Y5974130D01*
X8770620Y5973216D01*
X8752992Y5970422D01*
X8735771Y5965799D01*
X8719159Y5959398D01*
X8703259Y5951321D01*
X8688324Y5941618D01*
X8674506Y5930392D01*
X8661908Y5917793D01*
X8650681Y5903976D01*
X8640978Y5889040D01*
X8632901Y5873140D01*
X8626500Y5856528D01*
X8621877Y5839307D01*
X8619083Y5821680D01*
X8618169Y5803900D01*
X8619083Y5786120D01*
X8621877Y5768492D01*
X8626500Y5751271D01*
X8632901Y5734659D01*
X8640978Y5718759D01*
X8650681Y5703824D01*
X8661908Y5690006D01*
X8665159Y5686704D01*
X8667394Y5683402D01*
X8668156Y5679541D01*
X8668156Y5417870D01*
X8668359Y5410454D01*
X8669020Y5403240D01*
X8670137Y5396026D01*
X8671661Y5388914D01*
X8673592Y5381955D01*
X8675979Y5375097D01*
X8678722Y5368340D01*
X8681923Y5361838D01*
X8685479Y5355488D01*
X8689390Y5349494D01*
X8692388Y5345531D01*
X8693607Y5343448D01*
X8694267Y5341112D01*
X8695232Y5335524D01*
X8699804Y5319725D01*
X8706053Y5304586D01*
X8714028Y5290210D01*
X8723528Y5276799D01*
X8734450Y5264556D01*
X8746693Y5253634D01*
X8749842Y5251399D01*
X8752484Y5248605D01*
X8753957Y5245049D01*
X8753957Y5241188D01*
X8752484Y5237581D01*
X8749842Y5234838D01*
X8746693Y5232603D01*
X8741816Y5228234D01*
X8738666Y5226304D01*
X8735060Y5225643D01*
X8474100Y5225643D01*
X8470239Y5226405D01*
X8466937Y5228640D01*
X8187740Y5507837D01*
X8182356Y5512917D01*
X8176768Y5517540D01*
X8170925Y5521858D01*
X8164830Y5525820D01*
X8158480Y5529376D01*
X8151977Y5532577D01*
X8145221Y5535320D01*
X8138363Y5537708D01*
X8131403Y5539638D01*
X8124291Y5541162D01*
X8117078Y5542280D01*
X8109864Y5542940D01*
X8102447Y5543143D01*
X5727852Y5543143D01*
X5720435Y5542940D01*
X5713222Y5542280D01*
X5706008Y5541162D01*
X5698947Y5539638D01*
X5691936Y5537708D01*
X5685078Y5535320D01*
X5678322Y5532577D01*
X5671820Y5529376D01*
X5665470Y5525820D01*
X5659374Y5521858D01*
X5653532Y5517540D01*
X5647944Y5512917D01*
X5642559Y5507837D01*
X5236362Y5101640D01*
X5231282Y5096256D01*
X5226659Y5090668D01*
X5222341Y5084826D01*
X5218938Y5079593D01*
X5215890Y5076545D01*
X5211826Y5075021D01*
X5207558Y5075326D01*
X5203748Y5077409D01*
X5201158Y5080863D01*
X5200243Y5085080D01*
X5200243Y5156047D01*
X5200040Y5163464D01*
X5199380Y5170678D01*
X5198262Y5177891D01*
X5196738Y5184952D01*
X5194808Y5191963D01*
X5192420Y5198821D01*
X5189677Y5205577D01*
X5186476Y5212080D01*
X5182920Y5218430D01*
X5178958Y5224526D01*
X5174640Y5230368D01*
X5170017Y5235956D01*
X5164937Y5241340D01*
X4796840Y5609437D01*
X4791456Y5614517D01*
X4785868Y5619140D01*
X4780026Y5623458D01*
X4773930Y5627420D01*
X4767580Y5630976D01*
X4761077Y5634177D01*
X4754321Y5636920D01*
X4747463Y5639308D01*
X4740503Y5641238D01*
X4733391Y5642762D01*
X4726178Y5643880D01*
X4718964Y5644540D01*
X4711547Y5644743D01*
X3063900Y5644743D01*
X3060039Y5645505D01*
X3056737Y5647740D01*
X2409240Y6295237D01*
X2403856Y6300317D01*
X2398268Y6304940D01*
X2392426Y6309258D01*
X2386330Y6313220D01*
X2379980Y6316776D01*
X2373477Y6319977D01*
X2366721Y6322720D01*
X2359863Y6325108D01*
X2352903Y6327038D01*
X2345791Y6328562D01*
X2338578Y6329680D01*
X2331364Y6330340D01*
X2323947Y6330543D01*
X2042058Y6330543D01*
X2038197Y6331305D01*
X2034895Y6333540D01*
X2031593Y6336792D01*
X2017775Y6348018D01*
X2002840Y6357721D01*
X1986940Y6365798D01*
X1970328Y6372199D01*
X1953107Y6376822D01*
X1935480Y6379616D01*
X1917700Y6380530D01*
X1899920Y6379616D01*
X1882292Y6376822D01*
X1865071Y6372199D01*
X1848459Y6365798D01*
X1832559Y6357721D01*
X1817624Y6348018D01*
X1803806Y6336792D01*
X1797862Y6330899D01*
X1794611Y6328714D01*
X1790700Y6327952D01*
X1786788Y6328714D01*
X1783537Y6330899D01*
X1777593Y6336792D01*
X1763775Y6348018D01*
X1748840Y6357721D01*
X1732940Y6365798D01*
X1720037Y6370777D01*
X1720037Y6266637D01*
X1743557Y6266637D01*
X1747215Y6265976D01*
X1750364Y6264046D01*
X1752600Y6261100D01*
X1753666Y6257544D01*
X1753362Y6253835D01*
X1751177Y6245707D01*
X1748383Y6228080D01*
X1747469Y6210300D01*
X1748383Y6192520D01*
X1751177Y6174892D01*
X1753362Y6166764D01*
X1753666Y6163056D01*
X1752600Y6159500D01*
X1750364Y6156553D01*
X1747215Y6154623D01*
X1743557Y6153962D01*
X1720037Y6153962D01*
X1720037Y6049822D01*
X1732940Y6054801D01*
X1748840Y6062878D01*
X1763775Y6072581D01*
X1777593Y6083808D01*
X1783537Y6089700D01*
X1786788Y6091885D01*
X1790700Y6092647D01*
X1794611Y6091885D01*
X1797862Y6089700D01*
X1803806Y6083808D01*
X1817624Y6072581D01*
X1832559Y6062878D01*
X1848459Y6054801D01*
X1865071Y6048400D01*
X1882292Y6043777D01*
X1899920Y6040983D01*
X1917700Y6040069D01*
X1935480Y6040983D01*
X1953107Y6043777D01*
X1970328Y6048400D01*
X1986940Y6054801D01*
X2002840Y6062878D01*
X2017775Y6072581D01*
X2031593Y6083808D01*
X2034895Y6087059D01*
X2038197Y6089294D01*
X2042058Y6090056D01*
X2270099Y6090056D01*
X2273960Y6089294D01*
X2277262Y6087059D01*
X2435555Y5928817D01*
X2437739Y5925515D01*
X2438501Y5921603D01*
X2437739Y5917742D01*
X2435555Y5914440D01*
X2432253Y5912205D01*
X2428341Y5911443D01*
X1016152Y5911443D01*
X1008735Y5911240D01*
X1001521Y5910580D01*
X994308Y5909462D01*
X987247Y5907938D01*
X980236Y5906008D01*
X973378Y5903620D01*
X966622Y5900877D01*
X960119Y5897676D01*
X953769Y5894120D01*
X947674Y5890158D01*
X941832Y5885840D01*
X936244Y5881217D01*
X930859Y5876137D01*
X778662Y5723940D01*
X773582Y5718556D01*
X768959Y5712968D01*
X764641Y5707126D01*
X760679Y5701030D01*
X757123Y5694680D01*
X753922Y5688177D01*
X751179Y5681421D01*
X748792Y5674563D01*
X746861Y5667552D01*
X745337Y5660491D01*
X744220Y5653278D01*
X743559Y5646064D01*
X743356Y5638647D01*
X743356Y5220004D01*
X744220Y5205222D01*
X746861Y5190947D01*
X751179Y5177078D01*
X757123Y5163820D01*
X764641Y5151374D01*
X773582Y5139944D01*
X783844Y5129682D01*
X795274Y5120741D01*
X807720Y5113223D01*
X820978Y5107279D01*
X834847Y5102961D01*
X849121Y5100320D01*
X863904Y5099456D01*
X1011783Y5099456D01*
X1015695Y5098694D01*
X1018946Y5096459D01*
X1021181Y5093157D01*
X1021943Y5089296D01*
X1021181Y5085384D01*
X1018946Y5082082D01*
X1016508Y5079593D01*
X1005281Y5065776D01*
X995578Y5050840D01*
X987501Y5034940D01*
X982522Y5022037D01*
X1086662Y5022037D01*
X1086662Y5045557D01*
X1087323Y5049215D01*
X1089253Y5052364D01*
X1092200Y5054600D01*
X1095756Y5055666D01*
X1099464Y5055362D01*
X1107592Y5053177D01*
X1125220Y5050383D01*
X1143000Y5049469D01*
X1160780Y5050383D01*
X1178407Y5053177D01*
X1186535Y5055362D01*
X1190244Y5055666D01*
X1193800Y5054600D01*
X1196746Y5052364D01*
X1198676Y5049215D01*
X1199337Y5045557D01*
X1199337Y5022037D01*
X1303477Y5022037D01*
X1298498Y5034940D01*
X1290421Y5050840D01*
X1280718Y5065776D01*
X1269492Y5079593D01*
X1267053Y5082082D01*
X1264818Y5085384D01*
X1264056Y5089296D01*
X1264818Y5093157D01*
X1267053Y5096459D01*
X1270304Y5098694D01*
X1274216Y5099456D01*
X2027783Y5099456D01*
X2031695Y5098694D01*
X2034946Y5096459D01*
X2037181Y5093157D01*
X2037943Y5089296D01*
X2037181Y5085384D01*
X2034946Y5082082D01*
X2032507Y5079593D01*
X2021281Y5065776D01*
X2011578Y5050840D01*
X2003501Y5034940D01*
X1998522Y5022037D01*
X2102662Y5022037D01*
X2102662Y5045557D01*
X2103323Y5049215D01*
X2105253Y5052364D01*
X2108200Y5054600D01*
X2111756Y5055666D01*
X2115464Y5055362D01*
X2123592Y5053177D01*
X2141220Y5050383D01*
X2159000Y5049469D01*
X2176780Y5050383D01*
X2194407Y5053177D01*
X2202535Y5055362D01*
X2206244Y5055666D01*
X2209800Y5054600D01*
X2212746Y5052364D01*
X2214676Y5049215D01*
X2215337Y5045557D01*
X2215337Y5022037D01*
X2319477Y5022037D01*
X2314498Y5034940D01*
X2306421Y5050840D01*
X2296718Y5065776D01*
X2285492Y5079593D01*
X2279599Y5085537D01*
X2277414Y5088788D01*
X2276652Y5092700D01*
X2277414Y5096611D01*
X2279599Y5099862D01*
X2285492Y5105806D01*
X2296718Y5119624D01*
X2306421Y5134559D01*
X2314498Y5150459D01*
X2320899Y5167071D01*
X2325522Y5184292D01*
X2328316Y5201920D01*
X2329230Y5219700D01*
X2328316Y5237480D01*
X2325522Y5255107D01*
X2320899Y5272328D01*
X2314498Y5288940D01*
X2306421Y5304840D01*
X2304034Y5308498D01*
X2302662Y5311749D01*
X2302510Y5315305D01*
X2303526Y5318658D01*
X2305659Y5321503D01*
X2309876Y5325364D01*
X2313076Y5327345D01*
X2316734Y5328056D01*
X2447899Y5328056D01*
X2451760Y5327294D01*
X2455062Y5325059D01*
X2594559Y5185562D01*
X2596794Y5182260D01*
X2597556Y5178399D01*
X2597556Y4876952D01*
X2597759Y4869535D01*
X2598420Y4862322D01*
X2599537Y4855108D01*
X2601061Y4847996D01*
X2602992Y4841036D01*
X2605379Y4834178D01*
X2608122Y4827422D01*
X2611323Y4820920D01*
X2614879Y4814570D01*
X2618841Y4808474D01*
X2623159Y4802632D01*
X2627782Y4797044D01*
X2632862Y4791659D01*
X2779674Y4644847D01*
X2781858Y4641646D01*
X2782671Y4637836D01*
X2782011Y4634026D01*
X2779928Y4630724D01*
X2776778Y4628438D01*
X2773019Y4627524D01*
X2763520Y4627016D01*
X2745892Y4624222D01*
X2728671Y4619599D01*
X2712059Y4613198D01*
X2696159Y4605121D01*
X2681224Y4595418D01*
X2667406Y4584192D01*
X2664104Y4580940D01*
X2660802Y4578705D01*
X2656941Y4577943D01*
X2290216Y4577943D01*
X2286304Y4578705D01*
X2283053Y4580940D01*
X2280818Y4584242D01*
X2280056Y4588103D01*
X2280818Y4592015D01*
X2283053Y4595317D01*
X2285492Y4597806D01*
X2296718Y4611624D01*
X2306421Y4626559D01*
X2314498Y4642459D01*
X2320899Y4659071D01*
X2325522Y4676292D01*
X2328316Y4693920D01*
X2329230Y4711700D01*
X2328316Y4729480D01*
X2325522Y4747107D01*
X2320899Y4764328D01*
X2314498Y4780940D01*
X2306421Y4796840D01*
X2296718Y4811776D01*
X2285492Y4825593D01*
X2279599Y4831537D01*
X2277414Y4834788D01*
X2276652Y4838700D01*
X2277414Y4842611D01*
X2279599Y4845862D01*
X2285492Y4851806D01*
X2296718Y4865624D01*
X2306421Y4880559D01*
X2314498Y4896459D01*
X2319477Y4909362D01*
X2215337Y4909362D01*
X2215337Y4885842D01*
X2214676Y4882184D01*
X2212746Y4879035D01*
X2209800Y4876800D01*
X2206244Y4875733D01*
X2202535Y4876038D01*
X2194407Y4878222D01*
X2176780Y4881016D01*
X2159000Y4881930D01*
X2141220Y4881016D01*
X2123592Y4878222D01*
X2115464Y4876038D01*
X2111756Y4875733D01*
X2108200Y4876800D01*
X2105253Y4879035D01*
X2103323Y4882184D01*
X2102662Y4885842D01*
X2102662Y4909362D01*
X1998522Y4909362D01*
X2003501Y4896459D01*
X2011578Y4880559D01*
X2021281Y4865624D01*
X2032507Y4851806D01*
X2038400Y4845862D01*
X2040585Y4842611D01*
X2041347Y4838700D01*
X2040585Y4834788D01*
X2038400Y4831537D01*
X2032507Y4825593D01*
X2021281Y4811776D01*
X2011578Y4796840D01*
X2003501Y4780940D01*
X1997100Y4764328D01*
X1992477Y4747107D01*
X1989683Y4729480D01*
X1988769Y4711700D01*
X1989683Y4693920D01*
X1992477Y4676292D01*
X1997100Y4659071D01*
X2003501Y4642459D01*
X2011578Y4626559D01*
X2021281Y4611624D01*
X2032507Y4597806D01*
X2034946Y4595317D01*
X2037181Y4592015D01*
X2037943Y4588103D01*
X2037181Y4584242D01*
X2034946Y4580940D01*
X2031695Y4578705D01*
X2027783Y4577943D01*
X1274216Y4577943D01*
X1270304Y4578705D01*
X1267053Y4580940D01*
X1264818Y4584242D01*
X1264056Y4588103D01*
X1264818Y4592015D01*
X1267053Y4595317D01*
X1269492Y4597806D01*
X1280718Y4611624D01*
X1290421Y4626559D01*
X1298498Y4642459D01*
X1304899Y4659071D01*
X1309522Y4676292D01*
X1312316Y4693920D01*
X1313230Y4711700D01*
X1312316Y4729480D01*
X1309522Y4747107D01*
X1304899Y4764328D01*
X1298498Y4780940D01*
X1290421Y4796840D01*
X1280718Y4811776D01*
X1269492Y4825593D01*
X1263599Y4831537D01*
X1261414Y4834788D01*
X1260652Y4838700D01*
X1261414Y4842611D01*
X1263599Y4845862D01*
X1269492Y4851806D01*
X1280718Y4865624D01*
X1290421Y4880559D01*
X1298498Y4896459D01*
X1303477Y4909362D01*
X1199337Y4909362D01*
X1199337Y4885842D01*
X1198676Y4882184D01*
X1196746Y4879035D01*
X1193800Y4876800D01*
X1190244Y4875733D01*
X1186535Y4876038D01*
X1178407Y4878222D01*
X1160780Y4881016D01*
X1143000Y4881930D01*
X1125220Y4881016D01*
X1107592Y4878222D01*
X1099464Y4876038D01*
X1095756Y4875733D01*
X1092200Y4876800D01*
X1089253Y4879035D01*
X1087323Y4882184D01*
X1086662Y4885842D01*
X1086662Y4909362D01*
X982522Y4909362D01*
X987501Y4896459D01*
X995578Y4880559D01*
X1005281Y4865624D01*
X1016508Y4851806D01*
X1022400Y4845862D01*
X1024585Y4842611D01*
X1025347Y4838700D01*
X1024585Y4834788D01*
X1022400Y4831537D01*
X1016508Y4825593D01*
X1005281Y4811776D01*
X995578Y4796840D01*
X987501Y4780940D01*
X981100Y4764328D01*
X976477Y4747107D01*
X973683Y4729480D01*
X972769Y4711700D01*
X973683Y4693920D01*
X976477Y4676292D01*
X981100Y4659071D01*
X987501Y4642459D01*
X995578Y4626559D01*
X1005281Y4611624D01*
X1016508Y4597806D01*
X1022400Y4591862D01*
X1024585Y4588611D01*
X1025347Y4584700D01*
X1024585Y4580788D01*
X1022400Y4577537D01*
X1016508Y4571593D01*
X1005281Y4557776D01*
X995578Y4542840D01*
X987501Y4526940D01*
X981100Y4510328D01*
X976477Y4493107D01*
X973683Y4475480D01*
X972769Y4457700D01*
X973683Y4439920D01*
X976477Y4422292D01*
X981100Y4405071D01*
X987501Y4388459D01*
X995578Y4372559D01*
X1005281Y4357624D01*
X1016508Y4343806D01*
X1022400Y4337862D01*
X1024585Y4334611D01*
X1025347Y4330700D01*
X1024585Y4326788D01*
X1022400Y4323537D01*
X1016508Y4317593D01*
X1005281Y4303776D01*
X995578Y4288840D01*
X987501Y4272940D01*
X981100Y4256328D01*
X976477Y4239107D01*
X973683Y4221480D01*
X972769Y4203700D01*
X973683Y4185920D01*
X976477Y4168292D01*
X981100Y4151071D01*
X987501Y4134459D01*
X995578Y4118559D01*
X1005281Y4103624D01*
X1016508Y4089806D01*
X1022400Y4083862D01*
X1024585Y4080611D01*
X1025347Y4076700D01*
X1024585Y4072788D01*
X1022400Y4069537D01*
X1016508Y4063593D01*
X1005281Y4049776D01*
X995578Y4034840D01*
X987501Y4018940D01*
X981100Y4002328D01*
X976477Y3985107D01*
X973683Y3967479D01*
X972769Y3949700D01*
X973683Y3931920D01*
X976477Y3914292D01*
X981100Y3897071D01*
X987501Y3880459D01*
X995578Y3864559D01*
X1005281Y3849624D01*
X1016508Y3835806D01*
X1022400Y3829862D01*
X1024585Y3826611D01*
X1025347Y3822700D01*
X1024585Y3818788D01*
X1022400Y3815537D01*
X1016508Y3809593D01*
X1005281Y3795776D01*
X995578Y3780840D01*
X987501Y3764940D01*
X981100Y3748328D01*
X976477Y3731107D01*
X973683Y3713479D01*
X972769Y3695700D01*
X973683Y3677920D01*
X976477Y3660292D01*
X981100Y3643071D01*
X987501Y3626459D01*
X995578Y3610559D01*
X1005281Y3595624D01*
X1016508Y3581806D01*
X1029106Y3569208D01*
X1042924Y3557981D01*
X1057859Y3548278D01*
X1073759Y3540201D01*
X1090371Y3533800D01*
X1107592Y3529177D01*
X1125220Y3526383D01*
X1143000Y3525469D01*
X1160780Y3526383D01*
X1178407Y3529177D01*
X1195628Y3533800D01*
X1212240Y3540201D01*
X1228140Y3548278D01*
X1243076Y3557981D01*
X1256893Y3569208D01*
X1260195Y3572459D01*
X1263497Y3574694D01*
X1267358Y3575456D01*
X1482699Y3575456D01*
X1486560Y3574694D01*
X1489862Y3572459D01*
X2061159Y3001162D01*
X2066543Y2996082D01*
X2072132Y2991459D01*
X2077974Y2987141D01*
X2084070Y2983179D01*
X2090420Y2979623D01*
X2096922Y2976422D01*
X2103678Y2973679D01*
X2110536Y2971292D01*
X2117547Y2969361D01*
X2124608Y2967837D01*
X2131822Y2966720D01*
X2139035Y2966059D01*
X2146452Y2965856D01*
X4162196Y2965856D01*
X4166057Y2965094D01*
X4169359Y2962859D01*
X4171594Y2959557D01*
X4172356Y2955696D01*
X4172356Y2793593D01*
X4171594Y2789732D01*
X4167073Y2778861D01*
X4162551Y2763062D01*
X4159758Y2746908D01*
X4158843Y2730500D01*
X4159758Y2714091D01*
X4162551Y2697937D01*
X4167073Y2682138D01*
X4173372Y2666949D01*
X4181297Y2652572D01*
X4190796Y2639212D01*
X4201769Y2626969D01*
X4214012Y2615996D01*
X4227372Y2606497D01*
X4241749Y2598572D01*
X4256938Y2592273D01*
X4272737Y2587752D01*
X4288891Y2584958D01*
G37*
G36*
X6393637Y4387037D02*
G01*
X6497777Y4387037D01*
X6492798Y4399940D01*
X6484721Y4415840D01*
X6475018Y4430776D01*
X6463792Y4444593D01*
X6451193Y4457192D01*
X6437376Y4468418D01*
X6422440Y4478121D01*
X6406540Y4486198D01*
X6393637Y4491177D01*
G37*
G36*
X8128000Y4393742D02*
G01*
X8147354Y4394708D01*
X8166455Y4397552D01*
X8185251Y4402226D01*
X8203488Y4408779D01*
X8220964Y4417060D01*
X8237575Y4427016D01*
X8253120Y4438548D01*
X8267496Y4451502D01*
X8280450Y4465878D01*
X8291982Y4481423D01*
X8301939Y4498035D01*
X8310219Y4515510D01*
X8316772Y4533747D01*
X8321446Y4552543D01*
X8324291Y4571644D01*
X8325256Y4590999D01*
X8324291Y4610354D01*
X8321446Y4629454D01*
X8316772Y4648250D01*
X8310219Y4666488D01*
X8301939Y4683963D01*
X8291982Y4700574D01*
X8280450Y4716119D01*
X8267496Y4730496D01*
X8253120Y4743450D01*
X8237575Y4754981D01*
X8227771Y4760874D01*
X8225180Y4763160D01*
X8223453Y4766157D01*
X8222843Y4769561D01*
X8222843Y4876647D01*
X8222640Y4884064D01*
X8221980Y4891278D01*
X8220862Y4898491D01*
X8219338Y4905552D01*
X8217408Y4912563D01*
X8215020Y4919421D01*
X8212277Y4926177D01*
X8209076Y4932680D01*
X8205520Y4939030D01*
X8201558Y4945126D01*
X8197240Y4950968D01*
X8192617Y4956556D01*
X8187537Y4961940D01*
X8048040Y5101437D01*
X8042656Y5106517D01*
X8037068Y5111140D01*
X8031225Y5115458D01*
X8025130Y5119420D01*
X8018780Y5122976D01*
X8012277Y5126177D01*
X8005521Y5128920D01*
X7998663Y5131308D01*
X7991703Y5133238D01*
X7984591Y5134762D01*
X7977378Y5135880D01*
X7970164Y5136540D01*
X7962747Y5136743D01*
X7398207Y5136743D01*
X7394448Y5137505D01*
X7391146Y5139588D01*
X7388961Y5142788D01*
X7388098Y5146548D01*
X7388656Y5150408D01*
X7391298Y5157927D01*
X7282637Y5157927D01*
X7281824Y5152542D01*
X7279487Y5149189D01*
X7275982Y5147005D01*
X7271918Y5146395D01*
X7266025Y5146751D01*
X7186574Y5146751D01*
X7180681Y5146395D01*
X7176617Y5147005D01*
X7173163Y5149189D01*
X7170775Y5152542D01*
X7169962Y5157927D01*
X7061301Y5157927D01*
X7066737Y5142738D01*
X7073493Y5129174D01*
X7081824Y5116525D01*
X7085685Y5111953D01*
X7087463Y5108854D01*
X7088073Y5105400D01*
X7087463Y5101945D01*
X7085685Y5098846D01*
X7081824Y5094274D01*
X7073493Y5081625D01*
X7066737Y5068062D01*
X7061555Y5053838D01*
X7058050Y5039106D01*
X7056272Y5024069D01*
X7056272Y5008930D01*
X7058050Y4993894D01*
X7061555Y4979162D01*
X7063943Y4972608D01*
X7064502Y4968748D01*
X7063638Y4964988D01*
X7061453Y4961788D01*
X7058152Y4959705D01*
X7054392Y4958943D01*
X6933336Y4958943D01*
X6929069Y4959908D01*
X6925614Y4962499D01*
X6923531Y4966360D01*
X6923278Y4970729D01*
X6925716Y4986020D01*
X6926630Y5003800D01*
X6925716Y5021580D01*
X6922922Y5039207D01*
X6918299Y5056428D01*
X6911898Y5073040D01*
X6903821Y5088940D01*
X6894118Y5103876D01*
X6882892Y5117693D01*
X6870293Y5130292D01*
X6856475Y5141518D01*
X6841540Y5151221D01*
X6825640Y5159298D01*
X6809028Y5165699D01*
X6791807Y5170322D01*
X6774180Y5173116D01*
X6756400Y5174030D01*
X6738620Y5173116D01*
X6720992Y5170322D01*
X6703771Y5165699D01*
X6687159Y5159298D01*
X6671259Y5151221D01*
X6656324Y5141518D01*
X6642506Y5130292D01*
X6629908Y5117693D01*
X6618681Y5103876D01*
X6608978Y5088940D01*
X6600901Y5073040D01*
X6594500Y5056428D01*
X6589877Y5039207D01*
X6587083Y5021580D01*
X6586169Y5003800D01*
X6587083Y4986020D01*
X6589877Y4968392D01*
X6594500Y4951171D01*
X6600901Y4934559D01*
X6608978Y4918659D01*
X6618681Y4903724D01*
X6629908Y4889906D01*
X6642506Y4877308D01*
X6656324Y4866081D01*
X6668109Y4858461D01*
X6772859Y4753762D01*
X6778244Y4748682D01*
X6783831Y4744059D01*
X6789674Y4739741D01*
X6795770Y4735779D01*
X6802120Y4732223D01*
X6808622Y4729022D01*
X6815378Y4726279D01*
X6822236Y4723892D01*
X6829247Y4721961D01*
X6836308Y4720437D01*
X6843522Y4719320D01*
X6850735Y4718659D01*
X6858152Y4718456D01*
X7134707Y4718456D01*
X7138771Y4717592D01*
X7141768Y4716322D01*
X7156246Y4711954D01*
X7171181Y4709363D01*
X7186574Y4708448D01*
X7266025Y4708448D01*
X7281418Y4709363D01*
X7296353Y4711954D01*
X7310831Y4716322D01*
X7324750Y4722317D01*
X7337856Y4729886D01*
X7349998Y4738928D01*
X7361021Y4749342D01*
X7370775Y4760925D01*
X7379106Y4773574D01*
X7385862Y4787138D01*
X7391044Y4801362D01*
X7394549Y4816094D01*
X7396327Y4831130D01*
X7396327Y4846269D01*
X7394549Y4861306D01*
X7391044Y4876038D01*
X7388656Y4882591D01*
X7388098Y4886452D01*
X7388961Y4890211D01*
X7391146Y4893411D01*
X7394448Y4895494D01*
X7398207Y4896256D01*
X7908899Y4896256D01*
X7912760Y4895494D01*
X7916062Y4893259D01*
X7979359Y4829962D01*
X7981594Y4826660D01*
X7982356Y4822799D01*
X7982356Y4727549D01*
X7981645Y4723892D01*
X7979714Y4720742D01*
X7975549Y4716119D01*
X7964017Y4700574D01*
X7954060Y4683963D01*
X7945780Y4666488D01*
X7939227Y4648250D01*
X7934553Y4629454D01*
X7931708Y4610354D01*
X7930743Y4590999D01*
X7931708Y4571644D01*
X7934553Y4552543D01*
X7939227Y4533747D01*
X7945780Y4515510D01*
X7954060Y4498035D01*
X7964017Y4481423D01*
X7975549Y4465878D01*
X7988503Y4451502D01*
X8002879Y4438548D01*
X8018424Y4427016D01*
X8035036Y4417060D01*
X8052511Y4408779D01*
X8070748Y4402226D01*
X8089544Y4397552D01*
X8108645Y4394708D01*
G37*
G36*
X7329728Y5669737D02*
G01*
X7398003Y5669737D01*
X7409383Y5670651D01*
X7420102Y5673242D01*
X7430262Y5677458D01*
X7439659Y5683199D01*
X7448042Y5690362D01*
X7455204Y5698744D01*
X7460945Y5708142D01*
X7465161Y5718302D01*
X7467752Y5729020D01*
X7468666Y5740400D01*
X7468666Y5808675D01*
X7329728Y5808675D01*
G37*
G36*
X3098800Y5669737D02*
G01*
X3167075Y5669737D01*
X3167075Y5808675D01*
X3028137Y5808675D01*
X3028137Y5740400D01*
X3029051Y5729020D01*
X3031642Y5718302D01*
X3035858Y5708142D01*
X3041599Y5698744D01*
X3048762Y5690362D01*
X3057144Y5683199D01*
X3066542Y5677458D01*
X3076702Y5673242D01*
X3087420Y5670651D01*
G37*
G36*
X3329736Y5669737D02*
G01*
X3398012Y5669737D01*
X3409391Y5670651D01*
X3420110Y5673242D01*
X3430270Y5677458D01*
X3439668Y5683199D01*
X3448050Y5690362D01*
X3455212Y5698744D01*
X3460953Y5708142D01*
X3465169Y5718302D01*
X3467760Y5729020D01*
X3468674Y5740400D01*
X3468674Y5808675D01*
X3329736Y5808675D01*
G37*
G36*
X7098792Y5669737D02*
G01*
X7167067Y5669737D01*
X7167067Y5808675D01*
X7028129Y5808675D01*
X7028129Y5740400D01*
X7029043Y5729020D01*
X7031634Y5718302D01*
X7035850Y5708142D01*
X7041591Y5698744D01*
X7048753Y5690362D01*
X7057136Y5683199D01*
X7066534Y5677458D01*
X7076694Y5673242D01*
X7087412Y5670651D01*
G37*
G36*
X3028137Y5971336D02*
G01*
X3167075Y5971336D01*
X3167075Y6110274D01*
X3098800Y6110274D01*
X3087420Y6109360D01*
X3076702Y6106769D01*
X3066542Y6102553D01*
X3057144Y6096812D01*
X3048762Y6089650D01*
X3041599Y6081268D01*
X3035858Y6071870D01*
X3031642Y6061710D01*
X3029051Y6050991D01*
X3028137Y6039612D01*
G37*
G36*
X3329736Y5971336D02*
G01*
X3468674Y5971336D01*
X3468674Y6039612D01*
X3467760Y6050991D01*
X3465169Y6061710D01*
X3460953Y6071870D01*
X3455212Y6081268D01*
X3448050Y6089650D01*
X3439668Y6096812D01*
X3430270Y6102553D01*
X3420110Y6106769D01*
X3409391Y6109360D01*
X3398012Y6110274D01*
X3329736Y6110274D01*
G37*
G36*
X7028129Y5971336D02*
G01*
X7167067Y5971336D01*
X7167067Y6110274D01*
X7098792Y6110274D01*
X7087412Y6109360D01*
X7076694Y6106769D01*
X7066534Y6102553D01*
X7057136Y6096812D01*
X7048753Y6089650D01*
X7041591Y6081268D01*
X7035850Y6071870D01*
X7031634Y6061710D01*
X7029043Y6050991D01*
X7028129Y6039612D01*
G37*
G36*
X7329728Y5971336D02*
G01*
X7468666Y5971336D01*
X7468666Y6039612D01*
X7467752Y6050991D01*
X7465161Y6061710D01*
X7460945Y6071870D01*
X7455204Y6081268D01*
X7448042Y6089650D01*
X7439659Y6096812D01*
X7430262Y6102553D01*
X7420102Y6106769D01*
X7409383Y6109360D01*
X7398003Y6110274D01*
X7329728Y6110274D01*
G37*
G36*
X10495737Y5979972D02*
G01*
X10604398Y5979972D01*
X10598962Y5995162D01*
X10592206Y6008725D01*
X10583875Y6021374D01*
X10574121Y6032957D01*
X10563098Y6043371D01*
X10550956Y6052413D01*
X10537850Y6059982D01*
X10523931Y6065977D01*
X10509453Y6070346D01*
X10495737Y6072733D01*
G37*
G36*
X10274401Y5979972D02*
G01*
X10383062Y5979972D01*
X10383062Y6072733D01*
X10369346Y6070346D01*
X10354868Y6065977D01*
X10340949Y6059982D01*
X10327843Y6052413D01*
X10315702Y6043371D01*
X10304678Y6032957D01*
X10294924Y6021374D01*
X10286593Y6008725D01*
X10279837Y5995162D01*
G37*
G36*
X1664106Y7185050D02*
G01*
X1720850Y7185050D01*
X1720850Y7361428D01*
X1593443Y7361428D01*
X1593443Y7255713D01*
X1594358Y7244334D01*
X1596898Y7233615D01*
X1601114Y7223404D01*
X1606905Y7214006D01*
X1614068Y7205624D01*
X1622399Y7198512D01*
X1631797Y7192721D01*
X1642008Y7188504D01*
X1652727Y7185964D01*
G37*
G36*
X1860550Y7599172D02*
G01*
X1987956Y7599172D01*
X1987956Y7704886D01*
X1987042Y7716266D01*
X1984502Y7726984D01*
X1980285Y7737195D01*
X1974494Y7746593D01*
X1967331Y7754975D01*
X1959000Y7762087D01*
X1949602Y7767878D01*
X1939391Y7772095D01*
X1928672Y7774635D01*
X1917293Y7775549D01*
X1860550Y7775549D01*
G37*

%LPD*%
D10*
X11620500Y1699381D02*
G01*
X11620500Y1365290D01*
X11620500Y1699381D02*
G01*
X11509136Y1699381D01*
X11461409Y1683473D01*
X11429591Y1651655D01*
X11413683Y1619836D01*
X11397772Y1572110D01*
X11397772Y1492562D01*
X11413683Y1444835D01*
X11429591Y1413017D01*
X11461409Y1381201D01*
X11509136Y1365290D01*
X11620500Y1365290D01*
X11197318Y1699381D02*
G01*
X11229136Y1683473D01*
X11260955Y1651655D01*
X11276863Y1619836D01*
X11292773Y1572110D01*
X11292773Y1492562D01*
X11276863Y1444835D01*
X11260955Y1413017D01*
X11229136Y1381201D01*
X11197318Y1365290D01*
X11133681Y1365290D01*
X11101862Y1381201D01*
X11070046Y1413017D01*
X11054135Y1444835D01*
X11038227Y1492562D01*
X11038227Y1572110D01*
X11054135Y1619836D01*
X11070046Y1651655D01*
X11101862Y1683473D01*
X11133681Y1699381D01*
X11197318Y1699381D01*
X10560954Y1699381D02*
G01*
X10688226Y1365290D01*
X10560954Y1699381D02*
G01*
X10433682Y1365290D01*
X10640499Y1476654D02*
G01*
X10481409Y1476654D01*
X10328681Y1699381D02*
G01*
X10328681Y1365290D01*
X10328681Y1699381D02*
G01*
X10105953Y1365290D01*
X10105953Y1699381D02*
G01*
X10105953Y1365290D01*
X9644590Y1699381D02*
G01*
X9644590Y1365290D01*
X9755954Y1699381D02*
G01*
X9533227Y1699381D01*
X9332772Y1699381D02*
G01*
X9364591Y1683473D01*
X9396409Y1651655D01*
X9412317Y1619836D01*
X9428228Y1572110D01*
X9428228Y1492562D01*
X9412317Y1444835D01*
X9396409Y1413017D01*
X9364591Y1381201D01*
X9332772Y1365290D01*
X9269135Y1365290D01*
X9237317Y1381201D01*
X9205501Y1413017D01*
X9189590Y1444835D01*
X9173682Y1492562D01*
X9173682Y1572110D01*
X9189590Y1619836D01*
X9205501Y1651655D01*
X9237317Y1683473D01*
X9269135Y1699381D01*
X9332772Y1699381D01*
X8957317Y1699381D02*
G01*
X8957317Y1365290D01*
X9068681Y1699381D02*
G01*
X8845953Y1699381D01*
X8495954Y1699381D02*
G01*
X8495954Y1365290D01*
X8495954Y1699381D02*
G01*
X8273227Y1365290D01*
X8273227Y1699381D02*
G01*
X8273227Y1365290D01*
X7929590Y1619836D02*
G01*
X7945500Y1651655D01*
X7977317Y1683473D01*
X8009135Y1699381D01*
X8072772Y1699381D01*
X8104591Y1683473D01*
X8136409Y1651655D01*
X8152317Y1619836D01*
X8168228Y1572110D01*
X8168228Y1492562D01*
X8152317Y1444835D01*
X8136409Y1413017D01*
X8104591Y1381201D01*
X8072772Y1365290D01*
X8009135Y1365290D01*
X7977317Y1381201D01*
X7945500Y1413017D01*
X7929590Y1444835D01*
X7929590Y1492562D01*
X8009135Y1492562D02*
G01*
X7929590Y1492562D01*
X7824591Y1699381D02*
G01*
X7824591Y1365290D01*
X7601864Y1699381D02*
G01*
X7601864Y1365290D01*
X7824591Y1540291D02*
G01*
X7601864Y1540291D01*
X7496863Y1699381D02*
G01*
X7496863Y1365290D01*
X7391864Y1699381D02*
G01*
X7391864Y1365290D01*
X7391864Y1699381D02*
G01*
X7185045Y1699381D01*
X7391864Y1540291D02*
G01*
X7264590Y1540291D01*
X7391864Y1365290D02*
G01*
X7185045Y1365290D01*
X7080044Y1699381D02*
G01*
X7080044Y1365290D01*
X7080044Y1699381D02*
G01*
X6936864Y1699381D01*
X6889135Y1683473D01*
X6873227Y1667563D01*
X6857319Y1635744D01*
X6857319Y1588018D01*
X6873227Y1556199D01*
X6889135Y1540291D01*
X6936864Y1524380D01*
X7080044Y1524380D01*
X10883900Y924681D02*
G01*
X10883900Y590590D01*
X10883900Y924681D02*
G01*
X10740717Y924681D01*
X10692991Y908773D01*
X10677083Y892863D01*
X10661172Y861044D01*
X10661172Y813318D01*
X10677083Y781499D01*
X10692991Y765591D01*
X10740717Y749680D01*
X10883900Y749680D01*
X10540263Y670135D02*
G01*
X10556173Y654227D01*
X10540263Y638317D01*
X10524355Y654227D01*
X10540263Y670135D01*
X10419354Y924681D02*
G01*
X10419354Y590590D01*
X10419354Y924681D02*
G01*
X10196626Y590590D01*
X10196626Y924681D02*
G01*
X10196626Y590590D01*
X10075717Y670135D02*
G01*
X10091628Y654227D01*
X10075717Y638317D01*
X10059809Y654227D01*
X10075717Y670135D01*
X9732081Y876955D02*
G01*
X9763899Y908773D01*
X9811626Y924681D01*
X9875263Y924681D01*
X9922990Y908773D01*
X9954808Y876955D01*
X9954808Y845136D01*
X9938900Y813318D01*
X9922990Y797410D01*
X9891171Y781499D01*
X9795718Y749680D01*
X9763899Y733772D01*
X9747991Y717862D01*
X9732081Y686046D01*
X9732081Y638317D01*
X9763899Y606501D01*
X9811626Y590590D01*
X9875263Y590590D01*
X9922990Y606501D01*
X9954808Y638317D01*
X9627082Y924681D02*
G01*
X9627082Y590590D01*
X9522081Y924681D02*
G01*
X9522081Y590590D01*
X9522081Y924681D02*
G01*
X9299354Y590590D01*
X9299354Y924681D02*
G01*
X9299354Y590590D01*
X9194355Y924681D02*
G01*
X9194355Y590590D01*
X8971627Y924681D02*
G01*
X8971627Y590590D01*
X9194355Y765591D02*
G01*
X8971627Y765591D01*
X8621626Y733772D02*
G01*
X8335263Y733772D01*
X7873900Y924681D02*
G01*
X7873900Y590590D01*
X7985264Y924681D02*
G01*
X7762537Y924681D01*
X7641628Y670135D02*
G01*
X7657536Y654227D01*
X7641628Y638317D01*
X7625717Y654227D01*
X7641628Y670135D01*
X7520719Y924681D02*
G01*
X7520719Y590590D01*
X7520719Y924681D02*
G01*
X7409355Y924681D01*
X7361626Y908773D01*
X7329810Y876955D01*
X7313899Y845136D01*
X7297991Y797410D01*
X7297991Y717862D01*
X7313899Y670135D01*
X7329810Y638317D01*
X7361626Y606501D01*
X7409355Y590590D01*
X7520719Y590590D01*
X7177082Y670135D02*
G01*
X7192990Y654227D01*
X7177082Y638317D01*
X7161171Y654227D01*
X7177082Y670135D01*
X6960717Y924681D02*
G01*
X6992536Y908773D01*
X7024354Y876955D01*
X7040262Y845136D01*
X7056173Y797410D01*
X7056173Y717862D01*
X7040262Y670135D01*
X7024354Y638317D01*
X6992536Y606501D01*
X6960717Y590590D01*
X6897082Y590590D01*
X6865264Y606501D01*
X6833445Y638317D01*
X6817535Y670135D01*
X6801627Y717862D01*
X6801627Y797410D01*
X6817535Y845136D01*
X6833445Y876955D01*
X6865264Y908773D01*
X6897082Y924681D01*
X6960717Y924681D01*
X6912990Y654227D02*
G01*
X6817535Y558772D01*
X6696626Y924681D02*
G01*
X6696626Y686046D01*
X6680718Y638317D01*
X6648899Y606501D01*
X6601172Y590590D01*
X6569354Y590590D01*
X6521627Y606501D01*
X6489809Y638317D01*
X6473901Y686046D01*
X6473901Y924681D01*
X6241628Y924681D02*
G01*
X6368900Y590590D01*
X6241628Y924681D02*
G01*
X6114354Y590590D01*
X6321173Y701954D02*
G01*
X6162080Y701954D01*
X6009355Y924681D02*
G01*
X6009355Y590590D01*
X6009355Y924681D02*
G01*
X5786627Y590590D01*
X5786627Y924681D02*
G01*
X5786627Y590590D01*
X5442991Y845136D02*
G01*
X5458899Y876955D01*
X5490718Y908773D01*
X5522536Y924681D01*
X5586173Y924681D01*
X5617989Y908773D01*
X5649808Y876955D01*
X5665718Y845136D01*
X5681626Y797410D01*
X5681626Y717862D01*
X5665718Y670135D01*
X5649808Y638317D01*
X5617989Y606501D01*
X5586173Y590590D01*
X5522536Y590590D01*
X5490718Y606501D01*
X5458899Y638317D01*
X5442991Y670135D01*
X5442991Y717862D01*
X5522536Y717862D02*
G01*
X5442991Y717862D01*
G36*
X1350010Y3849979D02*
G01*
X1350010Y3799992D01*
X1550009Y3799992D01*
X2150008Y3199993D01*
X2249982Y3199993D01*
X1999996Y3449980D01*
X1999996Y3849979D01*
G37*
G36*
X2849981Y5249976D02*
G01*
X2849981Y4900015D01*
X2900019Y4900015D01*
X3799992Y3999992D01*
X3900017Y3999992D01*
X3900017Y4500016D01*
X4700016Y4500016D01*
X4700016Y4950002D01*
X4399991Y5249976D01*
G37*
G36*
X1100023Y5700014D02*
G01*
X1049985Y5649976D01*
X1300022Y5649976D01*
X1300022Y5550001D01*
X1999996Y5550001D01*
X1999996Y5649976D01*
X2350008Y5649976D01*
X2350008Y5550001D01*
X2550007Y5550001D01*
X2399995Y5700014D01*
G37*
G36*
X2799994Y4350004D02*
G01*
X2799994Y4249978D01*
X3249980Y3799992D01*
X3649979Y3799992D01*
X3100019Y4350004D01*
G37*
G36*
X3150006Y1900021D02*
G01*
X3049981Y1799996D01*
X3049981Y1350010D01*
X2999994Y1350010D01*
X2500020Y849985D01*
X2500020Y799998D01*
X2999994Y799998D01*
X2999994Y1100023D01*
X3049981Y1150010D01*
X4449978Y1150010D01*
X4449978Y1350010D01*
X3950004Y1350010D01*
X3900017Y1399997D01*
X3900017Y1849983D01*
X3849979Y1900021D01*
G37*
G36*
X4750003Y1350010D02*
G01*
X4750003Y1049985D01*
X4399991Y700024D01*
X3849979Y700024D01*
X3799992Y750011D01*
X3799992Y1049985D01*
X3300018Y1049985D01*
X3333343Y950010D01*
X3300018Y950010D01*
X3350006Y900023D01*
X3350006Y700024D01*
X3300018Y649986D01*
X3150006Y649986D01*
X3150006Y599998D01*
X4500016Y599998D01*
X4950002Y1049985D01*
X4950002Y1350010D01*
G37*
G36*
X3300018Y1049985D02*
G01*
X3300018Y950010D01*
X3350006Y950010D01*
X3350006Y1049985D01*
G37*
G36*
X6350000Y3249980D02*
G01*
X6100013Y3049981D01*
X6100013Y2999994D01*
X8900007Y2999994D01*
X8900007Y3249980D01*
G37*
G36*
X9250019Y3249980D02*
G01*
X9250019Y2799994D01*
X9500006Y2799994D01*
X9500006Y3150006D01*
X9399981Y3249980D01*
G37*
G36*
X8900007Y6749999D02*
G01*
X8999982Y6650024D01*
X9050020Y6650024D01*
X9100007Y6599986D01*
X9100007Y6449974D01*
X9549993Y5999988D01*
X9549993Y5550001D01*
X9700006Y5550001D01*
X9700006Y5700014D01*
X9650018Y5750001D01*
X9650018Y5950000D01*
X9700006Y5950000D01*
X9700006Y6199987D01*
X9149994Y6749999D01*
G37*
X1917700Y6210300D02*
G01*
X2324100Y6210300D01*
X3009900Y5524500D01*
X4625593Y5524500D01*
X5080000Y5070094D01*
X5080000Y4343400D01*
X5067300Y4330700D01*
X4813300Y4330700D02*
G01*
X4800600Y4330700D01*
X4800600Y5049520D01*
X4500118Y5350002D01*
X2892297Y5350002D01*
X2451100Y5791200D01*
X1016000Y5791200D01*
X863600Y5638800D01*
X863600Y5219700D01*
X1143000Y5219700D01*
X4559300Y4089400D02*
G01*
X4559300Y3848100D01*
X3746500Y3848100D01*
X2717800Y4876800D01*
X2717800Y5232400D01*
X2501900Y5448300D01*
X2159000Y5448300D01*
X1409700Y6210300D02*
G01*
X1003300Y6210300D01*
X558800Y5765800D01*
X558800Y1333500D01*
X991362Y900937D01*
X1143000Y900937D01*
X2425700Y7480300D02*
G01*
X2585392Y7639992D01*
X3248408Y7639992D01*
X1409700Y6210300D02*
G01*
X1409700Y7734300D01*
X2006600Y8331200D01*
X9994900Y8331200D01*
X10426700Y7899400D01*
X10426700Y7594600D01*
X10261600Y7429500D01*
X9169145Y7429500D01*
X8899397Y7699247D01*
X3248406Y7640065D02*
G01*
X3248406Y7693405D01*
X3644900Y8089900D01*
X9842500Y8089900D01*
X10083800Y7848600D01*
X10083800Y7734808D01*
X10119359Y7699247D01*
X1143000Y1422400D02*
G01*
X1473200Y1422400D01*
X1752600Y1143000D01*
X1752600Y834138D01*
X1930400Y656338D01*
X2993138Y656338D01*
X3175000Y838200D01*
X1143000Y1130300D02*
G01*
X1465326Y1130300D01*
X1587500Y1008126D01*
X1587500Y639826D01*
X1765300Y462026D01*
X4572000Y462026D01*
X5067300Y957326D01*
X5067300Y1516126D01*
X5321300Y4330700D02*
G01*
X5321300Y5016500D01*
X5727700Y5422900D01*
X8102600Y5422900D01*
X8420100Y5105400D01*
X8825229Y5105400D01*
X8837929Y5118100D01*
X3962400Y838200D02*
G01*
X4318000Y838200D01*
X4368800Y889000D01*
X4368800Y901700D01*
X4559300Y1092200D01*
X4559300Y1536700D01*
X1143000Y3695700D02*
G01*
X1536700Y3695700D01*
X2146300Y3086100D01*
X4216400Y3086100D01*
X4292600Y3009900D01*
X4292600Y2730500D01*
X5321300Y1790700D02*
G01*
X5321300Y2057400D01*
X5016500Y2362200D01*
X2832100Y2362200D01*
X2489200Y2019300D01*
X2489200Y1778000D01*
X2362200Y1651000D01*
X2159000Y1651000D01*
X4559300Y1790700D02*
G01*
X4559300Y1955800D01*
X4495800Y2019300D01*
X3086100Y2019300D01*
X2895600Y1828800D01*
X2895600Y1384300D01*
X2425700Y914400D01*
X2172461Y914400D01*
X2159000Y900937D01*
X2159000Y1401063D02*
G01*
X2391663Y1401063D01*
X2679700Y1689100D01*
X2679700Y1917700D01*
X2946400Y2184400D01*
X4914900Y2184400D01*
X5067300Y2032000D01*
X5067300Y1790700D01*
X9804400Y6261100D02*
G01*
X10845800Y6261100D01*
X11112500Y5994400D01*
X11112500Y3911600D01*
X10795000Y3594100D01*
X9575800Y3594100D01*
X2159000Y4457700D02*
G01*
X2781300Y4457700D01*
X1143000Y3949700D02*
G01*
X2159000Y3949700D01*
X1143000Y4203700D02*
G01*
X2159000Y4203700D01*
X1143000Y4457700D02*
G01*
X2159000Y4457700D01*
X1143000Y5219700D02*
G01*
X2159000Y5219700D01*
X1143000Y5473700D02*
G01*
X2159000Y5473700D01*
X2781300Y3797300D02*
G01*
X3048000Y3530600D01*
X4991100Y3530600D01*
X5321300Y3860800D01*
X5321300Y4076700D01*
X2159000Y3924300D02*
G01*
X2286000Y3924300D01*
X2832100Y3378200D01*
X5143500Y3378200D01*
X5575300Y3810000D01*
X5575300Y4076700D01*
X5829300Y4076700D02*
G01*
X5829300Y3759200D01*
X5295900Y3225800D01*
X2387600Y3225800D01*
X2159000Y3454400D01*
X2159000Y3670300D01*
X5067300Y4089400D02*
G01*
X5067300Y3860800D01*
X4889500Y3683000D01*
X3225800Y3683000D01*
X2692400Y4216400D01*
X2159000Y4216400D01*
X9065259Y2889757D02*
G01*
X6140958Y2889757D01*
X5829300Y2578100D01*
X5829300Y1790700D01*
X9065259Y2635757D02*
G01*
X9071102Y2641600D01*
X9512300Y2641600D01*
X9588500Y2717800D01*
X9588500Y3213100D01*
X9436100Y3365500D01*
X6273800Y3365500D01*
X5575300Y2667000D01*
X5575300Y1790700D01*
X5575300Y4330700D02*
G01*
X5575300Y4838700D01*
X5740400Y5003800D01*
X6756400Y5003800D02*
G01*
X6756400Y4940300D01*
X6858000Y4838700D01*
X7226300Y4838700D01*
X7226300Y5016500D02*
G01*
X7962900Y5016500D01*
X8102600Y4876800D01*
X8102600Y4616399D01*
X8128000Y4590999D01*
X9065259Y2381757D02*
G01*
X9519158Y2381757D01*
X9804400Y2667000D01*
X9804400Y3327400D01*
X9537700Y3594100D01*
X8362899Y3594100D01*
X8128000Y3828999D01*
X7248397Y7639989D02*
G01*
X7803210Y7639989D01*
X8026400Y7416800D01*
X8026400Y7416800D02*
G01*
X8026400Y7429500D01*
X8191500Y7594600D01*
X8794699Y7594600D01*
X8899397Y7699298D01*
X8788400Y5803900D02*
G01*
X8788400Y5417718D01*
X8838006Y5368112D01*
X9804400Y5803900D02*
G01*
X9804400Y5459501D01*
X9713010Y5368112D01*
X9713010Y5118100D02*
G01*
X9713010Y4650689D01*
X9766300Y4597400D01*
X10782300Y4597400D02*
G01*
X10439400Y4940300D01*
X10439400Y5613400D01*
X8026400Y6642100D02*
G01*
X8756599Y6642100D01*
X8899397Y6499301D01*
X8699500Y7099300D02*
G01*
X10312400Y7099300D01*
X10551159Y7338060D01*
X11341100Y7338060D01*
X8026400Y7416800D02*
G01*
X8026400Y7048500D01*
X8216900Y6858000D01*
X9207500Y6858000D01*
X9804400Y6261100D01*
X9804400Y5803900D01*
X10439400Y5778500D02*
G01*
X10172700Y5778500D01*
X10172700Y4445000D01*
X10058400Y4330700D01*
X9525000Y4330700D01*
X9448800Y4406900D01*
X9448800Y5949950D01*
X8899397Y6499352D01*
D11*
G01*
X2781300Y4457700D03*
G01*
X2781300Y3810000D03*
D12*
G01*
X4305300Y2730500D03*
G36*
X1946699Y7099300D02*
G01*
X2396700Y7099300D01*
X2396700Y6845300D01*
X1946699Y6845300D01*
G37*
G36*
X1663700Y7705300D02*
G01*
X1917700Y7705300D01*
X1917700Y7255299D01*
X1663700Y7255299D01*
G37*
G36*
X2298700Y7705300D02*
G01*
X2552700Y7705300D01*
X2552700Y7255299D01*
X2298700Y7255299D01*
G37*
D15*
G01*
X8128000Y3828999D03*
G01*
X8128000Y4590999D03*
D11*
G01*
X9766300Y4597400D03*
G01*
X10782300Y4597400D03*
G01*
X9804400Y5803900D03*
G01*
X8788400Y5803900D03*
G01*
X5740400Y5003800D03*
G01*
X6756400Y5003800D03*
D16*
G01*
X8026400Y6642100D03*
G01*
X8026400Y7416800D03*
G36*
X3098406Y7789989D02*
G01*
X3398405Y7789989D01*
X3398405Y7489990D01*
X3098406Y7489990D01*
G37*
G36*
X3098406Y6040005D02*
G01*
X3398405Y6040005D01*
X3398405Y5740006D01*
X3098406Y5740006D01*
G37*
G36*
X7098398Y7789989D02*
G01*
X7398397Y7789989D01*
X7398397Y7489990D01*
X7098398Y7489990D01*
G37*
G36*
X7098398Y6040005D02*
G01*
X7398397Y6040005D01*
X7398397Y5740006D01*
X7098398Y5740006D01*
G37*
D18*
G01*
X8699500Y7099300D03*
G01*
X8899397Y6499301D03*
G01*
X8899397Y7699298D03*
G01*
X10119385Y7699298D03*
G01*
X10119385Y6499301D03*
D11*
G01*
X11457940Y3530600D03*
G01*
X9065259Y2127757D03*
G01*
X9065259Y3143757D03*
G01*
X9065259Y2889757D03*
G01*
X9065259Y2635757D03*
G01*
X9065259Y2381757D03*
G01*
X11457940Y3276600D03*
G01*
X11457940Y3022600D03*
G01*
X11457940Y2768600D03*
G01*
X11457940Y2514600D03*
G01*
X11457940Y2260600D03*
G01*
X11457940Y2006600D03*
G36*
X11280825Y6980631D02*
G01*
X11195608Y6895414D01*
X11195608Y6774865D01*
X11280825Y6689648D01*
X11401374Y6689648D01*
X11486591Y6774865D01*
X11486591Y6895414D01*
X11401374Y6980631D01*
G37*
G36*
X11280825Y7483551D02*
G01*
X11195608Y7398334D01*
X11195608Y7277785D01*
X11280825Y7192568D01*
X11401374Y7192568D01*
X11486591Y7277785D01*
X11486591Y7398334D01*
X11401374Y7483551D01*
G37*
G36*
X2058997Y1750999D02*
G01*
X2258997Y1750999D01*
X2258997Y1551000D01*
X2058997Y1551000D01*
G37*
G01*
X2159000Y1400987D03*
G01*
X2159000Y1151001D03*
D20*
G01*
X2159000Y900988D03*
G36*
X1042997Y1750999D02*
G01*
X1242997Y1750999D01*
X1242997Y1551000D01*
X1042997Y1551000D01*
G37*
D11*
G01*
X1143000Y1400987D03*
G01*
X1143000Y1151001D03*
D20*
G01*
X1143000Y900988D03*
D12*
G01*
X8838006Y5118100D03*
G01*
X8838006Y5368112D03*
G01*
X9713010Y5118100D03*
G01*
X9713010Y5368112D03*
D11*
G01*
X3187700Y850900D03*
G01*
X3975100Y850900D03*
G01*
X1663700Y6210300D03*
G36*
X1309700Y6310299D02*
G01*
X1509699Y6310299D01*
X1509699Y6110300D01*
X1309700Y6110300D01*
G37*
G01*
X1917700Y6210300D03*
D19*
G01*
X1143000Y5473700D03*
D11*
G01*
X1143000Y5219700D03*
G01*
X1143000Y4965700D03*
G01*
X1143000Y4711700D03*
G01*
X1143000Y4457700D03*
G01*
X1143000Y4203700D03*
G01*
X1143000Y3949700D03*
G01*
X1143000Y3695700D03*
D19*
G01*
X2159000Y5473700D03*
D11*
G01*
X2159000Y5219700D03*
G01*
X2159000Y4965700D03*
G01*
X2159000Y4711700D03*
G01*
X2159000Y4457700D03*
G01*
X2159000Y4203700D03*
G01*
X2159000Y3949700D03*
G01*
X2159000Y3695700D03*
G01*
X6337300Y4330700D03*
G01*
X6337300Y1790700D03*
G01*
X6337300Y4076700D03*
G01*
X6337300Y1536700D03*
G01*
X6083300Y4330700D03*
G01*
X6083300Y1790700D03*
G01*
X6083300Y4076700D03*
G01*
X6083300Y1536700D03*
G01*
X5829300Y4330700D03*
G01*
X5829300Y1790700D03*
G01*
X5829300Y4076700D03*
G01*
X5829300Y1536700D03*
G01*
X5575300Y4330700D03*
G01*
X5575300Y1790700D03*
G01*
X5575300Y4076700D03*
G01*
X5575300Y1536700D03*
G01*
X5321300Y4330700D03*
G01*
X5321300Y1790700D03*
G01*
X5321300Y4076700D03*
G01*
X5321300Y1536700D03*
G01*
X5067300Y4330700D03*
G01*
X5067300Y1790700D03*
G01*
X5067300Y4076700D03*
G01*
X5067300Y1536700D03*
G01*
X4813300Y4330700D03*
G01*
X4813300Y1790700D03*
G01*
X4813300Y4076700D03*
G01*
X4813300Y1536700D03*
G01*
X4559300Y4330700D03*
G01*
X4559300Y1790700D03*
G01*
X4559300Y4076700D03*
G01*
X4559300Y1536700D03*
G01*
X4305300Y4330700D03*
G01*
X4305300Y1790700D03*
G01*
X4305300Y4076700D03*
G01*
X4305300Y1536700D03*
G01*
X4051300Y4330700D03*
G01*
X4051300Y1790700D03*
G01*
X4051300Y4076700D03*
G01*
X4051300Y1536700D03*
D21*
X10479399Y5943600D02*
G01*
X10399400Y5943600D01*
X10479399Y5778500D02*
G01*
X10399400Y5778500D01*
X10479399Y5613400D02*
G01*
X10399400Y5613400D01*
X7266299Y4838700D02*
G01*
X7186300Y4838700D01*
X7186300Y5016500D02*
G01*
X7266299Y5016500D01*
X7266299Y5194300D02*
G01*
X7186300Y5194300D01*
M02*
